<mxfile host="Electron" modified="2024-03-08T04:24:24.059Z" agent="Mozilla/5.0 (Windows NT 10.0; Win64; x64) AppleWebKit/537.36 (KHTML, like Gecko) draw.io/21.6.5 Chrome/114.0.5735.243 Electron/25.3.1 Safari/537.36" etag="YQ9cgjycJh1D4bNZpn6Z" version="21.6.5" type="device">
  <diagram name="페이지-1" id="C56ZyXp3WVB_hsoW3W5g">
    <mxGraphModel dx="3058" dy="974" grid="1" gridSize="10" guides="1" tooltips="1" connect="1" arrows="1" fold="1" page="1" pageScale="1" pageWidth="1390" pageHeight="980" math="0" shadow="0">
      <root>
        <mxCell id="0" />
        <mxCell id="1" parent="0" />
        <mxCell id="gIZhr3SArTlTRKROjt2a-1" value="" style="group" vertex="1" connectable="0" parent="1">
          <mxGeometry x="-1370" y="4" width="1330" height="836" as="geometry" />
        </mxCell>
        <mxCell id="ooGHdUAhtFmK21fpcZyN-2" value="" style="shape=image;verticalLabelPosition=bottom;labelBackgroundColor=default;verticalAlign=top;aspect=fixed;imageAspect=0;image=data:image/png,iVBORw0KGgoAAAANSUhEUgAABfYAAAPLCAYAAAAdSdhkAAAAAXNSR0IArs4c6QAAAARnQU1BAACxjwv8YQUAAAAJcEhZcwAADsMAAA7DAcdvqGQAAPS6SURBVHhe7N0LYFPl/f/xTyiUAlIFqsVLQQQF0dXrpjLRzjs3Ee8buqkoMqc4/cH0L8M5+bG5wU8nOi0o6H6K865YKMzb8DLR/US0EwQVFOulxXKxSIFCm3+ec560SZqkaZu0Sfp+zcee5zknJyfJoY7PefI9nk8+XesVAAAAAAAAAABICZ5tZcviGux7vW1zncDj8dglAAAAAAAAAADSU9fc4+Mb7O/eXaP3S9ZoQ8UmO9I6Omd20oknHKXOnTPtCAAAAAAAAAAA6Sfuwf7Wrdt01TW36aOXl2l/Twc7Gn8VvXto/0EbZObof1shbf4uRy+/8JB65+a4GwAAAAAAAAAAkIYSEuxf+6vbdMAry3Veh852NL6+y9pDj1w1WtN+ep88Hq9efV2a87ccPfm/BPsAAAAAAAAAgPRmgv24T6s3O+wpjw70ZMS95XXopIUFl+r7owZqwEFeDegn7ZsrdezkPjcAAAAAAAAAAOkucfVyEqDoBz/Rs0edob26bnPK8AAAAAAAAAAA0N6kTLD/yd599NixI7Shey/t06XCjgIAAAAAAAAA0L7Evcb+xF/dpsNfeU+XZ3Sxoy23uWu2Zp56uR45brQyOtRq9o9v0xWHLHDWFS2Rpt+Vo8fmUmMfAAC0vdrd21W7q8r3c4dqa3bKW1Mtr7dGvgV5a30/kbY8HTJ8/8qQx7SMTHXI6KwOHbPUoVNX38/4/X9jAAAAAO1bQmrsx1tNhw4q+kGBnj76THk90un7/0tjDvynXQsAAJBcdn63Xjsrv9Cuqg2q2fmdE/Q74T6hftozn7H5rM1nbj57cw6Yc8GcEwAAAAAQT0kf7H+47wDN/tHZqlr3rn6w9Vn99ojZ2itzq10LAACQXEyoCwTinAAAAEBLeXZWq+P7q5X53MvKuu/v6jJ9trr+dpbTzLIZM+vMNmZbpL+kDvYrunTXb44+U1/846/Sc9N1QeYsHd3Ld3IqbtWDAAAAAAAAACApdSivcAL7LtMKlfnUP9Tx3ZXq8NUGeap2SF6v08yyGTPrzDbOtr7HmMcifSVlsG++qP6Rd7euq9qgVYtmSitflWfz1+qVuVmdM3a5GwEAAAAAAABAmuq0+A1lzZrvBPZOiB8r37bmMeaxZh9IT0kT7JtTc4fv36u9u3XL7u81elel3txV5Rv83reyVhkZUsdO7rYAAAAAAAAAEA+ffFqhx578QNfe8IJ++ovHdcaoeTrvp4/qmusX6M1ln9utWo+ZaW9K63R68z070nxmH2ZfbTl7v6x8q/O+/uSsB5yfpo+Wa/Ng3wT6lV6v/u3dpb/srtK5uyr1WO1ObQ8pt5PZSeqcKXk8dgBox3Z8tUG7K7fZHgAAAAAAAJqq5MMy/e6/X9b4a5/TA/P+rZUflTuh865dNdq02aSTXvU5YC+7devo8PnX6vzgM05pnXgx+3L26dt3W/jHSx/Xhfnmp+mj5dos2Dex/Vbfv1+rrdbdNVW6etf3+mvtDmcsnKzOvpZlO0A75t29Wysn3qGPJv2Pdn/3vR0FAAAAAABArO6b87aun1Sk19/8zI4EGzl8kO6/+xz1yWu9YN/Mqu88v8itnx9nZp9m34meuf/ue1/qb48ut73YmO3N49A0nm1ly8In6c2wdes2TfzVbTr8lfd0eUYXOxqeCfAfqtmuZ2ur9Zm3RrV2PJID9pPun+n7Q3WmHbCKlkjT78rRY3MfUu/cHDsKpK+dGzbpg1/81lnu0ndfHfrnG9Uxu5vTB9B6yso36n+f+IdeWPymHYnNyDOH6LKfDvP9N6uXHUG62Va+wi65yiu26vGF76t46Wo7EpuzThqon519lHJzutsRpLJuuUfZJQAAALS1G36zUO+XfGN7DZ045EBNu/V022s9TsmcOM7UD6d2/32045qf2l58mYD+4Ufd8kEXX3CErh73I2c5cNy47JKj9YtLjnGWZ8/9tx5/6gNnOXAc0XXNPb7tZuxnyaPjPZ00SBnqaMei6b6H24D2rHZntdb+ca7tSdvXf6PVN92l3VspywO0thUlnzQ51DcW/uMt57FoP0pWf9PkUN9Y8voa57EAAAAA4mf2g+9EDfX32CNT14w/3vZaj7nJbaJDfcM8RyJuqDvtjleDwnt/WN+YwO3M45s62789a7Ng39wH94cdOul/Ou6hyRld1b2RQ9kz221Ae2VK8KyZeq++Xx38FbGqz7/W6t8Q7gOt7ZsNG+1S07XksUg9ZRXNL5vWkscCAAAACGZC48efLrG98EaPHKx9e7fut2ZNeZx43Cg3Vua54lmSZ/E/1ujVpWttz3Vk/r52KbrQ7Uy4H+3CC+q16c1zzX1wu3k8urRLTx197u+k/Q+VOma6K0Nk+/48mQa0J7XVu/T9qnXatWWrPpk2R1v/86ldE8yE+2tumaWaBNRgAwAAAAAASHWlX36np59faXvhdezYQWecerDttZ6Ob71vl1rg8pnSg3/3/bT9RsTlOX2+q9yhvz8VfLFkzz2zdPW442wvOrOd2T7Qf9/xqj77fLPtIZI2DfaN7Z06a/aJF+jtH45QxrXzNPiC03VIf9/JlWE3sPboJnWjjDjakbLnXtV7F0zSqv+aqRU/vUlb/v2hXRPe7u+3E+wDaaNSC6deoxOHhW+TX6z0bbNO9zr9ZxX9t0MYK5919zV3nR2IzYdz3ee/N/r/F0YS2vzGEp152QOa+kaVHWk+/76C2p1r5Pzf7o/fqXse/3ZzPnYeBgAAALSpZ57/UN9/v9P2wjv+R31a9Wa5hmdntTouX2V70Yx3g/tw7b9965rIPKd57pZaWLxapV9usT3X9b/6sQYN3Nv2ojPbme0DbdxUpRdf5i8SjWnTYL+mQwe9PuBYPX3UWdrZMVOH5nytOVPW676Z0vlnu2G+X5cubgPai8y9e6h2127bi6zniUfph4vu1REP3a7MnMT/x6e6fJ2Wv7dGy1dvVMNf//6g8T4tbPQbXRv12iMv6AFfe+1rO9RMm168ry7sDFwGUle2Rk67T28uDm4v3HC4XR9JlAsCU9/SJrtVQ9EuJDTjwgHaxqY1mhoYsjdZlZbc6Qb1sYTx591ylf7xsG03DlQPOw4AAAAkm6rtu/TSq43f6+zAPq0b6hsZH62TvF7bi2aOdOVPg9sTdtbVlq/cn03he07nuVvoxVeC39fxV/xIPznpINuLjdnePC7Q0jeCS1GjoTYN9j/du4/mnXCuvuqRqz06bdPtR/9VQ/b9UKeeJM24XfqfadL++0oej9Q5021Ae2EC+4N/e5U8GZH/mO71w8PV/+Zx8nRovT/K33+wRNdPuVvXz1+jllV+/k7/eWyJ/uZr/2kkgfLPEg5trTtr2H/RIobWxFnQQFP13T/STWfCXBB45BKdYNdGFuZxM09zVx3bW/u5S0h7W/WF8w3aPPXJcQYAAACAtLDsnS9UVbXL9iI7dNA+dqn1dPjsS7sUo8CSOwfYCxEbF7k/m6jJzx3C1ML/ojR4tv7ppwywS00T+riy8q3U2m9EmwX733XZQ/OOP1fv9v2BvL6juOWIORrZ53Wn7r5xwH7SuEukZ/9X+uUVUufOUqeOdiXQTvQYcqQOvnWCPKG1qXyyjxrkWzc+avCf1LZVyr196OE6MNdZaNQJN9wRFDxee5hdEYuKtzQ5XAgfrkWd2SxdPDMg/AzXxjXtyjSQjDZ9VeYuHNhbPd0lpLnNb6zQM85Sqe56qdxZiuaZP9SX4pnzcbnmmOU/RL8RGQAAANAWPv7kW7sUXfWuGrvUejp8E9uxhdUrzPdmf2zK88yVTrf9KFr03D5bvttul1yDD91HOTnNq6VuHmceHyh0/wjWZongawN+qGeOPlPVHTvp4n6LNWHgM+rUIbjsSEaG9KOjpRm/l/70O9/Bpmh+CbSEp4NHGVmdG8zKP+jGn8vTsfWvdu2stVe4Wxj2ff9//9ZLztIaffx541fNWyxniGaEC+EDWuNlToDWFlxH/+tS8+/YL4Y1X6XeesMtwHNCHlO3U0bFFv3b/Nx/r6aXxfn4HV08t1TKP0l/GZcnLX6h0ZI+gaV4xh+Sq/Fm+ZZ8uxYAAABIHhs3xnavqW+/3WaXWo9ncwtKCc8c55bkecj2jX+ZMj2+cTd0iapFz+2zZUvwvR6POHxfu9Q8oY8P3T+CtUlUXta9p24a/V9OXf0f9PhYk37wv+rROfKJ1LWL1H0P2wHakcoP1mjtjId18G2/1ICQsjy7t7b+f2yMr79Y4/w8Zv89nZ/Nsn2dHn7Mf/f1XXr2Dw9oYeOTQ7XsrpuDZ9XbG4CefVecK4AzQxlJqVKff25+9taBQVn7y5pQF/6HqZV/6aNaZreM2cqXdce7ZuFwnXx0pLI/SDaby20M/9WWJtTYt3X1nZn2ebrhsoE6dOhZ+sswX7fkdV0cY719AAAAIJmZm7HGYtVHG+xS6/Fsj35DX1fAjXN/vL875MzMD2j93eGmiO25I/suZEb9j36YZ5eaJ/TxoftHsFYP9suyc/Szy/9H33fppr2zNun6w+brBz0av3kF0N5UfvCxPpk2RwNuuUrdD+uvHiccoUNu+6UzS9/M3m+NG+U2VKoP33KX/vPpN2FunhuDmo1a+Ke79XiplHncJbr7+sOVuf1D3TFxjhY2chPdoFI804ao52Hnxmemfc0ufV+5XRU73G8OZHI/DySpIdeb8/9cBZ/xp6nQ+XMROH64bn7E/lkJ/DNj10ZXqYWPv+wuHnukhoSZsP/4JHvRgPtJJJFyPWVm3Bslr+upRsN4Wzrnsvm6y6mek6+/PHyWzrInyaEXXaXHzcx9H3/JnalvBP9lKLAUj9ve0Ud2HQAAAJBMevXsapeiW/rGOm3Y0LI7CiZGmBvnhra1dtNW1KtncNmdj9aEvzByRP5+dZ+B+Wn64YQ+PnT/CNaqwf62zC665+SxWrtPH3XpuEM/H/CCzjvw5QYleID2rurzr/XpHx7Qwb8dr+wjDrGj0p7HHqZDbpugPlefr47dW/+XW/UH/1c3s7560bOas7JpJXS+X/eW7ph4u+54x/e4vNM066YhOuasqzTr/N5S5fu649o/6o4XS/V9Ikra2dn9YdsFUzXxt3/R7fPttxFyKT2CtlV/o+aZetwZMbPyb9bZlwact3P933qJr00vPmpn6/u8+77eqrDLAeruM8H9JJLGR0+84NTH/9G4k3Se7+czf1iiJdFuFqJcjb/zJP3It+SW1DlOh7or6vQYepZv/Gxnfxp2tqYNdf+PuDteX4anvjXcBwAAAJAMevWKLdg3/v5U6943ytuls11qoYcmuQF/YFmeRrT0uUPf149Whw/2j8zfV08/Nlb/XHKV89P0wwl9fFM+t/ao1YJ9rzxaePjJWvSDAtV6Oui4vUv0q0Of0F6ZW+0WAPwqV6zWwVOvVvaRA+1IvT2PGazcswtsrxVtX6c5f31Z36i3rrrlEp2gMj1+97NaFkO9h03r/k9/u+1mnf2rR7Vw3S5lHnSW7r7rXB3exaztpMMvm6y7f5anzO2lWnjXH3X2Zffpb++URQ34qyu36/uvS7X8gzKFyR0bsrP7w7Zn79C8Wb/WVUe7m/bNpfQI2ta14c7T0DbuSLt1HK181pa2Olw3zzR/zj/UHZdeo3tXuquRnDa/sUS/XmyW8vWzoQM13qlzX6q7bmxkBn3PgZr2sKmPb/th2dr5F8V4Y4dDjnNCfnMRwH8BIPr+AQAAgMT7weG97VLjni9aqRdfbr3qIt4eTckgAkryRGqX201j0LTnbqhvn+BqEh+tadnNeEMfH7p/BGu1YH/ZQUdq9tCLtanbnurScbv+fOxdOrB7w7obtbXSjp1STevfhBpIGr3HnKLuhw+wvSQQWD5nxLn66dAhuvH6w6XS1zT5picaDff32F6ql96pVHWXbJ1w6fV6etbZOibwCwcZXXTMpf9PT08/WyfkdFJ1xRp9+F0n7ZFh11uBNfbP+tVfNPGOR/W/K76za1uqQp87CVie9mukXkldGZJIzdT/t9sCyebDue6NeENtevE+nTjJLcFz8cxrNPKwIZox8zSnb875yS+27KZKSBD/TW9Nffw77Yz5Q46zZXRK9OvLElgj3/fcwaV4wjdq9AMAAKCtHXvUAdpjj9jr7v5x5lKnLE9rqN13b7sUiyglef71ld0mdk177ob22zdbvXO7255UUbFN99xvazg3kXmcebyf2a/ZPyJrlWB/Q/eeeuRHo/Tp3n3k9fWfOeUGHZuzSh6nF+yzL6Tf/1l6/z92AEDbqtmol/70h/ryOeMOl/lP4b6nX6TfDe3ihvsT5ujZdZFvaJJ52LmacdckPfX4HZrxs4HqGRLY+/U8+izNeHimnppzq6af0cuOSoePazhb+dVH/p/mzfp/uvuygWpy4ZyKtzTZCeEDAs5tG/W5U2boIO0bdmLqQbHNojYt5lrmQHQfznUvFjV9xrw7077BRSdfm/C03SSAeZ66mfqP3KdrD3PHnW+62HBfb3yope4SkkjdTW/vrK+Pb5jZ8m64b2bvx3B38pYYdnZAOZ765tyAFwAAAEgCWVkddWpB0yZQ/n76K87s/USr7XeAXWp98XjuIcf3sUuuZxes1Psl39hebMz25nGBQveLhhIe7Nd06KAlh56oRYcXqEMHr276wTydvv+/5fE0DPV37ZIWvyTdeZ+05FVp+w67AkDbqC7T4zfdrt+/sV3KPlK/m+Yvn+OT0Uun33SLpp/h1sd/dsEafRPlmzb7DjpI+8ZycTyjk/bN6+VcPGggQp18N5B0Z/TXLZfGVKCnXmmZ1h+cp0OG5OlAbp6LlOC/2BR409xsjZwWcqGpQQu9+a578eyFGy5R4eJrNDL0SpktYzVj2hC1QREwNMIN0YNDfT+3FM5xGn9I6NXKKi25M/zs+uiNm+MCAAAgdZ13zuHaY4+m1ZS/+69vObP3/7OyzI7EX82hB0kej+21It9zOs/dQmMvOlL77xc8s/6G3yxU6ZdbbC86s53ZPpDZn9kvoktosG/q6r994BGaNvwa38ki/Tj3PV018Fl19IS/Wa6ZrX/fQ1J1tVTo+7mSvz0CbSuzty6+8RKNPO40zSgcr9NDs6GMXjp54mTNu+16zZh4pPaNMBM//k5TYYOw0m2F59tNmmrQWc43AOZNHaLwt3ABYjPqrB/rlQV3O80sp4qeZwxpEPgjsYadPEhFD1zhNLPcerrqrBsbzrBvvHFzXAAAAKSuvAP21Pnn+L+eHDtTb3/ifxXpv25epOl//qcemPdv/e3R5U5r6sz0cLydM7X7mMG21wJNvHmueU7z3C3Vs2dX/fxn9qaFAX5+5VN6/KkPbC88s95sF8rsz+wX0SU02P9k7z66+ZwbtaNTZx2853rdkv+A+nX/0q4NtrtGuucBabWtw/qV78/FrDluzX0AbWi/H+rm287VCT1sP1RGFx1y3MBWDPWB5HRU/sF6ZPZU3XT9WHXO7OQ0s2zGzLqWiH5fh/u0sIlfUEHbyh+0r+ZMP1+/vnyoMjtlOM0smzGzLuUsfiHM7P4H7A19AQAAgOTxi0uO0XE/NCUrm+6997/Wy69+qsee/EAPP/qe07Z8F7kscVPsHtL6s9Pj+ZxnnHawLrukYbg/e+6/dd7P5uvmqUvqLoSYn6Zvxs36UGY/Zn9onGdb2bKGNXGaaevWbZr4q9t0+Cvv6ezs3po6cqKK8k9Rz87f6dYj79eEQU+rc0a13TrYy69J518mfRdwb75uXaX5s6XRw+1AGEVLpOl35eixuQ+pd26TK20DiKt1unfYTD3u1Ol2S3qY2t3hanrH5PxJenNcwNfCTCke5+aeZsZ+w3IiRt3z+R9b95jm8D3PTGlCSx4f4TiR+ubNX6R5jy7S3jl7adK1P9WPj/uBXRPev975j2be+3d9W7FFV1wyQleMHWHXIN1sK19hl1yPPP+eHn1+uXJ6dNPEX5yo446MXivynfe/0Ky/vamKzdt0yTnH6NJzGv4fZKSebrlH2SUAAAC0tT/9z2ta8pKdXdxMv5tyqgqGtryUjV+nxW+o05vvuZ0E23Xi0do1bKjtxY+54bC5N0Fzxfs9TWddc49PTLB/8GsfquonV2j20Iu0vXOWzuv7ogp//N/q1fk7u2WwLb7hMZf6Pvx/2YEA+YOlt5b4/jLUzQ6EINgHkknDYD+umhLSh14UAOLMBPvd9+iqC0b/xI7E5qkF/9TW76sI9tNYuGC/e7dMnXN60y7zPf/Sh9q6rZpgP00Q7AMAACQXM3PczLpvqgH9e+kXlxytE0840I7ET9Z9f1eHrzbYXmLU7r+PdlzzU9uLPxPuP/jQ/+mrrwNmbzfC1NS/8vIfEuo3QUKC/et+9Xt9/XWW1p89SV/22Ff7dy3X8tEXKbfLJrtVQ3fPlqb8t+8vwlV2IEDHDGnyddIfptqBEAT7QDJJcLAPACkgNNgHDIJ9AACA5FPyYZmeef5Dvf7mZ3Ykso4dO+icUYOdcj57dGt5bfpwOpRXqPODz8hTtcOOxJe3a5Z2XnmeahOcoW7aVKX5T7yvN/71ub6t2GZHG9o7p5uG/vhA50a51NRvmvgH+99v0xW3ztPirkPlHfhj7Zn5vf457HId1WuN3aIhU0P/P6ukbzfaAR9zI+gOvua/H/Ree0pH/MAdD0WwDyQTgn0AINhHOAT7AAAAyWvlR+Va9vYXTg34jZuqnNa5c4b22rOLr2Xp+B/10emnHqx99o5QUiSOOnz+tTrPL4p7uO+E+mNHqfbA/exI6yj98jt9+dV32rjRvK/b1KtnN/Xq1VUH7L+nc0NjNE/8g/2qnbqy8HWt7Jmn3vt21MX9FmviYY/ZtYlBsA8AAJIJwT7CIdgHAABArMzM/cxnXopbWR5Tfqf6vNMTPlMfrccE+x3scnzU7FbXz17VBO+vtOj0X+maQ5+wK5qgRvJu97Xdtg8AAAAAAAAA7YQJ4E0dfHOT25Yy+zD7ItRPP/EN9n08NbvUxVOlHp0r1bFDjR2Nza51HfTdH7tq8y3d9N2t3bS1MEs1X8b9EAEAAAAAAAAgqe0aNlQ7Jo7V7mMPC1+jPBLftuYx5rFmH0hPyZWa7/IoI7dWnQ6uUUafGnXo5tXur3yHGLdiQQAAAAAAAACQGsxM++oxp2n71AmqvuBMJ7A3pXVMzXwn7Pc1s2zGzDqzjbOt7zHM0k9v8a2xv3Wbrr/pd/rxj/6l666yg01hyvDU2uUAnk52IQxq7CPdVfr+XBnZ3RN/gxYAQMtRYx/hUGMfAAAAQLzEv8Z+S2W4IX5oA9qTyq1Veuzpl/SryXfq1HOu1/ALJzvNLJsxs85sAwAAAAAAAKB9ooA9kERMaD/m0v+n++Y+pw8+/FR7ZXdX/mH9nWaWzZhZZ7Yx2wIAAAAAAABofxJSiufYI/6lqy+zgwm2+GVp5l9z9PhDlOJBavvdHXP1ymvLneVLLjxTw047Tn3zejt9v/WlZb5z/h09+uQ/nP6pJx+j3988zlkGALS9murvtXvHJl/bHL6+INofTwd1zOqhztl97AAAAAAAtIwpxRP3YH/89b9TWdm/NOhgO5hgpV9LX3yZoxefJ9hH6vKH+mZm/k3Xj20Q6IcyAf+f7p6vkpVrCfcBIAnV7KxUTbVpW1W7e4cdRXvSoWOWMjL38LU9ldE5244CAAAAQMvFPdivrt6ll/75tj5f/7UdaR1du2bponPPdH4CqcaU1DHldUyo/5c/Xq/MTh3tmuiqd+3Wr//f3U64f824MfrZ+afbNQAAAAAAAADSVdyDfWN3TY28tXHdZeM8UqeOsYWhQDIxN8E19fJ37tyl+XNuDTtT/8V//ts5v38y9Gg7Us/M3B87/nZ17txJzz3yR2V372rXAAAAAAAAAEhHJtiP+81zO2ZkqFOnjq3bCPWRohb+419OqG9q6ocL9Z8pWqrb//ywHnqs2I4EM48xjzX7MPsCAAAAAAAAkP7iHuwDiN2/3vmP89PcKDfU3/6+WHfd96S6dOms3/7XL+xoQ/7H+vcFAAAAAAAAIL3FvRQPgNides712iu7u5753/+2I65Zs5/Wk8+/6oT6d//xeg0eeKBdE955P/+ttlRu1SvP363Fr5faUQAAAAAAAADp5rwLLiDYB9pK5dZtGn7hZOemuffN/C87Kt36hwf16hvvyeORunXrqo4ZDb9Yc+lFZ+qiMafannTNpP9xbqJb/OQMddzrCDsKAAAAAAAAIBnl5OTYJVdN9WZ5d++QvLXy+prH00HyNU/HLGVk9rBb1SPYB9pIxGD/j3P16uvLWxTsly6fbdcAAAAAAAAASCZ5x1xdF+zX7t6umuotvoVd8tbudoL9OibY79BR6tBJGZl7qUPHLnYFwT7QphJRiqcqYwDBPgAAAAAAAJCk/MG+E+rv3CRvbbXv5xbt3PK5du9w+54OmeqY1VOd9zpQGZ33cvoZnXvWhfsE+0Ab+tXkO/XBh59q/pxb1Tevtx11PfxYsR58ZKET7v/1zzfqkAF5dk2w9aVlGjv+dh1x+AD9dcaNQcH+Afv2dH4CAAAAAAAAaFtffrPJ+ekP9ndt+1re2p3aufUL7ahY5awLJytnsDp37yNPh87q1G0/Z6xhjQ8ArebHx/3A+bn45Xecn4Eu+9lwXX/1Bdq+faem3/m/drQh/2P9+wIAAAAAAACQ3Gp2bnbK75if0UJ9w6wP3N4g2Afa0Mgzf6zOnTvp0Sf/4cy8D3XBOT/R1Em/0GU/HWZHgpnHmMeafZh9AQAAAAAAAEh+pgyP11ujnVvW25HozHZme/M4g2AfaEPZ3btq3CUjneU/3T1f1bt2O8uBzjz1OP1k6NG2V89sax5jmH2YfQEAAAAAAABIAd4aJ6g3NfVj4dTe921vHmcQ7ANt7Gfnn65TTz5GJSvX6tf/7+6wM/dDmW3MtuYx5rFmHwAAAAAAAABSg9db6/tXrXOj3Fg425ntzeN8CPaBJPD7m8fVhfvmRriFDy0IG/CbMbPObOMP9c1jAQAAAAAAAKQSr21NUf8Yz7ayZU19NIAEeezplzT30YXauXOX08/du6dy9+nhLJdv2Kzyb92v5pia+qb8TriZ+lUZA1S6fLazfMC+PZ2fAAAAAAAAANrWl9+42V7eMVcru/NWeXfvVGXpP52xWGTn/USejp2V2b0fM/aBZGKC+uce+aOuGTdGRxw+QFsqtzoz800zy2bMrDPbtHX5nY+eeEBnXvaOPrL9eKrb98fv+H4+oDkf2xVJrUpL7vQd951r5N6bPLL6965cc3yv78wnyu0aAAAAAAAAtAvOdPtmzNi3D2nVGfsnDrvGLjX05uL7NOG/ZmrKjT9X3v772FEAlVu3OT+zu3dzfjYm3jP2N7+xRBfPLdV5t1yl8YfYQR8TTv96cb7+8vBxOtSOBTOh9Qt6Jv8kPX7jQLnfOwhk19ueY9jZ+sdFufX7vkX69R9KGjx385nwfb7uKrHdMCI/V+THuo+x6xXp9darf+8O1BvmPbCvGwAAAAAAAOkraMZ+5lZ5a3aosnSpMxaL7LwCeTKylJmdZDP2P1y1TrdMm63SrzbYETTfOt077BqdOPUtxXZf5Qgq3tJks5+g9qw+NOtWPuv0713p++zmBowjrkygH2uon1Q2bVGp+bn/XlFDbifMf/gqtzUx3DYXHcyM/sgtwjcKzMUG/3OGtMgXELrqrBsDtz1b5znj+RrayEWH+hn6AAAAAAAAQMslXSmez9Z/44T7X3xJaYqY2HD9xLnr7EDTuIG8G85Hdf4k51sVbjtXh9vhaPz7jtpCjzvshYSQ1szXiuYp+9rE83nqk+P2Y/XRS6/r32Zh8efRA+3FL9gQfomWbHJL0/x6sV3XiB5DzwoI2gPbWN2QbzdKkM1vrHC+bfCjcT+I8I2FxpTo16HfWAAAAAAAAABikJQ19k24/7s/zrU9RJXbWyfYxaar1Oefm5+H68AEVAE5fJz/QkCYNvM0Z5sT8iKkxUEXEkLauIPsRki8Kq3/yi42gZlJb8L5H407WzfkmwA7Sp38uhn7Z+msnrka71v+yzC7rqXy91JvuxhP/vJEZub/jUO3unXyL4tU4qdcb4S9UGFK8fhn/QMAAAAAACAZPP2PVU5LdkkV7AeGtw/99RY7iqjKy7TM9yNiQB5NxYd67V2z8KHuWNDILPinZ9bNmJ/84jotnOpbnvSyXYm0talU/3LC6lLd9VIs36JxZ9w7ofewszVtaK7OutENr5/5wwMx3Vi2KdwSN+Fa9Dr6zbZpjab69u8P9d1a+u7FiLDfEnBu/uvW0H983Gb9mpvkAgAAAAAAJC0n1F9iW5KH+0kT7AeVWrENjdv0VZldaiJT8ubSR7VMp6nQzJ43wX20evwBM+hnnHGQRk7zLdtZ9+FVuuF/mM/VafaiQN/9s52fSEZVWvKwKadjbmKb75TMmfpGlV3XkBuyu6VlfjRubEC9/IBZ+CWv6+LLQmbv15Xise3ONVpvVzXm0IsCy+8ENjsTPlJ9f3scQc9rW6TX6Ly+G837kacb7vQ9Rww3yD3T3vjXvBc9hp6kG76K/h4CAAAAAACgbfhD/fPPGuy0ZA/3PdvKlnntcsKZQLcpTIiMaMwNcmfqcWf5cN38yDUaWTdx36479hK9MG2IetpRw9S+n/C0Wap/zKYX79PZd7m3vr145n269jBnsf4CgAn2Q0vgmPr+k152ti942+zzNBU2of7+hKdDj9kn2vMhJlUZA1S6fLazfMC+gZ9805hg2i2nM1bThnaN0DflZI6rqzG/eVOVevTsanvNV7fvW6Rf23A88k1tfczMeN92/mNzZtbf+Lrk7ycR//voluKpf+8AAAAAAADQNoJC/TMHRxxrqS+/cadV5x1ztbIzt8pbs0OVpUudsVhk5xXIk5GlzOx+bTdj3z/7O7Qhdh/OdUP9i2+4RCeYcjp3R5lx72PCe3NxxQ31TQhfH6r3POOauhn4j08ys+rv08IKp+sKKMXjNt/6WGuv+2+IW3fTW39t/946MFIFoQbPF9CifbMAcVEXPjvldNxg/NCL3FIz/547X2dGKCnTrFDflrcJnDXvBt8lTqjfHJtXfubcuDcvN/6hvqmvH3isDVqDckNueSL/eve1Ge69B5xxSvQAAAAAAAC0iUgBvllO5pn7zNhPUXUz7O2MfIX0e0aYsf/h3Pv0+eiQWfIhYtmmSRrMwo/8bQK0XItn7G9aoyUvbdFdOjCgnE69jz4u16GH5Iadsd8sdnb9v81NdEOfz87Eb/KM/QTy3zi34TFVacmd833vm7/2fixM6O/W4A/3XgMAAAAAACCx/KF9pFn5ja1vinjO2G+zYD9SaB/LNu1dfdmc4NI3wSV2ztLnl8YzPA8s+xNJhFI8ocF+RaU25WQT6CdIvErxNCYo2LfBeswCg+zmBPtNfb7843W13tbsmB9i6uifpbPCvH0E+wAAAAAAAGiOtAj2Y0GwH4Y/JI8QopvQ/7H9L9HPciv0WCKC/bD7MzfKvVl3vBtjsI+EapNg3441iz/Yt91wGp2x34r8wX5E+QT7AAAAAAAAaIgZ+4hBSBBvb3TbJEFBfOzB/n513yiI3cW/Ok2P/7Ulxwe/lAv22zWCfQAAAAAAgPaCGfuIQbzr2Ldgxj5aVWsF+wAAAAAAAABiF89gv4MdA2Lz7qM6e9g1zkWa+mZCfbseAAAAAAAAAJBQzNgH0gwz9gEAAAAAAIDkw4x9AAAAAAAAAADaqVadsQ8g8ZixDwAAAAAAACQfZuwDAAAAAAAAANBOEewDAAAAAAAAAJBCCPYBAAAAAAAAAEgh1NgH0kxgjX0AAAAAAAAAyYUa+wAAAAAAAAAAtDPM2AfSjJmxn5OTY3vReb31f/wDlwEAAAAAAAA0zuPx2KXg5WgqKipaPGOfYB9IM7EE+/4Q3/z0N38fAAAAAAAAQOP8Qb756W/+fjQE+wAaaCzYDwzza2tr65p/DAAAAAAAAEDj/GF+hw4d6pp/LFq4T7APoIFowX5goF9TUxPUCPcBAAAAAACA2ASG+hkZGUEtMOAPJx7BPjfPBdqJwFB/9+7d2rVrl3bu3KkdO3Y4y/5gHwAAAAAAAEB0/pzN5GomXzM5m1k2uVtrTKBlxj6QZiLN2A8X6pt+586d1bVrV+dqYrSvCAEAAAAAAACoZ/I2UwmjqqrKydrMTH2TtXXq1EkdO3asm7kfihn7AGLiv0Jognzzy8Y/Q98E+tnZ2c4vGkJ9AAAAAAAAIHYmTzO5msnXTM5m8jaTu7VG2WuCfaCdCAz2zaz9zMxMdevWza4FAAAAAAAA0FwmZzN5m8ndAoP9RCHYB9qJwGDfMFcRAQAAAAAAAMRHly5dnJ8E+wDiwv9LxB/um68JmZr6AAAAAAAAAOLDX+46MNRPVLhPsA+kucBfIv5mmJt3AAAAAAAAAIgPf94WmsP5f8YTyR7QziTiFwkAAAAAAAAAV2vkbwT7AAAAAAAAAACkEIJ9AAAAAAAAAABSCME+AAAAAAAAAAAphGAfAAAAAAAAAIAUQrAPAAAAAAAAAEAKIdgHAAAAAAAAACCFEOwDAAAAAAAAAJBCCPbbuQ/nXqMTh92nhRV2wG/ls75xs862qW9pk11lNHhcxVuaHLh9XfNvU6mFU03/WX3oPAAAAAAAAAAA0BytEuzPm78oJOx126UTpumzL76xWyGhbFA/+cVKOxCF2XbSyzrhhjv05uL7fO0O3axHdXa0UD5niGY429r2yCU6wYwfe6SG5DhbAAAAAAAAAADioHWC/UcX2aVgn63/Rrf+4UHC/aRSqYWPv+z7ebhOPjrbHVK2hgw93PfzZU2wF2UmPO2uieTDBY9qmVk4sLd6OiMAAAAAAAAAgHho81I8Jty/9OppQTP5A5uZ7Y+W2/RVmV1qmYtnujPyC8+3A+GsfNYG/4fr5tEHOUP1/BcHwpT/aSfmP/WiXQIAAAAAAACApkv6GvuRZvujab4udYvo9N3fPws/0Ie641L3Qsq9K7M18uLTnLHX3vOX7anUW2+Yx5+mgsPckYhMrf1JZsa/8aE+L7eLdU5ToVOu5xqNbIclekyof/+85wn3AQAAAAAAADQbN89tF9ZpqS2d8/jb69yFIIfr5kfcmfjXmuD+sHP15szTtOyum+03J27WHbpELyw+17dlZJtevE8nXuqW4DEz+82s/scn+R4fcuPd9qxrlyznJ+E+AAAAAAAAgOYi2G8HNr24RI/bZT09M7Yb6Jpw338jXNOmDQmqlX/4uIBZ92aW/rBrdPZd7qx+MyPfXCAw27xww+HSu+bGu4/qNeeR7duYkSfpv351sbNMuA8AAAAAAACgOQj2013FW/qjCdyPNTPu79DNx8qZiX/vSrs+ig/nRq6FH7QuZ4hmPHKJbnbq7wfP6u95xjX24sAlOtmOtXeh4f6kW//qLAMAAAAAAABALAj205mZSe+UxjlcN19vZtxna+S0STKRsimRE9PM/VjlDNFIf/39lc/aEj6B7WbdceCkBsF/e2XC/VNPPtZZfvv/VhLuAwAAAAAAAIgZwX66MuF6Xb37wBvVHqRrF7vh/rK7HtXfPndHI6u/sW5gm2Br9odyZvJPelkn3HCHnalv2yOX6ISnZ/oe+6xvj3hu4et65bV3neXjf3iYZt7+K2c5XdTs3GyXACCxvN4a379qbQ8AAAAAgPbBs61smdcuJ4wJglvCBMNojkptqshWz7pQvyETxE942tw8NzD8dzV93TrdO2ymHjdlf0Jq8hvuY9wb6zo36W2nTKj/P39173rwyyvO0dgLznCW46UqY4Bycuo/MK/X67SamhpVV1dr+/btznjgNvGya1uZqjYsV/XWL+wIACRex6ye6thlb2V2z1PnPfv7/t8N8xYAAAAAAG2josKta96lSxdlZmYqIyNDHo/HaX5mm+zMrfLW7FBl6VI72rjsvAJ5MrKUmd2PGfvpLXqoH38HqeB83493H9UfQ8v8VLylvzmz/E9TAaG+s5yIUL+t7dj8EaE+gFa3e8cm3++fNar84mVVrn9R1ZWNfh0NAAAAAICU1ioz9ufNX6R5jy6yvaa54pIRumLsCNtDvDU+K992wgr/OKcM0KSXbSfA+ZP05riDbKd9mv/Ui84NcxMZ6rfljP2NH/1NtbuqbK91rXz6aU37l+34/fgkPX7+Ps6iWf9E7jDdPrSb06+3TS/+ZbHmrbddP/9jN63VrdMqddFdRynwmpTZ3zs/OF9XDDQ9s49/Sz//ic74doUuXpytWb/uL/eZAbS2jM57qmvuscra6xA7AgAAAABA62itGfutEuwDqGfC/UTO1G/LYP/bkvvtUgAnGF+hj223gYDw3bVB8254XS/aXqgzJvjD9GANgvs1K3Rx4Vp32Trk3HDBfig36P9ymH0egn0gJWVk7qk99hvi+z87B9oRAAAAAAASj1I8QJpKt/I7jerZX7ffdb4eD9NmndtLh+SGC9p76Yqp4R8TLtSPyFw0sI+b+mM71pg1H2ve+v46LurzbNA7/5I+37DN9gEkm5rq77R900dybq4LAAAAAECaIdgHAD8zO79wrc6YcJT2fuOfuviGp3VxmG8bbHhjpV788VE6cflizVtjB7VR86b5tg/5lgCAtmNq7e/cwp9JAAAAAED6IdgHkFimJI4JyMO0ic9u1IH7NFYapwX+9XrdczWovx9igwnyp63QgbbUzz5Df+LO9p96lAKrdJvtJi7vo1nn99cZPz9Knxc+bcN9+y2DCf2d7QAkh13ff2mXAAAAAABIHwT7ABJr4FF15XCC2zBd0dduEycfP7u4/sKBmTkfQykeJ9A3FxlMWO/bLlqpn7pQ318/35QZmjpMB2z4WESHQHLavf1buwQAAAAAQPrg5rlAmkm6m+fWCbkprXOT3JU6YOpPdEZP0/eLfvPc2G6A21CDm+vGFTfPBZLZ3vm/tEsAAAAAACRWa908l2AfSDMpE+ybevbTKnXRXUfpMHeDOAl/YeAMW2InEmc2/rMbbS9Uf02N+3ECaC0E+wAAAACA1kKwD6BZUmfGfgI4FwtWSKGz+u24v35+OE6wX36YHj8/ZJ59uAsQdn+hN9Wt0/coZuwDSaJjVk/1OOQi2wMAAAAAILEI9gE0S/IE+26QP2+97TbijAnDdMDiWLc3N6oNLeHjY27UG6EMTsTg3mpSsB9NlGMA0PqyegxU97xTbA8AAAAAgMQi2AfQLMk7Y78VtNaM/WgI9oGk0j3vVGX1OMT2AAAAAABILIJ9AM3SroN9RxvX2CfYB5JGZvaByu57hu//PGXYEQAAAAAAEotgH0CzEOwDgJSRuaf22G+IE+4DAAAAANBaWivY72DHAKDFOnTqapcAoO1kdN5TXXsfS6gPAAAAAEhbBPsA4iazex+7BABto3N2P+2x7xBl7UVdfQAAAABA+iLYBxA3WT0OJdwH0Oo6ZvX0/f4ZqOw+pzk19ZmpDwAAAABId9TYB9JMW9bYN6p3VKqy4lPt+H6j73lr7CgAtB5zs9ysPXopO2eAMrOy7SgAAAAAAInHzXMBNEtbBvsm1K/44t/qkpWpTp06qUOH+l9YANBaamu92rVrl7bvqFZOnx8R7gMAAAAAWg03zwWQcsxM/a5dOqtz50xCfQBtxvz+Mb+HzO8j83sJAAAAAIB0Q7APIG5M+Z1OnTraHgC0LfP7yPxeAgAAAAAg3RDsA4gbU1M/8GtFANCWzO8j7vUBAAAAAEhHBPsAAAAAAAAAAKQQgn0AAAAAAAAAAFIIwT4AAAAAAAAAACnEs61smdcuA0gDVRkDlJOTY3um7r3XaTU1Naqurtb27dud8cBt4qX0oyXq1XMv22uJ9Xro1leln16uyw+1Q2Ft0UuzntOXp5vtzGPe0wETx+j0MC+tfOlzuuPVLbbnc9gpuuuivu7yR6/qhpd66eaJRyjXHYlB4PNFem73dZTYnl9+lNdV8sRDemil7dTZS8MjvK465jX8fb3tSLmnjNHNBf7Pwn2flucHjjXC2Z90+e2nKN8OReO8vyUHxfQemtdYnGuO5buonxkQDxs3bVHeoWfZHgAAAAAAiVVRUeH87NKlizIzM5WRkeHcAy7wvpRmm+zMrfLW7FBl6VI72rjsvAJ5MrKUmd2PGfsA2kDFB7rj1od0Q2h7oj6YDs8E5c/pJff3Y2xMQO3bd1Cob6x0xx/6yPYjcY61ic9pOI97VeWnjNFdt18e0E6R/h7utZrw3Xc85Ufr5qDtfe2ne6rYrIt0rOa5/v6dhk/0P2aMjil5TncsDXnNdcz7GPLex/BemPA+6DGNfl5GMz4zHxP+Bz1Xcz4DAAAAAACANEWwD6D15RwREl6P0fAcKT/fzqCPak/lNmV296GnBDxPwxb9GwHNV/7hOpXnHK3LG8yQ76vLf+p7nSvXhszk/05fVvjeg9PDzHg/9Gjn/SkvDx/Ul7zynsoPOzpg1vteOv30viovWa9yOxLMdwxB74P7/jvshZDA2f9+uQUhFyn833iIK/eiw0MK+dwmHqTlsx6KcrECAAAAAACg/WjVYP/EYddEbMaE/5qp0q82OMsA2pGP3lNxRV8d01jI/pEJw9drecjM8hIzAz5MyZtADWaAz/ogOPSueM/9FkHoeDPl5u7p7LO4wSz49XrIhOY5vUIC/L66fOLRKndeS2h7TsW5p8ReRqdRoTP2ffv3z4b3XwgxFx/8/GF/hBY1bK/Y4ns/Y78YU770PZXkHK2bQy8amItBvmMqf9W33g4BAAAAAAC0V0k1Y//DVet0y7TZhPuJsvJZ5yLK5Bcr9eFcc0HlPi0MKG2x6cX7nPX3NqjvHYHdX9g2d51vg3W61yxPfUub3EfEpuItTa7bB9KfG3Tn//QU5daVegkX0tvtTjHhd/B6U7PelLiJVAvelJAJLnEzRsP1nu4ILCVjwmRnZnhT6uxHcegpuvmUvexFh8Bmjt2E+GGep8E3GQJalNnx+acerdyV7wWUqnHfq9z8vlFfi/u+1Tfn2wvhZuw38q2HqBccvt1Yd6HEX8qn4T0EAAAAAAAA0BRJV4rns/XfOOH+F1/GY85se2TD9JAWc1jfFIedqzcX3xfcHrlEJ9jVYflD+wYt+CID2gknRHbr0JtQub7US2hIb+rPv6qSw07R5QVH6PJTzE1Xk6Hm+han9n2kbwvkFhztex3mxrf1Ifjlh/lWHNY/4PW5tfWDw//orUEtfGc2u1uH393GfU+bNcPfXJCY6PscAmfs+4XM3G8wU9//rYeA96O8/Dvfv79Tue+z8n++znsQgfOemf2E1u937iOwXrmnmPcUAAAAAACgfUvKGvsm3P/dH+faHprl2Ev0ggnaZ55mB1pJeZmW+X6ckBeh7kbOEM0IuRhQeL5dh3aj7ias9oav0QNoUzbGLUXjn7VuAuKbT5GKH3tPXzoj0ZntL8/1h86m+fangHIvZkZ6s2bq+0P7yN8WaNxeOj0g+I+lhb0vQMis+lhC/YbfJnBb8bdhHtvgBr2nKPfVkBv0+r/1UPd+bFFJyRblH7an77OKtcSRW///coWU/5m1Tsc0eq4AAAAAAAC0D0kV7AeGvQ/99RY7imQXWMJn01dlzljf/bOdn0BD61VScpC9eeuYgBu+RmJv9BpSisaZ/T3xFF0+0R90m+0i7y//In8gbVu8Su6ECprVbmau+2f1u80pQ7MyYJu6mv6Nz9xvMFO/2ex7GqGFu3Dg3gz4IOXXvb99NfyUveyM/AjMvRN0tIZf5Gt6Tw814ca3DT6vmM4VAAAAAACA9sGzrWyZ1y4nnAl/m8IE/GgqU4pnph43M/anDVFPUwd/0st2neuEG+7QL0pv1oSnD9fNj1yjkTYsMwH92Xd96HYiMI+dcUZwaO9/3MUz79PPcivVM8e/3h6L7TnfIrhe+uOljzqz+oMFHIsp12O2OX+S3hx3kLsaMavKGKCcnPoE1Ov1Oq2mpkbV1dXavn27Mx64TbyUfrREvXrGPqPa3NA2Wr11UwM+MGQ2M/3veDVaOGxm0EcIgM2M81nvRZ41bmabhwv7IzzO3BNAf39PBzjPZ75V4F+2GxiRnvOw+m8fxMaE/s/py9MjzNa3nPen/Ogw+3Yfvzy/meV5DOe1mFnz/tdoXnN9yR/nuUsOqn8P7WvP9X+GAf1jSh5Sca55nCmpFOZ9MxdH/i5dHvhNCDP2Uq/wnxEQxcZNW5R36Fm2BwAAAABAYlVUuLWju3TposzMTGVkZMjj8TjNz2yTnblV3podqixdakcbl51XIE9GljKz+xHsp5/wwb4J3a+Vuxwp2G+uwGD/2qDa2SHHYoZiCe0J9lsk1YJ9N+ANfYwbGisk2I+qQfDcBM0KjQPD/DDBvhNOm5sCh74GN2R3SgEFPZ8dj3LfgIb7CtbYhY/c0Lr79hgjMzP7Q8L1gO0D9xcc7AeH/nU+8n1GJdIxek/LCfbRSgj2AQAAAACtKe2D/UihfSzbIJpWCvbDfBOggfNP08VPv0yw38oI9iME+3bGeJNn7EcUPdhvMIM9UNhjjW1WfjRxnbEfLlyPIurrDVH/uQcE+2rk8wllvvVw6hb3MU3+7NCeEOwDAAAAAFpTawX7bVZj3wT44RpaW6UWTg3/WURu92lh7rnOhZeobdyR9jmAZBGltnycg+Hc3D19v6XfU3GDuvhb9NJjJowOrFcP5Rxhb7wbYzMXL/yPIdQHAAAAAADtDDP2005IXXsr1hn74crqfDj3mmbO7m9GKZ6KdfqwvEx/m8SM/eZK5xr7UbV0xn60+vyNClOKx+F+86DE9uqErbHfeCmexmrzN7kUTzRNnLHfPJHeNyB+mLEPAAAAAGhNaV+KJxYE+3Fmy+fENdj3B/WB4X2dKMG+sz4c3/PMPFKvEew3WyoF+wCQaAT7AAAAAIDWlPaleOrKtYQ0pJODdK35XAMD/5whmhHymQe3azSSmhoAAAAAAAAAEBE19gEAAAAAAAAASCFtFuwjzbz7qM4Oc6HGbc/qQ7sZAAAAAAAAAKBlqLEPpBlq7ANAPWrsAwAAAABaU9rX2AeQfjyeDOciAgAkA/P7yPxeAgAAAAAg3bTqjH0AideWM/YrvnxPHb3blJnZyY4AQNuprt6l3Z5uyjngaDsCAAAAAEBiMWMfQMrJzhmgqu07tbO6WrW1XDME0DZqa2u1c2e1qqp2Or+XAAAAAABIN8zYB9JMW87YN6p3VKqy4lPt+H6j73lr7CgAtB5Tfidrj15OqJ+ZlW1HAQAAAABIvNaasU+wD6SZtg72AQAAAAAAgPaKUjwAAAAAAAAAAKABgn0AAAAAAAAAAFIIwT4AAAAAAAAAACmEYB8AAAAAAAAAgBTCzXOBNMPNcwEAAAAAAFLPzp07tXnzZie7MVkOEs/c0Nbc5LZHjx7q3LmzHW2Z1rp5LsE+kGYI9gEAAAAAAFKLyWxM2GvC4E6dOqlDh/QptLJx40b16tXL9pJLbW2tdu3a5eRlJiszQXxLtVawTykeAAAAAAAAAGhDlZWV6tq1qzNrPJ1C/WRn3mvznpv33nwGqYSzBAAAAAAAAADa0I4dO5yZ+mgb5r03n0EqIdgHAAAAAAAAgDZkSsIY/pLKtNZthv8zSBUE+wAAAAAAAAAApBCCfQAAAAAAAAAAUgjBPgAAAAAAAAAAKYRgHwAAAAAAAABSyfuzdfbZZwe12e/bdU1SrkWTz9ZvFpbbvuGOtXzf8RTuOMMrud+/nfuYtj/2xCDYBwAAAAAAAIA2FO6GrlHbEeO1YMGCoDb+iIbblRX9Jiigr2v3f1C3jT2Aur7Xu4+G/znSvsvcgL2oLGD7eLQPVBjuOCcvUpndpuFxmuYeT+GKgLGA7dzFgHWNtFRCsA8AAAAAAAAAaSh35J+CAnrTpg2TBh2Qa7cIVr7wJo0ePTpCu0nFG+yGcZevq8Md50nHKPyRBhqkvP3sYjtCsA8AAAAAAAAAKaFcxb8JF7rb9pti3xbRlGjZ4kE6+Ufh4/JwFwLq2580fB+7YaJtKNb8KMdZZ8NyvbZmtV77d/CrXv3AeN/7MV6z19iBNESwDwAAAAAAAAApIbdBmZwFC+bo6oHSoKvmaMGfh0ef4f7+MhUPPFnHRA3ow1w8KCyx61qD7/lnzpauulHDv55tjyFcSO/f7mod9MCdQd8mcN4L+76kK4J9AAAAAAAAAEg1G4p1U0DovfrLxm4sW6LZvyvW8J9FD/9LCn3709WaU3fhYJqGL56qm2K4cW2LOa/J9/wHTdOfRvqO8sirgy5eBPIf540jh+vq3x+k2VeNTtsb5YZDsA8AAAAAAAAAKSFgNv1Vr+nkB/zh+wJN01Q7u322ws2vLymcquKBV+ucI+1AC7ilbkbHL+x/387Mv2q2Dvq97/VMyLcrwnHfg6nrrtYc/zcUzAWA3w9X8e9ma5mzTfrzbCtbllq3+wUQVVXGAOXk5Nhe/Z2/a2pqVF1dre3btzvjgdsAAAAAAACg7Xz++efq1auX7UVWUniO5ufN1p9GRJ5zX/7+HC3XeA0PCPDN425dMly3Pz9ewZF5uYpvulqvnRS4T3dsTmDpm7Nu1/NO2B5u++g2btzYyGvz7bNwgQ4413dsEUsENf15m8oc54EHHmh7zVdRUeH87NKlizIzM5WRkSGPx+M0P7NNduZWeWt2qLJ0qR1tXHZegTwZWcrM7kewD6Qbgn0AAAAAAIDUEmuw38D7c3TObQoT2PuVaM45t6pY4UJ9I0pgbsrijP9SY4Mel4hgv175opt09QOR73g78KqQ53Vef7HthDf8tuc1PoZvKaRasE8pHgAAAAAAAABIO26ov/aq2Xo+YvCfhMy3A55/PqTN1vhwN8I9cnyYbf3tdg23m6Ujgn0AAAAAAAAASHKmnM4554Q0Z7Z6sW4NHT/nJhVvyNf4559vQukaMxs/YB/j52hN6L4Ll9tt0dYoxQOkGUrxAAAAAAAApJZml+JpsaaW1mmFUjylY209/0BNf17/NxZEKR4AAAAAAAAAABJoya313xCoayE38wUz9oF0w4x9AAAAAACA1PLZZ5+10Yz9xGvKjP22ZI6zX79+ttd8zNgHAAAAAAAAAAANEOwDAAAAAAAAAJBCCPYBAAAAAAAAAEghBPsAAAAAAAAAAKQQgn0AAAAAAAAAaGO1tbXyer20NmjmvU81BPsAAAAAAAAA0Ia6dOmiXbt22R5am3nvzWeQSgj2AQAAAAAAAKAN9ejRQ1VVVdq5c2dKzh5PVea9Nu+5ee/NZ5BKPNvKlnntMoA0UJUxQDk5Obanuq8U1dTUqLq6Wtu3b3fGA7cBAAAAAABA2zK5TWVlpXbs2OFkOUg8j8ejrKwsZWdnKzMz0462TEVFhfPTfAPA7DMjI8N5HtP8zDbZmVvlrdmhytKldrRx2XkF8mRkKTO7H8E+kG4I9gEAAAAAAIC20VrBPqV4AAAAAAAAAABIIQT7AAAAAAAAAACkEIJ9oJ0J/NoPAAAAAAAAgPhqjfyNYB9Ic/5fJP5aXv4+d1gHAAAAAAAA4seft4XmcP6f8USwD7QDgb9EOnToUHczXQAAAAAAAADxsXv3bid3M/lbIkN9g2AfaCf8ob65E7dRVVXl/AQAAAAAAADQctu3b3d+mvwtMNxPBIJ9oJ0IDPY7duyo6upqbdu2za4FAAAAAAAA0FwmZzN5m8ndCPYBxIX5JRIY7Hfq1MlZNrP2N2/erB07dlBzHwAAAAAAAGgCU+ra5GomXzM5m8nbTO4WGOwnKtz3bCtb5rXLANJAVcYA5eTk2F49U9/LNBPgm3pfpu3atcv5aSTyCiIAAAAAAACQjkzeZpiZ+ibUNz9NixbsV1RUKDtzq7w1O1RZutSONi47r0CejCxlZvdjxj7QXvh/kZhfKv5fNJ07d1ZWVlbdDH7CfQAAAAAAAKBx/pzN5GomXzM5mz/YT/RsfYMZ+0CaiTRj388/c98/e9/f/GMAAAAAAAAAGucP702Q72/+sWihfjxm7BPsA2mmsWDf8Af4/jA/sA8AAAAAAACgcf7wPjTMjxbqGwT7ABqIJdj3CwzyCfUBAAAAAACApgkM8RsL9P0I9gE0YIJ9AAAAAAAAAMmLYB9AEBPse79+yvYAAAAAAAAAJBPPfhe0ONjvYMcAAAAAAAAAAEAKINgHAAAAAAAAACCFEOwDAAAAAAAAAJBCCPYBAAAAAAAAAEghBPsAAAAAAAAAAKQQgn0AAAAAAAAAAFIIwT4AAAAAAAAAACmEYB8AAAAAAAAAgBRCsA+gWT564gGdedk7+sj246lu3x+/4/v5gOZ8bFcktSotudN33Heu0WY7AgAAAAAAACQCwT6AqDa/saSZ4Xq55vgeFznotusD2xPldl2i2PA99HkDWuTXGeZ4TWskyHcvUizRkk12oE5j7w8AAAAAAAAQHsE+gMTYtEWl5uf+e6mHMxDBsLP1j4evcttFuXYwNv6LDpFbhG8U5J+kx/3PGdLGH2K3aSBX4wO3vSXfGf3RD/Oivz4AAAAAAAAgzgj2AURV9rWJ5/PUJ8ftx+qjl17Xv83C4s+jl+tZ/IIN4c2sdncW+68X23WN6DH0rKBQvr6N1Q1u7p4gvuP8Q4lzgeDGobLfApivu3xD4ZXqrhsDLziY9oKesWsBAAAAAACApiDYBxBFldZ/ZRebwMykN+H8j8adrRvyS/Try6KUuKmbsX+Wzurpzor/yzC7rqXy91Jvuxg3m9Zoqj+UL9miMnXVWTc2djEhTzfcGXjhwbSzdZ5dCwAAAAAAgOTw9D9WOS3ZEewDiGxTqf7lzEIv1V0vxVL/3p1xf/HcUiewnzY0V2fd6AbYz/zhgbjXk3fr14dr0WbPN5/zfDeabyKYoN68rkYuWgAAAAAAACBlOKH+EtuSPNwn2AcQQZWWPGxC7Hz9xdSTX/yCpr5RZdc15Ibs7kz2H40bG1AvP2AWfsnrujg0CK8rxWPbnWu03q5qzKEXhc6C9zc7Gz5SfX97HEHPa1v41xhQIsipz+//doE7S99ctCDcBwAAAAAASF3+UP/8swY7LdnDfc+2smVeuwwgDVRlDJD366dsr/lMUO+W0xmraUO7Rujn6y8PH6dD7WM2b6pSj55dba/56vZ9i/TrP5TovFui3dTW5+N3dKZvO/+xOeVybnxd8vfbkP99i8hcKLhxIDfgBQAAAAAAaCNBof6ZgyOOxYtnvwuUnblV3podqixdakcbl51XIE9GljKz+xHsA+kmHsF+XRht6t/Xzbyv0pI7bYkb3/hf9EKDYL9ZbAjv3Gg3gqYG+6bGvykH1OjjmivCMdddWIgk9AIEAAAAAAAA2lS0AD9R4X48gn1K8QAItsmUwskPCfUN9yaxf7kldDxO6m6iG9BMCaBm6DH0LOfxiQj1zUUDU2fffBsg9Fj/PXe+znwilnsRAAAAAAAAIFlECu7NmFmXjJixD6SZeJXiaUxQKR47Ez1mgRcN/LPfG1xI8LH7bTDzvqnPl3+8rtbbmh3zQ8zNcU0dfdsNEK4Ekcv/jQZ3XW/7rYGYhXv9AAAAAAAASDuU4gHQQJsE+3asWeJRiqcV+cv8NCin47/YQEAPAAAAAACAKAj2ATSQcsF+KmpujX0AAAAAAAC0ewT7ABporWAfAAAAAAAAQNNx81wAAAAAAAAAANoZgn0AAAAAAAAAAFIIwT4AAAAAAAAAACmEYB8AAAAAAAAAgBRCsA8AAAAAAAAAQAoh2AcAAAAAAAAAIIUQ7AMAAAAAAAAAkEII9gEAAAAAAAAASCEE+wAAAAAAAAAApBDPtrJlXrsMIA1UZQxQTk6O7QEAAAAAAABIJhUVFcrO3CpvzQ5Vli61o43LziuQJyNLmdn9mLEPAAAAAAAAAEAqIdgHAAAAAAAAACCFEOwDAAAAAAAAAJBCCPYBAAAAAAAAAEgh3DwXSDOx3DzX3KADAAAAAAAAQPzFks219Oa5BPtAmok12O9a86ntAQAAAAAAAIiHWLO5lgb7lOIBAAAAAAAAACCFEOwDAAAAAAAAAJBCCPYBAAAAAAAAAEghBPsAAAAAAAAAAKQQgn0AAAAAAAAAAFIIwT4AAAAAAAAAACmEYB8AAAAAAAAAgBTi2Va2zGuXAaSBqowBysnJsb3wKioq1LXmU9uLbPfuGm3fsUO7du2W18uvCtTzeDzq1KmjumRlqWPHDDsKAAAAAEgXu2o76vvqbqquyZRXHjuK1uDxveOZGdXaI3ObOnXY7YzxebSdcJ9HNLFmc9mZW+Wt2aHK0qV2tHHZeQXyZGQpM7sfwT6QbuIV7JtQ//tt25zgtlOnTurQgf9ooF5trVe7du1yLvzs0a0b4T4AAAAApJHd3k76viZXXbp2s5kART9aU21trft37qpt2iOj3Bnj82g7oZ9HR88uuya81gr2OQsAhGUC265duqhz50xCfTRgzglzbphzxJwrAAAAAID0sb0mW1277eH7e19nQuQ2YN5z896bz8B8FnwebSv080gWnAkAwjLld0ypFSAac46YcwUAAAAAkD521XZ2ZoajbZnPwHwWfB7Jwf95JAuCfQBhmZr6po46EI05R7j/AgAAAACkl1r71zzz9z1a2zXDfBZ8HsnRDP9nkQwI9gEAAAAAAAAASCEE+wAAAAAAAAAApBCCfQAAAAAAAAAAUohnW9myJKoMBKClqjIGKCcnx/bCq6ioUNeaT20vvI2btqhXz71sr6nW66Fb39MBE8fo9JzAZbvaYcZfVYnt+eX/9HJdfqjthCh54iE9tNJ26uyl4Q32HeKjV3XD39fbjpR7yhjdXOB/bVv00qzntDw/cKwRzv6ky28/Rfl2KKyKD3THrI0a7tsud+lzuqP8aN11UV+7Mk5a4zka0bJzBQAAAACQbCp27qdevXrZXmso16Kbf6XZq6ptP5xMDRr/V/15ZK7ttw8bN250fib68yhf/Bv96v7VivoJDL5af50+QrkZdiDJlNx/tn6r/9YLv4ya1rSI+TxyOn9te+HFms1lZ26Vt2aHKkuX2tHGZecVyJORpczsfgT7QLpp1WDfCZXX6ZiwoX2UYN953HtSUMBu2LD/sFNCwmk3fC/W0bp54hEK+k+4De0jXhBocIyhQX5oP4YLDg2CfXt8FU5H8h9/I6F7+AsVVk6Y1+pTHrqfWIJ9+36X266jwXvcfAT7AAAAAJBevt2xbysH+yWaPXqZTlhwdYQJdGb9VBWbcP+qe/WnqOF+uYp/M16z19iuNfz3C3T1ke5y+cKbNP6B1W6nziBd/cCfNHwf2/UJv53PwKs158/DG/ydPRFaK9gvKRytZcfXv0ehzPqpi91w/97/9r32KOF+xPctzHscT84xapoWTEhssL931je2F15rBfuU4gHQ6so/XKfynKN1eYMZ8n11+U/7SivXhgTr3+nLCin/9IZBtw49WsN9vyvLy7fYgWAlr7yn8sOODrjwsJdOP72vykvWBwfddXzHcPvluquujXH27zCB/q0PBc3+d/n2OTHgMTEG5vkXBTzGtptPMe+J7xjChPrNYS4E3OBc2Ah+nstlXkvDCxgAAAAAACSvaq1+4FrdtDD83+gDDbpqjhYsWOC2B67Wut+NDn6cCef96037/UGafdVojS4M+Zty6HamtVKon4yqV83Wtb8tVnmNHYgk3Pu2IHGhfntEsA+g1eXm7ilVvKfij+xAnfV6yITmOb1C/gNpgu6jVf73h9xgPag9p+LcU2Ivo9MoM2M/ZP/+mfiHnuIG4+big5+ZDR+0vW2zPohw4SASM+v/Id3x6p5RS/yYCxjO+xeT9Sp+dYvyf9qwVFH+ReaChW/90vAXRAAAAAAASE4m3H++aRPV9hmuG68apNWvL4/8d/Ujr3YuAAxaPFWz37djCMuE+8//x3YSZUOxbho9WqN9LZYLOe0RwT6A1nfoKc7M9JIGQb2ZQR5htnrOEbo5YMZ5UIsyQz7/1KOVu/I9veQP5+3Fg9z8vlGvrpvSO4HP4ZThCTdjP9JxxTzj3g306y8g+I7vidBvBPhtUXndf8vsBYjQEjsAAAAAAKSFEhX/pVgllWY5X1fXzfqepuHO+gTYZ7jGDpOKHyvm79oh8ifUz7yf5nuPms+UVRqt0b8JfI9N+SQT4s92LtiYkjqjr5qtg37vPt/YL8fXh/vvz3bC/roW+g2LdoRgH0CCbFGxE1iHL/eSW3C07z/L5sa39WH45Yf5VhzWP2C2uj/0jr09FPotABO8/3RPeyymvaryBrX9Y2QuSEwcEzxj3zL18uuOIyiYdwP4O14NnBkf+K0A9xsHgRcF3DI57vo7gmbUuyWJysu/8y3bkkETj45yAaGvhjsXUJ4LuLDhKnnCXEjwrY/bNx0AAAAAAIivTZXV2iPTdlri/dlOzffhP2u8hE7uAYPskrXG99jAILkdhMnb/vU/uuCC2/X6Zre/+Z+3+/r/o2Xb3H5MIr5v5iLNHF2t2brThvXlC+/U7IOmaYG5x4Lvs5q62NTir6/3by4qOPdVMKH+79Y569yLDL79rJvabmf0E+wDSBB/aB+5rEzjQmrXx9DC3kDXX0LHtlhC/YbfJnBb8bcNH2vq2D9UfrSduT9Gw8tfDbjA4Abwbu18PxvK+1vINw4Ca+8HHetHa1WS01f5QfuPLrdgjO6aeJCWh1wgeUjmPWnJZwMAAAAAQCINUv+9Nqs6y3abaPUD4+sDZRsGR7oxbFThasUn8OasyaDbjy/R5QP+o8JHlmvbtuWaP+8/OuiKS3RCN7tBLKK+b7kaPulq6YE7Vfx+se78cmzduvIv1/kee7KOaVCLv9z5JsWgq24MqNPv28/PhkcvsZTGCPYBtB5/KRunmZn8/ln9Nmxe6dtmZcA2dXXqG5+5H2vQ3biQ0D2khbtw4NS9ryvts5fy8/dSSUmkcjohs/sbbf7Z9r734KX1yj/9FF1+el+V/L0JN74NVy4oxhv8AgAAAADaH6/X2+qtwfPuXqfS9SV6d3XAmG0Ntg1tvvUDr5qt559/3rY7NGzvwPVmi4B+QCsrXS3121/7mH6U7dKvOW+qXd5HwyZcoB6v3KPf3nqPXtrrAl17+j52Xei2YVos79vew3TDVV7N/t1seQ+o33fQ+x/UylS6JuSCjXPRplhaU6oyZ5tGjitOLVkQ7ANooeBw3rSIIXvgzPlIJWQOC9zGX6c+2sx9cxNYZ6OozKz64BI5LeC8Dv9sd1MqZy+Vl6yvuwhRUrJF+flR6v4HzMiva055n3AXFdwb3zqlc3S0hpsLC77nv/yw9Xoophv02pvyBpX0ccfidzEEAAAAAID42vb2u8r89TT94IM5Kl7zpdb9p0TrNlfbtQmyoVjzl0jDj+f77epzms45crPWfbpZ+aNP0wEZdjyu+mv8beOlBxbEPHlx+G3+izWBbXy7rEhAsA+g+SLcODZsOZxAZub+rPeUG3KDWn8Zm/qZ+n7RZuz7bzobg8BvAzT2+KBvF4Rr/hnzeyn/ojG6PPc93eGMuzXzG30PmsAp9bOyb9BNhc1zDs9dp5IP7QAAAAAAAOmiZo2eXLhGm956WRv2PV4HVJao+MUFev7uBVpjN4m38kU36Zzxc6SrZmt8c0r2pJsvXtbz7x+g/CN7qGTBy/qyxo7Hy4Zi3Vl6vIYfOVxjzyrWrfa+BfnHD5eWvB0m6M/X8WdJxW/HXL8g7RHsA2h1zs1fc+zs8yB76fSfHa3cinUqCRO25ze4EFDfYgrSA78NUNcizPgPqcsf1MLcPDdoFn6cy9w4dfIb1MP3vVcXjdHph9tuiPpyP+6Fi/JXn7P9+rH6+wi45X78j2EmPwAAAACgrWz7tFj3/vZ55d5wuy6/cLROG5qv/B8O17X/NVU33naBBtrtWmzNHF19zjk6x7arXz9Zs59/Xn8aEba+QDtTruL7n9K2EeP125tv0PAtT+mel5pYxT7k/XXbTSreYFaWaM7413TyuW7SkX/ueA1cMt9dd+RojR9YrFvrtnUvuty0qNxud6vOCbh5cUnhOc669ohgH0Cry83dU6p4T8UNAuQteumx91Sec5DyYyivg8jClvuJ2NxyP/7HxPPbBgAAAAAAxG6Nnv/ra+p20bUBN0iNv9wRf2pYzuVPw8OXDG6Htv1rvh7+qFqbF92qh1fn64IrfqDP5s3Xsm12g0aEfX+d9iff51qiOefcquKzxtZ/xvuYWftrNGf8HJX4PoXhf/Jte1t/X99edCkd615w8W33p+dna/xnt9ZdLLhVt7fbizGebWXLkqfiP4AWq8oYoJyc6Kl4RUWFutZ8anvhbdy0Rb167mV7LbFeD936ng6Y6IbH9cx4mBvAmln1DWa8m1I8jZTcCfu4eqaczR2vBtaZD5Z7yhjdXBDj6zVlev4uXd5gFn1kzvOXHx35GJuxz1CNPkeCxO9cAQAAAAAkgw3be6tXr1621xpM2Pu2jo+pVnpTtk19GzdudH4m+vMwM9/fPv75mMoQNWXbdGM+j326lNleeLFmc9mZW+Wt2aHK0qV2tHHZeQXyZGQpM7sfwT6QbpIv2Ee641wBAAAAgPRSXpXbysF+uRbfcp3mfLTL9qPrdOh43fOHYe1ihn1rBfvlS27WdbPXKKZPoNNAjb/3Dg1L4LcqkpX5PHK7Ri/9Q7APoFkI9tHaOFcAAAAAIL20frCPSFor2EdskinYp8Y+AAAAAAAAAAAphGAfAAAAAAAAAIAUQrAPAAAAAAAAAEAKIdgHEJbH45HXyy04EJ05R8y5AgAAAABII95a1dbWOn/no7VdM5+B+Sz4PJKj1X0eSYJgH0BYnTp11K5du20PCM+cI+ZcAQAAAACkj8yMat/f93bZHtqK+QzMZ8HnkRz8n0eyINgHEFaXrCxVbd+undXVqq1l5j6CmavUO3dWq6pqu3OuAAAAAADSxx6Z21S17Xvf3/t2urOU0arcv3PvdD4D81nwebSt0M8jWXi2lS0jsQPSSFXGAOXk5NheeBUVFepa86ntRbZ7d42279jhzMo2XzkC/Ez5HTNT34T6HTtm2FEAAAAAQLrY7e2k7TXZ2lXbWV5RgrU1eXzveKcOO9Ulo1IdPe5MfT6PthPu84gm1mwuO3OrvDU7VFm61I42LjuvQJ6MLGVm9yPYB9JNPIN9AAAAAAAAALFrrWCfUjwAAAAAAAAAAKQQgn0AAAAAAAAAAFIIwT4AAAAAAAAAACmEYB8AAAAAAAAAgBRCsA8AAAAAAAAAQAoh2AcAAAAAAAAAIIUQ7AMAAAAAAAAAkEI828qWee0ygDRQlTFAOTk5thdeRUWFtn/7ru0BAAAAAAAAiIcuex8bUzaXnblV3podqixdakcbl51XIE9GljKz+xHsA+km1mDf+/VTtpe6/vHaf3TuhT+3PSB5bdy0Rb167mV7AAAAAAAgmbXk7/GxZnMtDfYpxQMAAAAAAAAAQAoh2AcAAAAAAAAAIIUQ7AMAAAAAAAAAkEII9gEAAAAAAAAASCEE+wAAAAAAAAAApBCCfQAAAAAAAAAAUgjBPgAAAAAAAAAAKYRgHwAAAAAAAACAFEKwDwAAAAAAAABACiHYBwAAAAAAAAAghRDsA2iCrSq6bYoGFjymom/dEdcXur9gqVbYHoB0s06FP5utRYF/7r99W5N/NkWjIrTC/9jtAAAAAABA3Hm2lS3z2mUAaaAqY4BycnJsL7yKigp5v37K9prCBPtFelEr9eJBV2vNz/vYcRPsr9PxSwt0lB1pDf947T8698Kf214TmVDy+iKttt0GThunoisOsh2f/xRp1B/ftp1Qx2v6Y6OUb3tAqI2btqhXz71sr4la7VzdrEW3zlThp25vxP+brgk/cJfdYP8l5d19tUbsbYcicvdTekHg4wEAAAAASB0t+Xt8rNlcduZWeWt2qLJ0qR1tXHZegTwZWcrM7kewD6Sb1gj2deFhevGalTrjqZ9plBPypWCwH0X5P2Zrpi7UjDN72BEfE5Y+tbcevP145dohIFYtCvajiOe5WjJvih7Zf5Ldlwny50p14X6YYL+RCw7BFwYAAAAAAEgdqRDsU4oHQNPtfYSuuGKlJi3+wg6E8pfs8TfK9ABJ7du39cjLx+vSugsEB2nML/po0f+ts/1IzDcApqsoTCPUBwAAAAAgcQj2ATTLUcMu1Bnz3gyptW+YUP8OTTKlepZOd9q/pn6ti5Mt3DezmsPUBTftyr99of77BcyABtpSa5yrZd9q9YC9g2b45+63n/T5BpXbfnhva0qY43LavMYuCgAAAAAAgOYi2AfQPHbW/oslW+2A9e06vbj0dD1eV39fyjl1lGYWvKS3V9mBZPCDUWFnGRc9NkkTBthtgGSQrOfq3sdrRtjjsi2w7j8AAAAAAIgrgn0AzWZm7Wva8hQvs2Nu9DlFhf+xXV+/9NM+yuttu4E+LdKV4WYm/2y2FjX45gIQbwk8V3vvrUGffhs0O7/866+lA/cJU6ff1NsPt+/wrf54AQAAAABAvHDzXCDNtMrNc3/lv2mutOJ/p2je/hdq8LTN7s1zv/1A112wWVcE3UjXLc/z5YXT9cvBdigO4nPzXBOWzlTpBbYmuHND0G916WOjlO9uALRYfG6em9hztck3zwUAAAAAIE1x81wAac+dtf+k/mL72vsgnVHwki7+3/ob61a8UqRJS0/X8XEM9RPGKS9CqI8UEOdzNf+KSSr410w70z4w1I/AXFgImZ0f2Cb/Y7PdEAAAAAAAxBsz9oE009oz9g0za//ieafr8bpZ+vYGunUXHAPWrVqqgde8pF/f1/LZ+82bse/Oei781HYbMeKaUVp7X5FW235UA0bpwduPD1O6BO1d8670J9O5GmbGfpRvDATP/gcAAAAAILWkwox9gn0gzSQ22E8u8SnFAyRefErxtCWCfQAAAABA+0EpHgAAkMbe1pQwZXimvGxXAwAAAACAhGDGPpBmmLEPJJ/Un7EPAAAAAED7wYx9AAAAAAAAAAAQVwT7AAAAAAAAAACkEIJ9AAAAAAAAAABSCME+AAAAAAAAAAAphGAfAAAAAAAAAIAUQrAPAAAAAAAAAEAKIdgHAAAAAAAAACCFEOwDAAAAAAAAAJBCCPYBAAAAAAAAAEghBPsAAAAAAAAAAKQQgn0AAAAAAAAAAFIIwT4AAAAAAAAAACmEYB8AAAAAAAAAgBTi2Va2zGuXAaSBqowBysnJsb3wKioqtP3bd20PAAAAAAAAQDx02fvYmLK57Myt8tbsUGXpUjvauOy8AnkyspSZ3Y9gH0g3sQb7jW2TCoqKijRq1CjbA5JXuvyZAwAAAACgPaqp3izv7h2St1ZeX/N4Oki+5umYpYzMHnYrVywZQDyCfUrxAAAAAAAAAAAQonb3du2q+ka11VudZdO8NTvrls24s9633NoI9gEAAAAAAAAACGDC+pqdm5xZ9bt3bFTVhg9UWfqavlv/kvPT9M24WW+2a+1wn2AfAAAAAAAAAIAANTs3y1tbrZ1bv9D3X7+tXVVlTt8wP03fjJv1pm+2b00E+wAAAAAAAAAAWE5IX7vL+bmjYpUdDc+sD9y+tRDsAwAAAAAAAABgmbI6Xm+Ndm5Zb0eiM9uZ7VuzHA/BPgAAAAAAAAAAft4aJ6jfvWOTHYjObGe2N49rLQT7AAAAAAAAAABYXm+tKaRfV1O/Mc52ZnvzuFbi2Va2zGuXAaSBqowBysnJsb3wKioqgrdZPkun/maBRv/5FU08xo6lgKKiIo0aNcr2jBWadeokLTh7pl65/ig7ZpUt0HVjZ6m+KtpgTZx/hdaP9W1vR0KZ92Pom6fqjRPdn5MUZr/mvXu4r+bfM1q9fd0Vd/u2e2G0Zr4yUWZLt+9s2ZDvOOf3maex94bWajPHdo9Gmx0Gsa/P9kKN/n8T9ckfZ+ng0M/R+Xw/Cft6B187X/eMcZ8o/LHWv5aw7LnjCtk2EetSVIM/c5yrrX+uAgAAAAAQo+qtn8tbs0OVX/zTjjQuu89P5MnIUuXOPWLK5rIzt7rPUbrUjjYuO6/AeY7M7H4E+0C6aWqwX/bcdRr7xWma+Oksrb8sxYN9Ewq+KY1+QRoaJigOunBhwtMn+uieuvCzTAuumy5NCQ4pTYBowtKJ+5uwdb2uCAkO69Y7+zVh5hvS2QukurF65r2eril14aQRbiw24Y/XDYUDj9Mc0zz1dcJX9/jq3xs3fJV9X4JfSywC9+2+lrFfXGED5USsS11hL6ZxrrbiuQoAAAAAQOyqt34m7+6dqixtQrCf9xN5OnZW5c7urRLsU4oHaOd6j7lHr1x/nO2lthVvfqKJF03U0LMX6I3ldtCEig+H+TZC79EBQWkMfNtfEbRfY4XeeGG0hvr3u/wNfXLthZp44mgteHOFHWxlvuOccu0nmnS3+/xlz83TgrOvCA5U6xylC68d3Pxj9b3ewH33HuNbfuEN37vik4h1aYRz1ac1z1UAAAAAAJrCmQrf1Pnwvu1bcQo9wT6ANLFCb3x6mo7rLR110UR94g8Ay97Ry6sCAs0WOCo0BHVC6KF1s6JNWHvaCb4DOOZCTfy07cJoNwyfpwXLF2j6vQdrZoJmu5d98YkG99nX9ox91XfwJ/qiLDHr0gfnql9rnasAAAAAAKQbgn0A6cHMQD7lOKd2uHofp9MCw8rBfRUYFTfbMUODZo+veHOBRp9YF5XWhbW+A9Bxp3wSMmM6slX3jtWpp55a365boJbl2Edp4p8P1qzfmBrmweVYgpSZMHVVwGuQFvwm4DhMs7Opw/nmi1U6uI/zgq3e6jNgldZ/lZh1aYNzNUDrnKsAAAAAAKQbgn0AacEEl/Wh41jNWhVQimTVen1jF1vmqIDSKQ1LmyxYNUtjbchobjIaa9kQc1PQV155pb7Zm5u2iAl2NVh997f9Ogs0yR+Ejm1481JTBiboWKLMoN63z2B9EjSVvkxffOo+ZyLWpQvO1RCtcK4CAAAAAJBuCPYBpAEzA3mi5geGfPNtiRMzI3pwaL3x5qsrcRKmtMnE+QHP/8r8Ni1xEtlozQx4n1p689FVXwTG0N9o/Sq76JOIdamPczV28T1XAQAAAABIJwT7AFJfYGkTP6fEyTwtKOut0ZeN1oLfXOdbtuuMsgW6rjmlO2yJk1kRS5v4uSVO5j0X+KTppfcJp2mwqY9uX6Jz89PB7vuQiHVpgXMVAAAAAADEAcE+gBS3QrN+syCkLrvh1maf9cQK6ZiJemX+aXp5rC3r4ZT2WK8rmlW6wy1xsiCgtMmKuydpwYA+wWGtT+8+B2vVvU82OhO6Qd3yU0OC3VbUoG75qbMiH3/v0brH1Ee37+tYc/NTf2mWRKxLeZyr8dSkcxUAAAAAgDTj2Va2zGuXAaSBqowBysnJsb3wKioqGt0mFRQVFWnUqFG2BySvdPkzBwAAAABAe1Bd+Zm8NTtUWbrUjjQuO69AnowsVVZ3jymby87c2uznyMzux4x9AEhOKzQraDZy281ILnvuupDjOFXXUbYFdZLnXAUAAAAAoL1gxj6QZpixDyQfZuwDAAAAAJA6mLEPAAAAAAAAAADiimAfAAAAAAAAAIAUQrAPAAAAAAAAAEAKIdgHAAAAAAAAACCFEOwDAAAAAAAAAJBCCPYBAAAAAAAAAEghBPsAAAAAAAAAAKQQgn0AAAAAAAAAAFIIwT4AAAAAAAAAACmEYB8AAAAAAAAAgBTi2Va2zGuXAaSBqowBysnJsb3wKioq1K1bN9tLXcXFxRo2bJjtAclr48aN6tWrl+0BAAAAAIBk1nF3ubw1O1RZutSONC47r0CejCxVVnePKZvLztza7OfIzO7HjH0AAAAAAAAAAFIJwT4AAAAAAAAAACmEYB8AAAAAAAAAgBRCsA8AAAAAAAAAQAoh2AcAAAAAAAAAIIUQ7AMAAAAAAAAAkEII9gEAAAAAAAAASCGebWXLvHYZQBqoyhignJwc2wuvoqJC3bp1czvlCzVpXKFWuz2NnLZQE46ynSRXXFysYcOG2Z7vpRRN1pVz/K/EZ+AEPThzhHLN8oZFmhzwOoPW+ZTcP0pTim3HGjGtSBOOtB2VqHDUFC2yvTrDp6vol/m2E07o40ZoetEE+R/R4Jg1SBPmztCIfXyL5pj/LE0KOM6G29fvz30NAY83wuyjoXItmnSlCte4vUHjH9SMUXXPmIB17c/GjRvVq1cv2wvzOXKuxniuAgAAAACQeB13l8tbs0OVpUvtSOOy8wrkychSZXX3mLK57MytzX6OzOx+zNgH2rcPVDhDmrxwoRaaNneCPp1a6BtNPSYovHJOf00vKlKRbQ+evFTPve9b+X6hRo1bqoK5weuuHFWoEvfhDhOO+tcX+d6LtVNHadT9QVsE7d9p0YJSE1SOmiIF7neaNGXUZC3aYLfxMaF33fq5BVo6Lvi4/MK9xqK5eXqrqNxu4dvXQKnwmXCPjqy8aKYK+0+3+5yu/nNm1h1fIta1d5yrruacqwAAAAAAwEWwD7RrR2jCzJH1s2Nz8zTALqaUDYv0SHHw7GIjd9QMTTiyXIseXaQR0wJmBvuYddOH+x4XEDQG2WeEZsydoEHFjzQ7kC55plAa/2DATGqfIyfowfFRAs19jlXBwLUqDX3O9ws1JcxrNMc5IWAmfP9LLtWIJh1zud59TZpwnn+v+RrjO76l75j3JRHr2jnOVdtpzrkKAAAAAAD8CPYB1FuxTAuHn6AjbDdVlL+zVKuHDwkOEf02vKula0ZoSGBgaeWfMEKrX3tXEeNmJ7hc3cxAukRvFQ9SwXENi4rkHlegQcVvhZ3p7B7vapV+bftWybJFGjR+TPjXGMQN0WOfCV2u0jX9lRcYJOf11+ov3YA+/uvaN87VQE09VwEAAAAAgB/BPgCXqbU//wDNvSbVYn3XoAMahpItl6u8/nbRsUhTRo3SqIBWaMqntNDqOVfW73NcmJnTYZj65XWPCSrB4jvqUU2YCb2hVGsH5gXXNN8vT4PWlqo8Eetstz3jXK3XpHMVAAAAAADUIdgH4POBCsd9qUsDy/KkmMTMBi9X6Vq76GhYt7yxUDMWdXXLp41wlmO5yawpz2Ie8+D4QXYkUBNmQu+Tp/5rQgL3r0u1un+echOxznbbM87VQMzaBwAAAACgOQj2gXbvAxWOXKYTFk5IuRI8flHLhTglShbprTCzlZ2SIScfGzlsdkqNhC9R0rh8DRkevjRKxHIsR45RwWvhbzLrlGKZ81z41xhG3UzokDIp4QXXSS8PSogTsa794lxtqGnnKgAAAAAAMAj2gXYt9UN9xz4jdOnwRZoyaVHQLHFTAqTw/VyNuGSEFk2dHBRCmnXmBp+XRppxvGGRJjulRiYF3ci0KfLPmyDNuTK4BMr7hbpyTuCNZQPl6tiTI8xePnKMJgxs+BojszOhH11q+5G4oW79c5bouTmrNeIEc3yJWNfOca6GEeu5CgAAAAAA/DzbypZ57TKANFCVMUA5OTm2F15FRYW6desmrSjUyKkL7Wi9kdMWasJRtpPEiouLNWzYMNtzA9Ar56y2PZ/h01X0SxtK2vCzbu3ACXpw5oi6GdAl94/SlGLbcQzShLkzAoLSEhWOmqJFtlcn8DnCCn2cKZEyQf5HmGOeqUkBJU3s9ma/55Vq8p+lSQHH2eA1BhyneQ1vnRBYcsXuK+S1NlSuRZOuVOEatxdcYiUR69qfjRs3qlevXrYX5nPkXI3xXAUAAAAAIPE67i6Xt2aHKktjn4SWnVcgT0aWKqu7x5TNZWdubfZzZGb3I9gH0k2Tgv0UFxrsA8kqNNgHAAAAAADJKxWCfUrxAEALmZnJo0aNCmqTi2IrQtJ6zIzo4GMcNarQN4r2JDXOVQAAAAAA0Bhm7ANphhn7QPJhxj4AAAAAAKmDGfsAAAAAAAAAACCuCPYBAAAAAAAAAEghBPsAAAAAAAAAAKQQgn0AAAAAAAAAAFIIwT4AAAAAAAAAACmEYB8AAAAAAAAAgBRCsA8AAAAAAAAAQAoh2AcAAAAAAAAAIIUQ7AMAAAAAAAAAkEII9gEAAAAAAAAASCGebWXLvHYZQBqoyhignJwc2wuvoqJCORs32F7qKvrnUo36SYHtAcmrYvNm5fToYXsAAAAAACCZVe/bRd6aHaosXWpHGpedVyBPRpYqq7vHlM1lZ25t9nNkZvdjxj4AAAAAAAAAAKmEYB8AAAAAAAAAgBRCsA8AAAAAAAAAQAoh2AcAAAAAAAAAIIUQ7AMAAAAAAAAAkEII9gEAAAAAAAAASCEE+wAAAAAAAAAApBDPtrJlXrsMIA1UZQxQTk6O7YVXUVGhnI0b3M5HT+nUe153l31GX3ePJh5qO0mu6J9LNeonBb6ljzXrmnu0wB22TtLM+y7QUbanja/ruqlPaZXtOvpdoPmTT1Jv2w0vdN/B+y1beqfGPvmZ7Rn16xuuM/pp4rQbNVoNj2fwhbfpnoJetmfY5z7pOr1y8SH1fXdlA+azu7D8Tk3XLwL2E9vxB3/u5jEfaGjg+9fARi2YcZtm2ZcXfOyJWJfaKjZvVk6PHr6lcJ8h56ortuNv+rkKAAAAAEDTVO/bRd6aHaosXWpHGpedVyBPRpYqq7vHlM1lZ25t9nNkZvcj2AfSTdOC/Y8163FpohPE+TiBYrmuSJGQLDjYDw73GoSA5rXNk6bUhaNuiPzyD6OExzZgPTgwSHQuhJS6gafvYeZ5AsNJ53n/71gnhFXIuiARjmf9yJDn+kAa/brCBJdm+79JV7jH4Rd0PLEe//9Jq+Qes3ssjYelzussGxkQ4i5U34B9xntdqgsO9jlXjaDjSeC5CgAAAABAU6VCsE8pHqBdO6Q+1Dd6HabT+pXqi422n8J6F9yo+Rf204KFr6vMjgXrpT55djGCFS89JV14W33QaBx6gW+/0qyXPrYDwXoXjNToz97VO01+D3vpuB/20yfl9Q9c8UGpJp5+gYae9Lre+MgONkHMx//DkZqop/RkzM+xUe/8n3zH5j93DtGFvn2+/B9z7IlYl944VxN5rgIAAAAAkJ4I9gHU++hVzdKxOi7MpN1U1PsHx2pwxODyY73x+km6ItIMaGd9P532g4brnf2+/oFW2H58mGD7M60q8x+s7/lL3c/iqNMv0CcfhA9nI2vK8ffS6JEnRQmWQ23U+s/y1Cdg171z8+yxJ2Jd+uNcTdS5CgAAAABAeiLYB+CWvLjmOp16jzSzrsRFGujVWwfbRcdnT2mseZ1Oi1z/uyVWPO7bb7/6iyOrnrzNPp9tMwICyaDjuU2zdIHm+79B8dEH+uSHh7mfhfkmRWm8w9kQh54S+0zojWX6pF+u9rVdxz65GlxaprJErLPdtMa5GrumnKsAAAAAAKQpgn0ATsmLV+67R69My9W8a+7UgnSZJG3CYrvoMDcgNa/Ttpknva5JgeFlMwUGopNKfc8RcHHE3GTU/3xOC7xwUnc812l0yM1RV3zwesB+zQ1lm1fiJHZNmAltQujPyvWN7To2lGtVXm/1TsQ6201rnKtNwKx9AAAAAAAI9gHU63WSrjjpM60399VNA2X/eVerAmYkhzJlQwaHhsl1DtFQ33sRrsa7s9+Tjqi7WWdQIBoYhsbsEF34w3c1fWlgaZPgYPeVaU0tcRL78ddp0kzo4HsxlJWX2iUjEevSG+dqIs9VAAAAAADSD8E+0J599JSuqwvofDa+rnmv91PffWw/hZUtvVNjn5QmXhE5vDQ37AwbGlomTNWTt2lWYHjoe8+c/dbd5DU+TC1xPfmqW8IksLSJn1PiZGGTvk3R9OP3z4ReGDx7vAE3iK2/qenHevLJzzT6CLPPRKxLb5yriTxXAQAAAABIT55tZcu8dhlAGqjKGKCcnBzbC6+iokI5G91p+W6o+JmzbIy+7h5NPNR2klzRP5dq1E8KfEsfa1ZoHfKQciHmosV1U5/SKtt1hG4TVui+T9LM+y6oC1jN+zddv9A9YW5sGvreuvpp4rQbNVq+45knTQksafL4dZr0er5+rBLlhPkcnPW6Tq84tc03asGMv0lX+PYV8NQNj6epx2/2a8qpBG/XkH87t2dmgjfch9uLz7rUVrF5s3J69PAtca76td65CgAAAABA01Tv20Xemh2qLF1qRxqXnVcgT0aWKqu7x5TNZWdubfZzZGb3I9gH0k1Tg/1UVh/sA8mtPtgHAAAAAADJjmAfQKsj2G+6cLOV02m2ePMFz6B32Vnc7f2taaJ4BfucqwAAAAAAJB7BPoBWR7APJB9m7AMAAAAAkDpSIdjn5rkAAAAAAAAAAKQQgn0AAAAAAAAAAFIIwT4AAAAAAAAAACmEYB8AAAAAAAAAgBRCsA8AAAAAAAAAQAoh2AcAAAAAAAAAIIUQ7AMAAAAAAAAAkEII9gEAAAAAAAAASCEE+wAAAAAAAAAApBCCfQAAAAAAAAAAUohnW9kyr10GkAaqMgYoJyfH9sKrqKhQt27dbC91FRcXa9iwYbYHJK+NGzeqV69etgcAAAAAAJJZx93l8tbsUGXpUjvSuOy8AnkyslRZ3T2mbC47c2uznyMzux8z9gEAAAAAAAAASCUE+wAAAAAAAAAApBCCfQAAAAAAAAAAUgjBPgAAAAAAAAAAKYRgHwAAAAAAAACAFEKwDwAAAAAAAABACiHYBwAAAAAAAAAghXi2lS3z2mUAaaAqY4BycnJsL7yKigp169bN9qzyhZo0rlC6eq5mjsq1g8mtuLhYw4YN8y2VqHDUFC1yh60Rml40Qfm2pw2LNNn3+lbbrt+g8Q9qxnHvNlg3YlqRJhxpOz4l94/SlOKQfYZ73uHTVfRLhTmeembfY0ona6YmaUbge22O8c/SpJkjlBvmeJ1jtdu7x+MsBgg9vmDlRZN15Zz6PZr9XfrllWH2YzmvxezNvs7QvrNRQzG9Pl833PEEbd9AuRZNulKFa9xe8PaJWBc/GzduVK9evXxLnKuudD9XAQAAAACprOPucnlrdqiydKkdaVx2XoE8GVmqrO4eUzaXnbm12c+Rmd2PYB9IN80L9su1cNIMfXmQ9Gne5BQN9t/SkICg0B/E1YWeIUFdkNB1TlC5VAVzZ2jEPmbA3b+GL5JOCAxRGz6vCTEfOSA0OJ4p/ca/L5c5vkbD0qDjdQPo0kvc5zfP81bQsTTi/UKNmqqgMLWkaJFyR9W/H2GPyTCPXSaNKFbQa3U18/XFcDyhnM/0y0sDAttHlGc/o0Ssi6fgYJ9zNao0OFcBAAAAAKktFYJ9SvEAUHnRDC09ebLG5NmBNJA7aoYeHD9Iix5dpHI7FrN9RujS4au19B37yPff0trxYzThhBFatKzEHYsg37fN6i+b/IwxyNWxJw/S2tLm7bu8dK00fEhQ0JkfYzBZsmytJpw3QUOGL9Jb79vBFmr68ZTr3dfkOw7/I/I1ZrzsZ5SIda2HczVY6p+rAAAAAAAkHsE+0N6VL9SM1wo0OXTmaxrIPa5Ag9Ys1bsb7EAzmbCw4Djf+3PkGE1Y+5aixaUlyxZJa0ubHtA2yoTQq5sdxOaOulQjiqdo1P3Rw96GSvTW2gIdu4+Uf94ErW0kLI5V04+nXKVr+isvYKZ1bl5/+34kYl3r4lytl/rnKgAAAAAAiUewD7Rr5Vo4Y6kKJo9Mz9mn++Spv110rCnUlaNGaVRdm6xF4YLU9ws1pXiQG5AGhIVyZiKvDZkJvEhTAvbp1DYPV0KlOYKO90oVaoIedErGuBZNrX9ep0UNHvM1oahIDx7wiLvtpBhnh5sZ4Ccf676efY5VQSNhceyaeDwbSrV2YF7w+7pfngaZYDoR62y31XCuBkjxcxUAAAAAkDY8HTrZpehi3S6eCPaBdsxfgmdkXJK9JGSCW7voGDhBDxYVqaiuBdTaDgwmp67VBH/N8vff0qKAdaYWenCJE3MTULOvBzVhYPQbgjZZ3fFO1wizHBLCmprs9a/F1wKC1EhM2Rez7YMnL/W9psJGg08zq3v1nCvd98UEtmviV+LEiPl4TPC9JiRw/7pUq/vnKTcR62y31XCuNpCy5yoAAAAAIG10zOphl6KLdbt4ItgH2q1y/Z8plzF7nEaOHOm0cbNtf9LC4LAzRZW/s1SrB/pnMDciKEitD1Gdmt1zAwJJE4qGnQmcqxGXSFOaUK4j9lIl+Rpz8lLNLIrfp+KUF9FalUYt/WJmgIcEzHNjL3HSlFIssR1P8Hqn9nmdRKxrPZyrkaXmuQoAAAAASAeZe+xnl6KLdbt4ItgH2q1cjZy5UAsX1re5Vw/SoKvnauHM1C/NU140WVfOkSb8piWlRgJLm/i5JU4eCRdcHjlEI4ofCV8yJYRTUz1o23It+nOh5C8lEsJsrznPhQlpY2Pej8LA2ctmdreC68s3EFjaxM8pcdL4a2zs9TX9ePI1ZPhqFT7jfwdK9Nyc1Rpxgpn5nYh1rYdzNVjqn6sAAAAAgHTRoVNXdd7rINsLz6w327U2gn0AaSK4fviVrxXowcDyJUZQHXC3TY4ys7jk/ilaFKYsi3OD1bDBZb7GjJcKx0Wohx5onxGaMbdAS8f5j+VKLT35Qc2IdBNj3/aXDjevsb4ESIO65VHKg5jwcm3g9k4Jl2ilWEpUOHWR+uc1ePXK6x8YhkfQyOtr+vH43t1fmhnoU+xjpmjteF//yMStSxzO1XQ/VwEAAAAA6aNTl17qmjNYHbN61dXSNz9N34yb9W3Bs61smdcuA0gDVRkDlJOTY3vhVVRUqFu3braXuoqLizVs2DDbA5LXxo0b1atX2/yHHgAAAAAANE3H3eXy1uyQt7ba13bJ662V71++NYFRusf3j8f3Twcn6Pd0yJQnI0uV1d1jyuayM7c6z1FZutSONi47r8B5jszsfszYB4B0YsqG1M0sti3aTO/kU6LCkOOPNrsbqSv1z1UAAAAAANoOM/aBNMOMfSD5MGMfAAAAAIDUwYx9AAAAAAAAAAAQVwT7AAAAAAAAAACkEIJ9AAAAAAAAAABSCME+AAAAAAAAAAAphGAfAAAAAAAAAIAUQrAPAAAAAAAAAEAKIdgHAAAAAAAAACCFEOwDAAAAAAAAAJBCCPYBAAAAAAAAAEghBPsAAAAAAAAAAKQQz7ayZV67DCANVGUMUE5Oju2FV1FR0eg2qaCoqEijRo2yPSB5pcufOQAAAAAA2oPqys/krdkhb221r+2S11sr3798awKjdI/vH4/vnw7ydOjka5nyZGSpsrp7TNlcduZW5zkqS5fa0cZl5xU4z5GZ3Y8Z+wAAAAAAAAAApBKCfQAAAAAAAAAAUgjBPgAAAAAAAAAAKYRgHwAAAAAAAACAFEKwDwAAAAAAAABACiHYBwAAAAAAAAAghRDsAwAAAAAAAACQQjzbypZ57TKANFCVMUA5OTm2F15FRYXdpkwLrhurWavccddozXxloo6yvWRWVFSkUaNG+ZZWaNapk7TAHa539ky9cv1RWnH3qZr0wmBNnH+PRve26xz29Wui5t8zWr3LFui6sbMU+HaM/vMrmniMb8Gsmy5NMdu5q4K4z2E7Pv7HlT13ncbee3CD99TZ/lPf806Rpoc8pzH42vm654R3GhyP4awb0/AoQo8hyNkTNPqFQn0S+lj7mg/2He+FX5hjDXr1dcftvo4GRxLmPQ0Q9H6GbJuIdUms/s8c56qRdOcqAAAAAAABqis/k7dmh7y11b62S15vrXz/8q0JjNI9vn88vn86yNOhk69lypORpcrq7jFlc9mZW53nqCxdakcbl51X4DxHZnY/gn0g3TQ92H9Sfe5JjSA/VHCw/4aGRrggYULEeZ8Olk6ZEjYoXDV4Yn1YGhiIOutf1mkmEFSksNQGrgPcYNblhrf+YNIJGr+4on798lk69eG+4Z8zULR1jTDPOV0hr9c5rnnqWxdwuse+/rL6YDfwMc5xv3qac5wKu79ogvcd9JoTsi65BQf7nKuB2v5cBQAAAAAgWCoE+5TiAdAuHHzKadKr76jM9o2yZS9LZ4/WYNtvoPdoXXH2Kr28LPBRIZY/6c6irgtKjaM0cf5E6d4ntcLX6z1miiZ+Okmzlpt1ZVrw8AKNvqzpAWjL+Y7rzwdr1vQF7vtgj/1CE5KH0XvMFRq96mW9E+XlR1T2jl4O3PcxF/p6dl+JWJdGOFeNVjxXAQAAAABIQQT7QLv2jdavWqBJp56qU21zA7001Oc4nRYUApfpnVcP1hUX9bX95lnx5gINPuW4hsFnb9/zDV6gN5z3s7cTjpqQdMVz050Z086M87bghOGz9OTyFZr1m080cUqCQtuv1mvVgD4B++6tPgNWaf1XvsVErEsnnKuu1jpXAQAAAABIQQT7QLt2lCa+8ope8bf5E/XJb67TgpSc9Rp8gaLhRYreOu4U1c9oNrO/Bwz1vQNRLJ/l1Ds/7YQ4xInHTNTMAb79mRrmQTOmfVbN0tigYw/4DKKta5beGj3FfM6m/MqUqDXHV9w9SQsGn6bj7Dar7h0bcBy+dp2dTR1G2RefaHCffW3PtW+fwfrki7KErEstnKuxaZ1zFQAAAACAVESwD6Be79Gacm1AoJhSzM0zAy5S+FroTOPeJ9SXODGlTQ4+MUxUGhhOmlnCcbzh5lEnjpYG91VwNO1j6qYHHXvAc0Zb11zODG3p4D4NdxQYiDo3TA2omW5uhFp/HL4WpZ567z4Ha9UX39ie65svVjnPmYh1qYVzNWatcK4CAAAAAJCKCPYBtB+mDvkAU+JkhZ6892ANDVdiJCicbDyYNAHoqpB66A4zy3rV6PDPkcSCAtGWhqGffhHwvpTpi0/topGIdemEc7VRcT1XAQAAAABIMQT7QHu2fFZwCZCyBZp+78G6Ykz6RmRHnXiwXn7iDenaC6OXNomVrQM+9m5z61G/FZo1dlb8niMVHTNUo1eZ+ui2b25+6g+PE7EuDXGuAgAAAACASAj2gfbsmAvV92FbysO0sS/rtPkTUzTga1i3/NSgANM6ZqgOfuET9W1OLfLA0idOm6UV6q3R97yimZoUMD5J+vMruifWCyQN9nuqrnvOzquOtq6VNahbHrWG+lGa6NyzwW7rlIrxn1uJWJdKOFcTrWnnKgAAAAAAqcezrWyZ1y4DSANVGQOUk5Nje+FVVFQ0uk0qKCoq0qhRo2wPSF7p8mcOAAAAAID2oLryM3lrdshbW+1ru+T11sr3L9+awCjd4/vH4/ungzwdOvlapjwZWaqs7h5TNpedudV5jsrSpXa0cdl5Bc5zZGb3Y8Y+AKSeMi24LnA2chvOSF4+K+Q4fC3c7HO0U0l0rgIAAAAAkEaYsQ+kGWbsA8mHGfsAAAAAAKQOZuwDAAAAAAAAAIC4ItgHAAAAAAAAACCFEOwDAAAAAAAAAJBCCPYBAAAAAAAAAEghBPsAAAAAAAAAAKQQgn0AAAAAAAAAAFIIwT4AAAAAAAAAACmEYB8AAAAAAAAAgBRCsA8AAAAAAAAAQAoh2AcAAAAAAAAAIIV4tpUt89plAGmgKmOAcnJybC+8iooKdevWzfZSV3FxsYYNG2Z7QPLauHGjevXqZXsAAAAAACCZddxdLm/NDnlrq31tl7zeWvn+5VsTGKV7fP94fP90kKdDJ1/LlCcjS5XV3WPK5rIztzrPUVm61I42LjuvwHmOzOx+zNgHAAAAAAAAACCVEOwDAAAAAAAAAJBCCPYBAAAAAAAAAEghBPsAAAAAAAAAAKQQgn0AAAAAAAAAAFIIwT4AAAAAAAAAACmEYB8AAAAAAAAAgBRCsA9AWlGokSNH2jZJC8vteMooUeGoQt+/rfcLNWrUqPp2f90aR3nR5KD1k4tif8HuYydr0QY7YJXcP0qF79tOgNDnGhVwnGZdw+cOeS2W2X/gY+tsWKTJAfsPdwzByrVoUv32wc+fiHUIxrnq33/j5yoAAAAAAIiEYB9o58qLJmnk/AM0d+FCLXTaTI3MtStTkQkPp67VhLlFKipy24MHlNaFjCZ0vPK1Aj1o1xUVPaiC165sEKiGV653X5NGDJeWvhN7wDpo/IP1xzJ+raZMWuTbU1OU6K3iEb7nXaS3gsLQEhX+WZrkfy1zJ2jt1DCBaoDyopkq7D/dHs909Z8zsy74TcQ6RMG5GvVcBQAAAAAAkRHsA+3aB3pu9gBNnzlSqZzlB/m6VKsHFujYfWzfJ3fUCOWbhQ2L9EjxCN/rHRHwenM1YuZ0jSh+pPEwesO7Wtr/Uk04r0B67d0mBp6u3FGXasSapXq3KcH3+29p7fgxmnDCCC1aFhiF5mtC4GvZJ0/97WJ4btg74Tzn3fDJ15jx/uA3EesQFecqAAAAAABoJoJ9oD0rL9Wnw0+Q7vOX4RmpSaleRuXIMZqgQl0ZZqZx+TtLtXr4EDc4DZKvIcNXNxpGm8f3P8H36H1G6NL+TQw8W6Bk2VoVHJfrvra1b0We5fz+W1oU9vX5lat0TX/lBQbJef21+kvzuhOxDlFxrkY5VwEAAAAAQDQE+0B79vWXWl08RctO8Jfhma4Bs2ekYI39QGZWc5GKLinVlSF1wlvGzEzvryFHur38E/o3a1Z6yf1TtChglvbqOVfW1Rx3m2+9u8oq0Vtr/dvn6tiT14aUOLFMWZdH8/TgL6NEpRtKtXZgXsAMcJ/98jRobanKE7HOdhEJ5yoAAAAAAGgegn2gvRs0QWOOsss6QmOulpb+Ow0i2SMnuLW8p0lTwtxAtMlMaZM1i3z7sqHm1EVaHWOJk8BAdMraCXowoCRJYE1zt03XCLvOYWY2rym0we8oXTlndUiJE6NEheNKdWlQ2ZYwTPmTNSGBuykH0z9PuYlYZ7toBOcqAAAAAABoIoJ9oD3b7wANsotpy5QEGbhapV9LuccVaFBxuPIg5oafg9wSIhE4pU2mBYaaRZoeY4mToEC0iYGmKW0SeHNVcwPV4BInJSoc9ZaGFE2IsazJWpUGHHN56Vq7ZCRiHWLGuQoAAAAAAGJEsA+0Z7k/VIEK9dwK23dupisV/CiF59K+X6jJgfcJcGYvD1Lefr5lU298+CJNCappXq5Fk6Zo0fBLNSKgTnyw4NImfqbESeEzDaPX+AksbeLnljh5xHmNTQ1K3frs9cdcoufmrNYIU4s9IesQFecqAAAAAABoJoJ9oF3L1cjJE/TpVP/Nc6dI02ZqZArn+jpyiPoH1gIfV6j+02bUBaH5vyzSgycvrSsXMmrUlVp68oMqilLvu7xopgoVprSMqSVf/Ehd6ZRFU/37dFtQaNsMTo3zMCVtnJvTznlOJab0ie9/dSVXbCsMV9fcyv+lmUU9xW47RWvH+/r+WuwJWIcoOFejnqsAAAAAACAyz7ayZV67DCANVGUMUE5Oju2FV1FRoW7dutle6iouLtawYcNsD0heGzduVK9evWwPAAAAAAAks467y+Wt2SFvbbWv7ZLXWyvfv3xrAqN0j+8fj++fDvJ06ORrmfJkZKmyuntM2Vx25lbnOSpLl9rRxmXnFTjPkZndjxn7AFDPlDoJnlE8Kh43M2116fI6EBmfMQAAAAAA7Rkz9oE0w4x9IPkwYx8AAAAAgNTBjH0AAAAAAAAAABBXBPsAAAAAAAAAAKQQgn0AAAAAAAAAAFIIwT4AAAAAAAAAACmEYB8AAAAAAAAAgBRCsA8AAAAAAAAAQAoh2AcAAAAAAAAAIIUQ7AMAAAAAAAAAkEII9gEAAAAAAADg/7f3N+B6nXWB6H3vpElLwQxKoAFsazE98MaRoQNelJGOvUg8I2VoYK4jzGX0cqxSGKdJX+fNFH07MKinL8Jk9CWtDgXtpZcnniOe65RdpOox4e1Mq6XXUItVc+i0MrblYxeCzGltKS3Jftd/rfXfz/08e+/sna+drOT3g7trrftr3etrP8/zf1bWAwMisA8AAAAAAAMy9eTM3bP9PHAaeGr1xrJ+/fp+aWEHDhxYss4QfOITnyhvfvOb+yU4dZ0u1xwAAACcCZ55/L+V2YNPl9lDzzTp2TI7e6g0/2lK6lD6VPP/qeb/q8rUqjVNWlumVp9THn/m25YVm1u39ol2HY8/ekefu7R151/ermPtuovcsQ8AAAAAAEMisA8AAAAAAAMisA8AAAAAAAMisA8AAAAAAAMisA8AAAAAAAMisA8AAAAAAAMisA8AAAAAAAMisA9nsJlbt5fNmzfPS7vv7SsMxn1l9+bdzX979+4e36YPzZW0Jrd7+60zfcnSurbby/REk/s+tPB+m7+PR+OMsvnrntiWXvRft50zsa1LH7uZMr19VH98/SeijHHO1UzD+zsDAAAApw6BfTiDbXjrjWXfvn1V2lN2bNpULnxpX2GIZqbL9useLDv2jLZrzwWPzAUZI+i47VNbyp5qm7d8atu8gOrCZso9nypl65Wl7L17+QHWTdfsGY3lmgfLzu3TTU9H4r5y521bm/VOlzvHgqH3ld13XTbX9749O8qD1y0QUK3M3HpD2b1xV99mV7n4phvmAr8noozDcK4e9lwFAAAAFiewD4zc+7Gye+NVZeuGfnmIvvhw2b9pS3lttQ0b3rq1XBIzM9Plltu2ll03bi2j4g1l6427ytbbblk6GD1zT9nb7J8db99SyqfuOcKAZ2fDW5v9u39vuedIGt97Z3nwmreVHa/fWqbvqkOhl5Qd17Zb1tnw2rJl04PlkUX77oK9O96ebS4pb7smA78noozDcq4e5lwFAAAADkdgH+jNlOnffLAK0A7Uq99WdpTdZdsCdxrP3L237L/ysi5wOuaSctmV+5cMRkf7i1/ftN6wtVy18QgDnsfgvrseLFtet6HbtofuXPwu5/hipowHisd9uTy8/+JyQR1IvuDisv+RLzdzJ6KMw3KuHuZcBQAAAA5HYB/onDaBtrireV/Z9y8eLtsmnhN+bOLO9IvLZa/uli55/cVHdVf6fR/aWaaru7T337Rt7Lnjmzc35V1R775y50NZf0N57RsenHjESSOfXX5dmbjDe8LMI+XBTReWF/eLrZdeWDY99EiZORFl/SKLca4ueq4CAAAAhyWwD7Tuu2u6bP0Xp1Gg7dU7umd5f7CUnQv8gOgRi0eb7J9u+uqDmtdNl/3LfMRJHRDd+dCOsqcKaNbPNO/SrrK1L2vde2eZ3r+7D/xuLttu2j/xiJNGbuueC8sth9vWDReUi/c/XMbupY/HwWy8oGw4EWX9IktwrgIAAABHSGAfKO3zvB/aUd7W3+F7WolHgmzaXx7+YikbXrelbLptoceDxA9+buoeIbKI9tEmH6yDmvvKrmU+4mQsIHqEdynHo03qH1dtf+B4sUecxGNXruy2dXEPjj3XfOaRB/u5cCLKWDbnKgAAALBMAvtAue93d5fyhteeHndY37u7bL+1jjLH3cubyoUvbebbYOJ02Tn2TPOZMr19Z5m+8nA/Gjz+aJMUjzjZ/bsLhi2Pk/rRJql7xMktsY3ztjV+cLXf1gV1z2cfjfm+8rGb9pet8Sz2E1LGYTlXD3OuAgAAwKliqp8uZqnyE0NgH8509+4uO2/bWq5662kR1i/l1ZeVi+tngW/bXS7+4I1zgdBLrt1X9rxh79zjQjZv3lb2vmFP2Xft4oHomVtvKLvLxHPkQzxL/rZb5h4nMn1d9tmlsUDmUWifcb7AI23aH6e96WPlvlfvKNeXG0brnNjWhVxybdxFvbNvs7M8eE2znM9iPwFlHIZz9bDnKgAAAJw0baz+SAP2Tf0VjPFPPTlz92w/D5wGnlq9saxfv75fWtiBAweWrDMEn/jEJ8qb3/zmfglOXafLNQcAAABngmee+Jsye/DpJj1TZg89W2ZnD5bmP01JHUqPQP5U8//VZWrVmjK1em2TzimPf/N5y4rNrVv7RLuOxx+9o89d2rrzL2/XsXbdRe7YBxiJR52M38m8eZA/8Hm6bAeLc4wBAADgRJlqb70fpXY5Zrv/dNP2/7E8St3yynDHPpxm3LEPpx537AMAAMBwPPt3j5ZD7R3732zv2G9myuzsof6u/V57t/6qZpp37J9dVq0+p/zfTz/HHfsAAAAAALCiIlg/lyKEvqq7G39qlLq785v8pjzrRruVIrAPAAAAAAC9VWc9pwvUrzqrlKlI/Z35bRC/S20Qv5025U29qB/tVorAPgAAAAAA9Faf/e3Nf9aWqQjYt2lNO+2C/BHQH89vy5r6bbsVIrAPAAAAAACV1WufX6ZWrS1TEeBvg/wRxI9Uzc+VrW3rrySBfQAAAAAAqMRjdVaf/R0lfqx21eqzm2n8OO5C03Paeiv5GJ4gsA8AAAAAABMiWL/m3BeXVWu+rUw187EcwfyYtstNflvezK+0qSdn7p7t54HTwFOrN5b169f3Sws7cOBA+cZXP9MvAQAAAADHw3Ne+JplxebWrX2izB58ujz+6B197tLWnX95+y8E1q67SGAfTjfLDeyfe/ChfgkAAAAAOB6WG5s71sC+R/EAAAAAAMCACOwDAAAAAMCACOwDAAAAAMCACOwDAAAAAMCACOwDAAAAAMCACOwDAAAAAMCACOwDAAAAAMCATD05c/dsPw+cBp5avbGsX7++X1rYgQMHyrkHH+qXCKu+9JV+bmUdesmL+jmW8uyhs8rfPfPc8szBtWW2TPW5Z5apZsvXrn6mPG/tk2XNqm/1uQAAAMCpYrmxuXVrnyizB58ujz96R5+7tHXnX16mVp9T1q67SGAfTjcC+0dHYP/U9q3ZNeXvDp5XnnPuc8uaNWvKqlVn5j84O3ToUHn22WfLN556sjxv9WPlrKln+xIAAADgVLBSgX2P4gHglPeNg+vKuc99Xjn77LPP2KB+iG2PfRD7IvYJAAAAcGYS2AfglPfsobPbO/XpxL6IfQIAAACcmQT2ATjlHeofGjc7Oys1KeQ+AQAAAM48AvsAAAAAADAgAvsAAAAAADAgAvsAAAAAADAgAvsAAAAAAByxx/7o5vLmH7m+STeXT361z2RFCOwDHLXHytm/+r+Wc371M2VNn8OJsdAPyC6c/rx8+Mory5Vz6bryyccm6tz34cOXDygd1lc/Xf5N8+bq3/zR1/sMAAAATiX33xIB8evLh/+izzhe+s+Db37vp8tjfdacLJtLnyj390VH7vPl1t96pLzp524on/idd5Y3vbDPnrD4dn69fPK99VgOsy/+4hOHLz8DCewDHI3Pf6ac86v3l9k3vqYsEV5lxTxWbr/uPaX8/HSZnu7SR95Rys3vuHn0JuUrt5d3/7vPl3d+tK/z8y8bLz+dvPDS8u9/54by7//Jt3fL7Zu3Y3nDBgAAwPHx+fLhH7m+/PZLf7K8a2OfdZy0d9Bf+9XyYz93aZ9T+3r55I1/Xi7/UATi+/RzpVx/tJ8Vv/qV8tflgnL+hn55nsNv52N/9LFyx/fvHI3ld36ylPcvErz/3je3dd71vd1ifFlwpt/IJrAPHLNf/fWP93Mjjz/xVNn3n/+sX1o533j6mfLHd9zbL51AL3tNefpf/WB5po+ZrpTYttjGlRTHMY7npIWO+8l1Xrnig9Plna/qFxvn/dNt5YrmjcQXvtIt3/9/3Fw+98Ym70XdcnnVW8o7X3572fP78+5h4Kh1b9zauy1u+Xyfd2oa/ZPRJi10JwsAAMAJ8bLyrt+pbsQ6js77J+8sn/idN5dX9svjvr286Rcm7qz/3u8pbypfKo+ekMfoHH47Y6zjZS8r/2hLKX/9pVMnYH8qP2pIYB847j734CPl47ffVT73Xx/pc1bGAw89Wn7nf99b/mszPV3FtsU2xraulDiO7fFsjuvgfOULZRRafqx8oVm44tL67c155dX/+BXlc19Y2ZDur/zKr5StW7cumKLs+Oj+SWPc6dDdsfGJ8rny6XJ9+4akuhuj/+eMc6kKxrf/XLJZzn82Gam7I6IK3tdvbtp/FfDH5fy8++P7/mrB4H47nvd+utxfB9bn3SFSr2O8PNt/Msc1Lyjftf3wX4z3Ud/NEX3sKm/r7wq5ofz69/95+al6rBP7petr/I3c6A3e/P4BAACG4LE/+uPyyX5+IZOfe/Ju+ja//Zz5SPnwtU3Z8bhZqvlM+dt7+/l58jNZ9znv+qbe535r18RnsclH+0x+Xm2W/6J+FFH3OXNsGyc+E//UF3+w/9z4tlJuHP9MeLIJ7APHTd6lv+8//Vl5YoE7vE+UvEt/b5OeXuG72U+G2MbY1pW8ez+OZxzXxe7eP1WN36H/WHn0gVeU81/SFs057ztf1rw/+MKK3q191VVXlb/39/5evzQSeVF2vLV3bHzozeUV5dJyQ/uGpL97I4LX7/9SedfcP8PcWd71N78xHqDe+xvlt1/a/9PIn7u0eeP0sfJv3jsK3v/6j5fy4U/0b3xmvtq8qXtJOT/v/oh/KnlVs38X8tAnyvVzb5BuKDds+XS5fu6NYLxR+43y1z8++ieZv/7jX6rKG037R7+vK/vEL1xazuuza598f/UlQ7P9pXnTl29CJ+8MOe8f/oPyir1/1X15EG/43v/p/jmRkXaW83/vN8be7MYbv5/6rZf0+zPST5bvrvoHAAA4LiZvxurTsd1YNAqA/9RvPVJe8eNvW/D5+G1g+0/+Qfn1/NzTfK766/5ROaPPmRd0nykX+Vy2HHOB9fiiYOOby87D/kuG7l8B3LClNOPuPjN2n+1im5rPZN/1k/1ntCb93EvKh5s+RzeRPVI+/P6vlh9ry5vPvxs/XX77vc1nu7nPpj9Z3rT3j/vg/dfLo3/TrOOlOZYF/rXDSSawDxwXf/W5v3GX/go7mXfvx/E+1T32++8u7/mDK8ovvmvhf4B4Mi0WwF8s4H9iNG96fu/TE2/gmjcqP3xp+dyfPDAKoNdvqtp/otlc498/anPeS15SSgbEN7yweVNXB+gP59JyQxX0f+VVzRuoh/68fKZ5A9XeMTLxZu68f/KDc+Wtpvyt/bMVFzO2bS+8tOz88QvKJ/9LdVd+e8dG/8a4vdOk89if/Xn7ZnLUf7Nftscb1pQ/EFX/89aXlbdO9g8AAHCs+mfLT6Zje4xPBKm7fn79x99cfmzBvj5f/nRvaT8jzgXs83NV81nyeN4c1z0+qBnPh95c3lWv70j8xV3lww+Nf84s3/v6Nnj/p9UNWKPPcd9eXvP9F5TPPfSSqs23l/M3PlLu+LP40qSZ/67uXwWcqjdwCewDcMqbnZ09svTYJ8t/+OhsufojV5fvrfKbnsbrtaldwwL5Jzb9wA/8QLn88stj5a2Yj7yF6i6Wjs3Xy6MPjf7p4lx6/6dLeeirozdp3/WieW+qvvsl1Zu+Npjfix/sjTs2HvpE+am2v8nH61Q2vnCi3+4N1KMzpTz2xUfaO/K7PjLFHfNd+XKNjbPRfgnxN19pt619vNC11Y9GtXeadNr1T273C19Uvruf7X4gKv5FQD2+7k6X7B8AAGAIzvsnLyp/OvHY0dYiP4zbfq6qPzMeT81nyvP/y9H9a4THvvSl5r/5+NlMu8qHm8+9o2f2L/BDv2OfTbtgfnrlVd2/DMjPfqfa41cF9oHj4nte8V3lLVe8vrzif7igz1kZL994fvmR/2lL+R+a6Zkmtjm2PfbBSonjG8c5jvcp6yu3l3df/ZHy3e/7wOhHclvnle98+QPlC/FaX3nsixGiPTl+4id+or1DP1LMnwyjx83UabEfWlqGCO7PBcqXe/f+ArZU/3yySu9a4i79ZWmf2xj/XHThf0Z53ksX+DvWB/NH+n9uOjnGY/jnpwAAACuvvkv95IvPY2P/ivxIbHzz6LFBVTqWf90Qwf3oIwL8p9rd+wL7wHGz7tvOLZv/8T8sm3/gH5Zva+ZXynPOWVt+8PJXly1NOqeZP93FNsa2xjbHtq+EOJ5xXOP4xnE+dd1fPnL1R0p5x83l6lf1WXPOK995USl//cXxtwePPfpAefk/fvVJCcZmQD8D/CvrZeUfxZ0HJ+rRMRHg/7lLl38nx1cfKHc81N098crva9rl432Oo/v/y6e7O/Enfwug0T5+p5/vnrf/G2Nv2O7/xOhRPeWFLy+Xn0JvfAEAAI679l8tz/9X0+2d8fP+BfbJ136Oqx/fepy98qp4Jn999//JJ7APHHevuLi7q9vd+8ffybxLP47rqe2xcvu731tu/6FfKB9408JvMV556RXlgY/+crn9K33GZz9S3vuHLy8/8H0n7y1JPIKnfiTPifWl8mj1JueVb35zG8Ce/NX/o/3nhe3jbebu0O+e4V+2fM/Cd/8/9Imyq1pPGzjf+A/KayLY3j8H8fr6UT7xg1FHePf/J99ftW/v0i/lTd/3srnfAph7zmLTd/sYndR/KVE/audPv+8ny5v64rijpf0tgt/aVe2r7sen/HguAABwymp/Z2z8kamP/dHH2mfTz3/Ofn8zWP08/ab9rvi9saN9Dv6YBT5DHWH/n/ti9dm1+Rz3Y1seKR++tnqs0ALbu2xt22p87TP8LyiX/8Ojv/v/eJt6cubuY31IL3AKeWr1xrJ+/fp+aWEHDhwo5x58qF8irPpSRnqP0NcfLGf/zv9dDv2r15Rn+6wjceglY8+KYRFf+caG8oIXvKBfWsRnP1Le8r7b+4VxV7zv46M7+Mfqvbxc/ZHJR/YMw9e+9rXyoucc7oHz8SZpV3n0h0ePr4nA+/V7u/l4BE+X39WL5w624hE4/Q8HtfXLaDl+POnDP/Ibpcy1bcSbnWu/Wn6sf3zPY39081yQ/BU/vnPBf/LY1vmTf1De9V2fKB/ux9P+k8mJx9jUfbU/tluvo2k/WX+kH+ePv7n89W+N7rQfbfNE37Hu7aXsqrZjvujzj8v5Y4/v6dbzyX5pse0FAABY2PzPbcdN3Bz1ey+c/7kp8uO31eaMPmstZPxz2fjnqu7zYPx22cKPOR1ZbDvHP1OFsf7HTHwma9fdf96rP0+ObV/1CNYFxrrQZ8v4HPzbL83PdvX4Dr+fasuNza1b+0SZPfh0efzRO/rcpa07//IytfqcsnbdRQL7cLoR2D86Rx3YP0YC+8uzrMD+GWbpwP6pa+nA/LHq3nyNfQFxrNo3h2XZb+QAAAA4M61UYN+jeAA45c3OzkoLJE6U+GJg9Eii+CIi7vh4088J6gMAAHBqENgHABjzsvKu37mh7Cwfa5+vv6u8rXyiWT7u/zQWAAAAjpJH8cBpxqN4jo5H8ZzaHnvqPI/imRCP4jnv3CP5KVkAAADgRPMoHgAAAAAAYB6BfQAAAAAAGBCBfQBOfbOHyqFDhxb8AdkzMcW+iH0CAAAAnJkE9gE45a1d/Ux59tln+yViX8Q+AQAAAM5MAvsAnPKet/bJ8tSTf1e++c1vdnern6Fi22MfxL6IfQIAAACcmaaenLl7tp8HTgPL/eXtcw8+1C8RVn3pK/3cyjr0khf1cyzlW7NryjcOrivPHjq7zJapPvfMMtVs+ZpV3yzPWf14OWvKv2AAAACAU81yY3Pr1j5RZg8+XR5/9I4+d2nrzr+8TK0+p6xdd5HAPpxuBPYBAAAA4ORYqcC+R/EAAAAAAMCACOwDAAAAAMCACOwDAAAAAMCACOwDAAAAAMCACOwDAAAAAMCACOwDAAAAAMCACOwDAAAAAMCATD05c/dsPw+cBp5avbGsX7++X1rYgQMH+jkAAAAA4HhaTmxu3donyuzBp8vjj97R5y5t3fmXl6nV55S16y4S2IfTzXIC+wAAAADAyXE8AvsexQMAAAAAAAMisA8AAAAAAAMisA8AAAAAAAMisA8AAAAAAAMisA8AAAAAAAMisA8AAAAAAAMisA8AAAAAAAMisA8AAAAAAAMy9eTM3bP9PHAaeGr1xrJ+/fp+aWEHDhzo5wAAAACA42k5sbl1a58oswefLo8/ekefu7R1519eplafU9auu0hgH043yw3sn3vwoX4JAAAA4Mg8e+is8nfPPLc8c3BtmS1TfS4rYarZ42tXP1Oet/bJsmbVt9o8x+PkmTwey43NCewDYwT2AQAAgBPpW7Nryt8dPK8859znljVr1pRVqzzteyUdOnSoPPvss+UbTz1Znrf6sTbP8Th5Jo/HM2dduCKBfUcZAAAAAFi2bxxcV8597vPK2WefLYh8EsQ+j30fxyCOheNxck0ej5XiSAMAAAAAy/bsobPbO8M5ueIYxLFwPE4NeTxWisA+AAAAALBsh/oHe8/OzkonMYU4Fo7HqZFCHouVILAPAAAAAAADIrAPAAAAAAADIrAPAAAAAAADMvXkzN0r+OQf4ER7avXGsn79+n5pYQcOHCjnHnyoXwIAAABYvgPffEl5wQte0C+thMfKJ3/2X5Wb9z/TLy9kbXnF1b9aPvhPz+uXzwxf+9rX2umJPh6P/cF15V/9x8+Vwx6BTe8sv3rDm8p5q/uMU8z9//HK8m/L/1xu+5ev7HOOvzge55577rJic+vWPlFmDz5dHn/0jj53aevOv7xMrT6nrF13kcA+nG4E9gEAAIAT6atPv3iFA/v3l5u33l1eN/3OsnBINsrfU26P4P47biofOGxw/7Fy+3VXl5sf6Bd7V/z8dHnnq7r5x37/3eXqj36uW5jzivLOj36gXPGifrGxcL3Gy99ZPvLBK8pKfMWwUoH9+z+8tdx96WgfTYry9/xBF9y/6X9utv0wwf1F99sC+/h4asdYfrFMv+vEBvaf+9znrkhg36N4AAAAAIDTwDPlcx+9prz79x/rlxf3ind8pExPT3fpo+8sn/93W8fbRXA+yyP9/MvKze/YWrZ++P6+Qm+yXqQVCuqfip7Zf3O55t/eXh472GcsZqH9Nn3igvqnI4F9AAAAAOA0EcH9j5eJ8PvhveiK8q/f8Yryuf98b1n0K4FXvbP9AuAVf/CecvNn+zwWFMH9j/9Fv3CifOX28u6tW8vWJi3ni5zTkcA+AAAAADAw95fb/7+3l/sfj/lXlnfO3fX9i+WKtvwEeNEVZdsbS7n9d25f/AuAM9Qr3zW68/4Xm3109OKxSlvL1uvqfRyPT4og/s3tFzbxSJ2t77i5vOznu/Vt+8LVo+D+Z29ug/1zafJfWJxGBPYBAAAAgMH528efKc9b2y8ci8/e3D7z/YofWfoROud95yv6ud4DTds6kHyaB5PDk3/yH8oP//AvlP/89W756/+/X2iW/0O5+8lueVkW3W/xJc1HyjvLzeWX+2D9Y7//y+Xml/1imY7fWGiO1Xv+IJ7FP3ref3yp0P6uQgT1/93n27LuS4amn8+/57S9o19gHwAAAAAYmFeU737+18sz5/SLR+hzH716FFDug8GL/TDsYS30rPgT+OOsp4Lnfv+Plp/Y+Bflw799b3nyyXvLnlv+orzsqh8tr3tuX2E5DrvfzitX7HxnKR/95XL7Z28vv/yFbXNlj33h803bHyivnvcs/sfaf0nxinf86+o5/U0/P3LF4R+xNGAC+wAAAADAss3Ozq54mrfeb32+PPrw/eUzn6vy+jSv7mRqyl/+jpvLxz/+8T79UnnjC+vyqFEtV2nm0c+VctFLy4ti+TD1Tr/U7tR+/kXlje/64fLt+24s//a9N5Y/fv4Pl2t+8EV92WTdBdJy9tsL31h+5h2z5eZ/d3OZ/c5R32P7fyzNlEcfmPjCpv3S5vZSHni0zLR1lhjXcUorRWAfAAAAABiUJz/9mbL2//mL5Xv//CPl9ge+UD7/F/eXz3/9mb70BPnK7WXPH5ZyxaWn9x35y3LBlvKWV329fP6hr5dXbt1SvnN1n39cfXe5+n1Xl/LR6WX/GPIV78sva+p0dTkdj5jAPgAAAAAwHAcfKB/7/QfK3/7p3vKVF19avvPx+8vt/+d0+fiHpssDfZXj7bFPvru85eqPlPKOm8vVR/PIntPNI3vLxz/7neWVr/r2cv/03vKFg33+8fKV28svP3ppueJVV5RtP3R7eW//uwWvvPSKUv7w0wsE+l9ZLv2hUm7/9On9+wY1gX0AAAAAYBCefOj2ctO//Xg572d+ofzE27aWLZe9srzy+64o1/y/3lP+9ft+uLy8r3fMHvhIeedb3lLe0qd3/ucfKDd//OPlA29a6ud1zwSPldv/4++VJ990dfm3P/sz5Yr//nvlxj8+wqfYT+zfLr273P6VKLy/fOTq/1R+4J9199m/8p9dXV7+h3u6sldtLVe//Pby3rm63Zcu7/7kY32995a3VD9efP+H39KWnY4E9gEAAACAAXigfPxX/1N57tuvqX4g9fg7700fmP84lw9cUYT0O0/+yZ7ym//XM+Xrn3xv+c3PvbL88FXfW/7bLXvK3U/2FZaw4P5t0wea43p/+chb3ltu/6Fto2P8orhr/4Hykas/Uu6PH8T9QFP3fd/dLPdfujy6rfvCpan3gY/fXK7+b++d+7LgveUXTtsvY6aenLl75Z7oD5xwT63eWNavX98vLezAgQPl3IMP9UsAAAAAy/eVb2woL3jBC/qllRDB3k+XS5f1rPQjqTt8X/va19rpiT4ecef7py/9+LIeQ3QkdU83cTye97znLSs2t27tE2X24NPl8Ufv6HOXtu78y8vU6nPK2nUXCezD6UZgHwAAADiRHnvqvBUO7D9W/uD/vb185P96tl8+vDX/j6vLjf+fN54Rd9ivVGD/sT/82bL95gfKso7AmpeXq2/6pfLGE/ivKk5VcTy+7du+TWAfOHIC+wAAAMCJtPKBfRazUoF9lmclA/uesQ8AAAAAAAMisA8AAAAAAAMisA8AAAAAAAMisA8AAAAALN/soXLo0KEyOzsrncQUxyCOheNxaqS547FCBPYBAAAAgGVbu/qZ8uyzz/ZLnCxxDOJYOB6nhjweK0VgHwAAAABYtuetfbI89eTflW9+85vdXcqsqNjnse/jGMSxcDxOrsnjsVKmnpy5e7afB04DT63eWNavX98vLezAgQPl3IMP9UsAAAAAR+Zbs2vKNw6uK88eOrvMlqk+l5Uw1ezxNau+WZ6z+vFy1lR3p77jcfJMHo/lxubWrX2izB58ujz+6B197tLWnX95mVp9Tlm77iKBfTjdLPePxze++pl+CQAAAAA4Hp7zwtcI7ANH7nS+Y/9rf/vfywu+4/n9EpyanKcAAABw5lqpO/Y9Yx8AAAAAAAZEYB8AAAAAAAZEYB8AAAAAAAZEYB8AAAAAAAZEYB8AAAAAAAZEYB8AAAAAAAZEYB8AAAAAAAZk6smZu2f7eeA08NTqjWX9+vX90sIOHDhQzj34UL90lA78afk3P/bZ8gO//dPlny66us+Xm974h+W7xuo8Xn7/Pf9LKdcert3Cvva3/7284Due3y8dmb/8jZ8u7/rf+4UJ/3zXr5VrvqdfaCxe9++Xnz3s9sKpfZ7+7f/5a+XKX/nLdv51P/NL5d//j+va+fZ6/lApP/eL/6h8R5sR1+nPll/6TLswwXUAAAAAi1lubG7d2ifK7MGny+OP3tHnLm3d+ZeXqdXnlLXrLhLYh9PNSgX2u6DiUgG+COx/tlz+B/+s/P0+52QF9hcT23HHpfMDppN5sFyn7Hn6V/9Hef3/tqHc1gbvJ750mxfYX8xCX9YBAAAAaaUC+x7FAxyxNqj/Nz9abvvtV5X/9GM/XW76q75g0oGZ8vBrNpSX9IvAyfOXn95b/vk/z8D9y8qP/EwpvzT9+XZpvvgC7qfL6984mXaV/62vAQAAAJw8AvvAMsWdul1w77fO/6VyV9zZu/4flX//B79WLv90H/R7z5+Wv+1rh7/9s8+Wuz8zU74UC3FHcNt+scd7nEiLBSm7f3XwXef11eCkOpHn6ePlb/5mvI/veOmGfm4x8S9yfq3c1Vzj48nd+gAAAHCyeRQPnGZW7Bn7S+ofuXPZhvJLj76q3PWTLxvPPyUexRNj2Vu+6xfrRwV5FA/H5tQ8Txe47upH8xzRM/bnP+8fAAAA6HjGPnBUTlRgP+4kXs6d9vmDnO2PdD76Q21APwKQcZd/90OdJzewH+N6f/nRfiyfLze9Z6b8yMRzxdtHDfnxXI7SqXqeTn4RUF+jy3/GPgAAAHA4AvvAUVm5O/YX/xHNNmB456v6H+kM/d2/37Wz3PWT60+dwH7csfzp+l8TwLE7Zc/TZf54bonr91f+smtzOK/50faRXAAAAMDISgX2PWMfOL4O/Gl5/1hQP6wr//QXf63cdWkpywgXrpzv+WeC+pz6jtd52vRz22WfLVe2z+3fVR7+mR9d8Mu17/gff3qB5+ovkAT1AQAA4KRxxz6cZk7oHfvH5XEdK/wonrhLeefefuEwXvOj5bcu+2z5cXcqc4xOpfN0/Au2wziiZ+x7JBUAAAAsxqN4gKMisA8n1yDP0wUD+wtdp0d//QIAAMCZwKN4gFPTZ/6X/lEek+nXyu8f6OsAp4G/LL/0Y5PX+WJ38QMAAAAryR37cJo5oXfsn2Tu2GcInKcAAABw5nLHPgAAAAAAMI/APgAAAAAADIjAPgAAAAAADIjAPgAAAAAADIjAPgAAAAAADIjAPgAAAAAADIjAPgAAAAAADIjAPgAAAAAADIjAPgAAAAAADMjUkzN3z/bzwGngqdUby/r16/ulhR04cKB846uf6ZcAAAAAgOPhOS98zbJic+vWPlFmDz5dHn/0jj53aevOv7xMrT6nrF13kcA+nG6WG9hfqs6paKjj5sziPAUAAIAz13LiAscjsO9RPAAAAAAAMCAC+wAAAAAAMCAC+wAAAAAAMCAC+wAAAAAAMCAC+wAAAAAAMCAC+wAAAAAAMCAC+wAAAAAAMCBTT87cPdvPA6eBp1ZvLOvXr++XFnbgwIHxOvfuLpuvmy5bP7iv7Hh1n3cKmjfuE2jm1u1l2037+6XOpmv2lBvfuqFfuq/s3ryzTPdLna1l174d5ZJ+aTGTfS/V76h8oXU2rtxV9l17SbnvQ5vLztv6vNb88XTrLmXHnhvL1qbLhbZzzqYdZc/1pdxwQynX37i1zI1wYj1j583MdNm+bXfZ348pRZs7X7/E+dWfh52JsZ+IshOkPk+dR42VPo8AAADgJFpO/CrqrFv7RJk9+HR5/NE7+tylrTv/8jK1+pyydt1F7tiHM10E5DbfdWHZsanPYE4EQvft29enXeXim7aVzduny0xf3gU8s3xf2XXldNn5ofv6soVFYHLbp7aUPXPt9pQtn2r6HWtX99utd/e9fdHEOttUBT4jODqX/8FSdo6Nd6bc86mmzpWl7L27y93w1hur+lu74G4uV0HYzkyZ3r657CxVnWZ85brNZfuto7WUTZvKpttuKdNV1tLuK7uve7Ds2NP1u+eaB6t9eSLKVo7zaCXPIwAAADgzCOzDGa4NyF372n6JxV1SduzbVbbu310+NhccHffiC5b4dmRmutxy29ayayzQuaFsvbHpd9EA5iXlbddsKtN3HUVA+tWXNeN9uHy5Xywz95S9G68qO96+pZRP3VMFapfp3o+V3WVH2VMFgNv9smdHKTd9rIxGuKVcdU0pu3/3CMZ8751l+sqr2ru/w4a3NvO33dn1eSLKThrn0Qk9jwAAAOAMIbAPnHbe//73l82bNy+YouzoXVIuu7IsEhzt7mLe8fY6WDlu5u69Zf+VlzW9TIp+98/d/XzcRGC7PFge6buN9V/8+mbtG7aWqzbuLfcc4eruu2u6bHrDayfuvm5seG3Zsmm63FkFql/cBtGXf7f1zCMPlk0XvLhfCi8uF27qxn4iyk4u59GJOo8AAADgTCGwD5x2/uW//Jfl+c9/fr80EnlRdizG76aeLjvnvjTYVnYv8ojxYzIzXW64aX/ZGoHUVr3OLo0er9KUXleVtb+b0D0DvQsYX1wu659NfsnrLz7+AeAxcYf48u+2/vIj+8vFF9Sh3g3lgo37y8NfPDFlJ5vzaLmO7DwCAACAM4XAPnDaWSyAv1jA/0hEsHhk/DnleyIAuW33cXjUSxV0bfq7eOxHjec/G73+IdF8Nvqeaza186MfI72n7N1f9XvddNl/NI9ROQLdo2+Wd7d1BLofHLuVfqY88tCmcuFLT0zZyeY8Wr4jOY8AAADgTCGwD5yWtmzZ0qY0uXx07it33laqu57HtQHI6pElkza8bkvZtOAz3qPfTWXL6/Lu8vGgax1wXa4YS7luFBxuH5/SB2sz7TrCx6hc8vqtCwdx22Dv1rm7uEeO7G7r/Y/MPcW98eXycBX7PhFlJ4/z6ESeRwAAAHAmENgHTlt5h/7xeARPBE13b95Zpq/ctWiAdObWW8r0pi3ltfXTX2rxTPIrp8vO7dNVUHOmTG+Pfq+a+5HX4yOetz5dbrk11jT++JQUj1E5omDpq99WdpTdZduH6jbNftm2u5Rr3tascb682/qWh/qMRXTB6tFd2fW+PBFlJ4/z6ESeRwAAAHCmENgHTlsZ0D/aR/Dsv2lb97iRNu0sJe5UvrYOO1aPJGnStpsuLrtu3Dr/R0Erl1y7r+x5w96yba7dtrL3DXsm+j2c8XW2aSxAOnLJ23eU0mzDu37+fWV3ubDUPyPbeumFY4HvpW0oW2/cV3aVndX6u/1y41sX2+rubuv9S90pv2FrufGDF5fd27p+x/bliShbQc6jSSfwPAIAAIAzxNSTM3fP9vPAaeCp1RvL+vXr+6WFHThwYMk6p6Khjpszi/MUAAAAzlzLiQtEnXVrnyizB58ujz96R5+7tHXnX16mVp9T1q67yB37AMfdvburO5H7tMjd0GeamVu3z9s329vHvDCP8wgAAABYhDv24TTjjn04uZynAAAAcOZyxz4AAAAAADCPwD4AAAAAAAyIwD4AAAAAAAyIwD4AAAAAAAyIwD4AAAAAAAyIwD4AAAAAAAyIwD4AAAAAAAyIwD4AAAAAAAyIwD4AAAAAAAyIwD4AAAAAAAyIwD4AAAAAAAyIwD4AAAAAAAyIwD4AAAAAAAyIwD4AAAAAAAyIwD4AAAAAAAyIwD4AAAAAAAyIwD4AAAAAAAyIwD4AAAAAAAzI1JMzd8/288Bp4KnVG8v69ev7pYUdOHBgvM69u8vm66bL1g/uKzte3ectaKZMb99WdpcdZc+NW8uGPnelzBv3STRz6/ay7ab9/VJn0zV7yo1vzb1yX9m9eWeZ7pc6W8uufTvKJf3SYib7XqrfUflC62xcuavsu/aSct+HNpedt/V5rfnj6dZdyo49N5atTZcLbeecTc15cH0pN9xQyvXV+TC5nrHzama6bN+2u+zvx5SizZ2vX+L868/TzsTYj7asMbnNx2r+eTr/uHT7ZIHjVe2Xhff9prFxHvHxuvGC8rHDnCMAAADAsVlO/CrqrFv7RJk9+HR5/NE7+tylrTv/8jK1+pyydt1F7tiHM10EAjffdWHZsanPWFQEIW8o5Q1b+2UioL5v374+7SoX37StbN4+XWb68i6InOX7yq4rp8vOD93Xly0sAtzbPrWl7Jlrt6ds+VTT71i7ut9uvbvv7Ysm1tmmKmAbAeW5/A+WsnNsvDPlnk81da4sZe/dXe6Gt95Y1W+OfQSAc3nelzvxxc/msrNUdZrxles2l+23jtZSNm0qm267pUxXWUtrzr/rHiw79nT97rnmwWpfHm1Zt79vKFuavXaCxBcZm3eWByfOlfKbud8nzpFm79X7avwci1R/+XC0x+vw5wgAAABw6hPYhzNcGwi89rX90uFcUnZEUPGCfpEJsX92la37d5ePzQXZx734giW+PZmZLrfctrXsGguYbyhbb2z6XTQQfkl52zWbyvRdh//CYEGvvqwZ78Ply/1imbmn7N14Vdnx9i2lfOqeKuC/TPd+rPvXHGNB4ma/7NlRyk0fK6MRbilXXVPK7t89gjHfe2eZvvKquaD2hrc287fd2fV5tGWNS67dV25864k7qe/73d2ljP2Li9Dsk0X+xcslr99a9j8yd0QO71iPFwAAADBYAvsAx80l5bIryyJB9u7u6h1vX/zO6Jm795b9V17W9DIp+t0/d1f2cRNB7/JgeaTvNtZ/8eubtW/YWq7auLfcc4Sru++u6bLpDa+dH7De8NqyZdN0ubP6wuPFbYB9+XftzzzyYNl0wYv7pfDicuGmbuxHW3bi3VfuvG1T2fK6hUL4C4t9WB56ZFlB+mM9XgAAAMBwCewDHEfjd+VPl52bN5fNbdpWdi/y6PNjMjNdbrhpf9kaAd5Wvc4ujR7T05ReV5W1v6uQj3aJLx4uLpf1z7i/5PUXH/8vEsbEvzRY/l37X35kf7n4gjpAvqFcsHF/efiLR1+2Mi4uY6ufZ/x47Zz4Fxv74/FOVfnoUU/HcrwOf44AAAAApz6BfYDjKALJI+PPMt8Tgextu6tH0hytKjDb9Hfx2I8ez39+ev2DtPmM/T3XbJr4Udt7yt79Vb/XTZf9J/jxLt1jcZZ31358YfLg2G32M+WRhzaVC1969GUr48El/nVAHq89ZcemmB//Yd95z9jPoP8xHa/DnyMAAADAqU9gH+C4iUevlOru+XFtIPswgd4Nr9tSNlXPfx+ZfKTLeGD2aIKyMZZy3ehLhvaxLvUP6zZp1xE+3qV9PvxCweU2CL117u7ykSO7a3/82fNfLg9X36EcbdmJdSSPUNpQtv6LsuSPK6fjcbwAAACA4RLYBzgu7iu7N+8s01fuWjTQPnPrLWV605by2sUezRLPSr9yuuyce9xKmCnT26Pf0Q/AHh8RdJ4ut9waaxp/rEuKx7sc0Q/cvvptZUfZXbaNBaeb/bItfkD2bWN3oqe8a/+Wh/qMRXRfeozu7q/35dGWrYRL3h4/HLxt4lE3zT4ZO8a9+DHjZf0LhuN0vAAAAIDBEtgHFnbvbs/eXsL48893lhJ3UF9bh6/Hn2W+7aaLx56fvpBLrt1X9rxhb9k2125b2fuGPRP9Hs74Otu0yF3gGXR+18+/r+wuF5b6J2ZbL71wLCi+tA1l6437yq6ys1p/t19ufOtiW93dtb9/qbvoN2wtN37w4rJ7W9fv2L482rKVEOvft6uU+rcNNt9SLrx+oTH0/4Jh2/a5fT7vGfubt5ff/q0bjvF4Lf8cAQAAAE5NU0/O3D3bzwOngadWbyzr16/vlxZ24MCBJeucioY6bs4szlMAAAA4cy0nLhB11q19oswefLo8/ugdfe7S1p1/eZlafU5Zu+4id+wDrLj+X0O4Y3q+mVu3z9s329vHBQEAAACQ3LEPpxl37MPJ5TwFAACAM5c79gEAAAAAgHkE9gEAAAAAYEAE9gEAAAAAYEAE9gEAAAAAYEAE9gEAAAAAYEAE9gEAAAAAYEAE9gEAAAAAYEAE9gEAAAAAYEAE9gEAAAAAYEAE9gEAAAAAYEAE9gEAAAAAYEAE9gEAAAAAYEAE9gEAAAAAYEAE9gEAAAAAYEAE9gEAAAAAYEAE9gEAAAAAYEAE9gEAAAAAYEAE9gEAAAAAYECmnpy5e7afB04DT63eWNavX98vLezAgQPjde7dXTZfN122fnBf2fHqPm8B931oc9l5W7+waUfZc+PWsqFfXAnzxn0Szdy6vWy7aX+/1Nl0zZ5y41tzj9xXdm/eWab7pc7WsmvfjnJJv7SYyb6X6ndUvtA6G1fuKvuuvWT8+LXmj6dbdyk79txYtjZdLrSdc+IcuL6UG24o5frqXJhcz9h5NTNdtm/bXfb3Y0rR5s7XH/78y/O0MzH241K2aW67j0V9nsb+u6FcXx2/RuyD3Ge5P/qiMLe/Fihb7LqbPG7zj3Ul9v3bH5nfd2P8XAMAAACO1HLiV1Fn3donyuzBp8vjj97R5y5t3fmXl6nV55S16y5yxz6c6SIguPmuC8uOTX3GIqJeBF737evSro27yw23zvSlZ6YIgub+2LdvV7n4pm1l8/bpMtorEUSu9tmV02Xnh+7ryxYWAdltn9pS9sy121O2fKrpd6xd3W+33t339kUT62xTFUCPoPFc/gdL2Tk23plyz6eaOleWsvfuLnfDW2+s6m/tgsK5PC/APFOmt28uO0tVpxlfuW5z2V6fK5s2lU233VKmj+j0ua/svu7BsmNP1++eax6s9uVRlkXg/K7L+nE26YMXl9031PtjhUSwPsewZ0d58Lrto31TlzUprrttm6vy1vzjdsm1ozZ7rmn2d32u5vkw0XckQX0AAAAYBoF9OMO1gdtrX9svLS7q1XdTv/iCJb4JOONcUnbs21W27t9dPjYXZB+35D6bmS633La17BoLmG8oW29s+l00EH5Jeds1m8r0XYf/wmBBr76sGe/D5cv9Ypm5p+zdeFXZ8fYtpXzqniMPcN/7sbK77Ch7qi8S2v2yZ0cpN32sjEa4pVx1TSm7f/cIxnzvnWX6yqvm7qbf8NZm/rY7uz6PtmzD1nJjPdaXXlhO+lndjOmqK/fPBegnRcB+V1M+tu+O9bgBAAAAgyOwDxyF7g7hLa9zd++4S8plV5ZFguzdPtvx9jroPW7m7r1l/5WXjR4TMyf6XTzYe9Qi6F0eLI/03cb6L359s/YILm/cW+45wtXdd9d02fSG1857TEzZ8NqyZdN0ubP6wuPFbYB9+XftzzzyYNl0wYv7pfDicuGmbuxHWzYptr8sNP5TzCWv31pKfjnRONbjBgAAAAyPwD5wxO770Lby8L849meRn47G78qfLjs3by6b27St7F7kUfXHZGa63HDT/rI1Arutep1dGj2mpym9riprf1chj2N88XBxuaz/VxmXvP7i4/9Fwpj4lwbLv2v/y4/sLxdfUJ9wG8oFG/eXh7949GVj7t1dtj1y1cl/FE0zjp23bTr8l2Zj/7LgGI7b/nisT3U+zHvEDwAAAHCqEtgHjkg8a/+WC/Yc/kdOz2ARSB4Zf979nghkb9tdPZLmaFXB+6a/i8d+9Hj+M/brY5XP2I/nro//qO09Ze/+qt/rpsv+E/xYl+6xOMu7az++MHlw7Db7mfLIQ5vKhS89+rI58az937xw4hFCK6gOsLe/B7DEl2ZffHj0o7fHctzmPWPfl3UAAAAwFAL7wLJFUP+Gcr0f2FzUfeXO20p19/y4NpBdPfpm0obXbSmbqkesjES/9V3c48H7o/mSJcZSrht9ydA+zqX+Yd0m7TrCx7rEI2IWDCq3weetc3eVjxzZXfv7H5n7NYDGl8vD1XcoR1vWBvVvKOX6eT8EfPyMr38BYwH2pYPr8cij0j+y6XgcNwAAAGB4BPaBZRHUX8p9ZffmnWX6yl2LBtpnbr2lTG/aUl672C5sfzh1uuzcPl0Fx2fK9Pbod/QDsMdHPLd/utxya6xp/HEuKR7rckQ/cPvqt5UdZXfZ9qG6TbNftu0u5Zq3tYHoSXnX/i0P9RmL6L70GN3dX+/Loy1biaD+5PpjX0/f0OyPo3yW/30f2lx2xg8st/+64DgdNwAAAGBwBPaBhd27u320R/d89ggg7i/7b9rWPe4j01gA+swzvj92lhJ3To89zmX8effbbrq47FoiiHzJtfvKnjfsrZ59vq3sfcOeiX4PZ3ydbRoLtI9c8vYdpTTb8K6ff1/ZXS4s9U/MtuJZ7mNB6aVsKFtv3Fd2lZ3V+rv9svgXQt1d+/vru+gXsmFrufGDF5fd27p+x/blUZbF3e77T/Rz5mP9e7aUvf3683gu+wuyifHtbPbuvn07urv1b73h2I7bvG3fXLa3X/QAAAAAp7qpJ2funu3ngdPAU6s3lvXr1/dLCztw4MCSdU5FQx03ZxbnKQAAAJy5lhMXiDrr1j5RZg8+XR5/9I4+d2nrzr+8TK0+p6xdd5E79gFWXP+vIcbSInfVn2nikU+T+8Zd5AAAAADj3LEPpxl37MPJ5TwFAACAM5c79gEAAAAAgHkE9gEAAAAAYEAE9gEAAAAAYEAE9gEAAAAAYEAE9gEAAAAAYEAE9gEAAAAAYEAE9gEAAAAAYEAE9gEAAAAAYEAE9gEAAAAAYEAE9gEAAAAAYEAE9oHBWL9+fT8Hpy7nKQAAAHCiCewDAAAAAMCACOwDAAAAAMCACOwDAAAAAMCACOwDAAAAAMCACOwDAAAAAMCACOwDAAAAAMCACOwDAAAAAMCACOwDAAAAAMCACOwDAAAAAMCACOwDAAAAAMCACOwDAAAAAMCACOwDAAAAAMCACOwDAAAAAMCACOwDAAAAAMCACOwDAAAAAMCACOwDAAAAAMCACOwDAAAAAMCACOwDAAAAAMCACOwDAAAAAMCACOwDAAAAAMCACOwDAAAAAMCACOwDAAAAAMCACOwDAAAAAMCACOwDAAAAAMCACOwDAAAAAMCACOwDAAAAAMCACOwDAAAAAMCACOwDAAAAAMCACOwDAAAAAMCACOwDAAAAAMCACOwDAAAAAMCACOwDAAAAAMCACOwDAAAAAMCACOwDAAAAAMCACOwDAAAAAMCACOwDAAAAAMCACOwDAAAAAMCACOwDAAAAAMCACOwDAAAAAMCACOwDAAAAAMCACOwDAAAAAMCACOwDAAAAAMCACOwDAAAAAMCACOwDAAAAAMCACOwDAAAAAMCACOwDAAAAAMCACOwDAAAAAMCACOwDAAAAAMCACOwDAAAAAMCACOwDAAAAAMCACOwDAAAAAMCACOwDAAAAAMCACOwDAAAAAMCACOwDAAAAAMCACOwDAAAAAMCACOwDAAAAAMCACOwDAAAAAMCACOwDAAAAAMCACOwDAAAAAMCACOwDAAAAAMCACOwDAAAAAMCACOwDAAAAAMCACOwDAAAAAMCACOwDAAAAAMCACOwDAAAAAMCACOwDAAAAAMCACOwDAAAAAMCACOwDAAAAAMCACOwDAAAAAMCACOwDAAAAAMCACOwDAAAAAMCACOwDAAAAAMCACOwDAAAAAMCACOwDAAAAAMCACOwDAAAAAMCACOwDAAAAAMCACOwDAAAAAMCACOwDAAAAAMCACOwDAAAAAMCACOwDAAAAAMCACOwDAAAAAMCACOwDAAAAAMCACOwDAAAAAMCACOwDAAAAAMCACOwDAAAAAMCACOwDAAAAAMCACOwDAAAAAMCACOwDAAAAAMCACOwDAAAAAMCACOwDAAAAAMCACOwDAAAAAMCACOwDAAAAAMCACOwDAAAAAMCACOwDAAAAAMCACOwDAAAAAMCACOwDAAAAAMCACOwDAAAAAMCACOwDAAAAAMCACOwDAAAAAMCACOwDAAAAAMCACOwDAAAAAMCACOwDAAAAAMCACOwDAAAAAMCACOwDAAAAAMCACOwDAAAAAMCACOwDAAAAAMCACOwDAAAAAMCACOwDAAAAAMCACOwDAAAAAMCACOwDAAAAAMCACOwDAAAAAMCACOwDAAAAAMCACOwDAAAAAMCACOwDAAAAAMCACOwDAAAAAMCACOwDAAAAAMCACOwDAAAAAMCACOwDAAAAAMCACOwDAAAAAMCACOwDAAAAAMCACOwDAAAAAMCACOwDAAAAAMCACOwDAAAAAMCACOwDAAAAAMCACOwDAAAAAMCACOwDAAAAAMBJMLVqTT93eJP1BPYBAAAAAOAkOOucb+/nDm+ynsA+AAAAAACcBGuf95J+7vAm6wnsAwAAAADASbBqzbnl7Oe/rF9aWJRHvZrAPgAAAAAAnCRrnvOCcu76TeWsc14w9yz9mMZy5Ef5JIF9AAAAAAA4iabOek45++9dWM594d8vzz3vknYay5G/EIF9AAAAAAAYEIF9AAAAAAAYEIF9AAAAAAAYEIF9AAAAAAAYEIF9AAAAAAAYEIF9AAAAAAAYEIF9AAAAAAAYEIF9AAAAAAAYEIF9AAAAAAAYEIF9AAAAAAAYEIF9AAAAAAAYEIF9AAAAAAAYEIF9AAAAAAAYEIF9AAAAAAAYEIF9AAAAAAAYEIF9AAAAAAAYEIF9AAAAAAAYEIF9AAAAAAAYEIF9AAAAAAAYEIF9AAAAAAAYEIF9AAAAAAAYEIF9AAAAAAAYEIF9AAAAAAAYEIF9AAAAAAAYEIF9AAAAAAAYEIF9AAAAAAAYEIF9AAAAAAAYEIF9AAAAAAAYEIF9AAAAAAAYEIF9AAAAAAAYEIF9AAAAAAAYEIF9AAAAAAAYEIF9AAAAAAAYEIF9AAAAAAAYEIF9AAAAAAAYEIF9AAAAAAAYEIF9AAAAAAAYEIF9AAAAAAAYEIF9AAAAAAAYEIF9AAAAAAAYEIF9AAAAAAAYEIF9AAAAAAAYEIF9AAAAAAAYEIF9AAAAAAAYEIF9AAAAAAAYEIF9AAAAAAAYEIF9AAAAAAAYEIF9AAAAAAAYEIF9AAAAAAAYEIF9AAAAAAAYEIF9AAAAAAAYEIF9AAAAAAAYEIF9AAAAAAAYEIF9AAAAAAAYEIF9AAAAAAAYEIF9AAAAAAAYEIF9AAAAAAAYEIF9AAAAAAAYEIF9AAAAAAAYEIF9AAAAAAAYEIF9AAAAAAAYEIF9AAAAAAAYEIF9AAAAAAAYEIF9AAAAAAAYEIF9AAAAAAAYEIF9AAAAAAAYEIF9AAAAAAAYEIF9AAAAAAAYEIF9AAAAAAAYEIF9AAAAAAAYEIF9AAAAAAAYEIF9AAAAAAA4aab66WLmlwvsAwAAAADASmpj9UsF9Cc19fsmAvsAAAAAALCiMki/3OD+eH2BfQAAAAAAWEFTbYB+lNrlNmbf/qebtv+P5VHqlgX2AQAAAABgZU2t6lNE7/vUB+3HpnV5tmkI7AMAAAAAwEqaWl2m5lKE6Vd1d+NXgfzu7vwmvynPutEuCOwDAAAAAMAKWnXWc7pA/aqzSpmKFHfjd0H+TG0Qv5025U29qB/t2vbtfwEAAAAAgBWx+uxvb/6ztkxFwL5Na9ppF+SPgP54flvW1G/bNQT2AQAAAABgha1e+/wytWptmYoAfxvkjyB+pGp+rmxtWz8J7AMAAAAAwAqLx+qsPvs7ytTqc8qq1Wc307MXmZ7T1svH8ASBfQAAAAAAOAkiWL/m3BeXVWu+rUw187EcwfyYtstNflvezNemHviv/3W2n29NxS/u9mZnZ+eWYxrLhw4eaucz/9ChQ2X16tXtNOvHNLT1Vk2VQ/1yyUnUa6arVq0ar9u3zX7CXNveqlWxroNz5TGNdU+q++imUe9gM9az2rxoM9k2lmNMBw92/UdZLNf1csxZlnJ9kUL2nybLo232GWUhyrp6o/0Sou63vvWtsfWN6nb91f1PrjtkXqSoG8tx3LJ+mCzPMdb5Oa3HP9kul8OqZnqwycs2kZ91QvaZeVkvpqPyrt1kvRDzqe43ZD+Rl8c0+48UeVkv5vM8nswL2U/IOqHOj+nkGFKW5XykaBv9xzTbZb0sjxRjibx6fJEfol5Os20u5zTb1tubfU/KdiHK635iOceW+W3fZzXjav4uZP3sN679ejnlco4jZJ+xHCn778pH7XNfZHlMc5trbbuqTsj9kPOjtqMx5HHPsliu17FqdTfmLMuR5Zgjhew/TZbndoRuG7v1Z73MC/E3r77+o4e6bqj779Y9/p1t/Xc76kad2BdZP+R1luU5xsiL6zjXEdN6/JFXt8t+sizysk0uZ3n2mXlZL6Z1eaa5tn15O9+IpbrfkP1EXh7TWF7d5EdZfT3ktR59jPK+1eTF60V9To72Vxjlj7Y1l0dG2xhiPlI7lmadMc12WS/L2zrNWCKvHl/kh6iX02ybyznNtrE9IfdL9lHLdiHK4xoOkR/LObau3ug8imlbP9bX95v1xtczWm+OI9R1s58yNX+M0aYbQ7cc9WJ5pKvf9tGOvesr5rqxdtdF10e07c6BqBB95rkQ53uUxXJdL5a77e7KOt04o0077ra8uX76+bZGu03Rvsub246+beRF266frn6b1/w32rTX/+puO0L0lXXD7Gwel2a+3bYuP/ZhzMZ4s7yp3C7Hcctti+wo68ZwqB1b7Ku6Xbe+KB8dh9CVd/m5XyNlWeS1bef2Ze6brs/Mi2msO+p129+U9/sl06heVx7zKceasp/I667/fhua/Ej19f+t9vofbVOWxz5qhjDXT8g6oc6PaYyhXdGErmxyf8W1XV//438fm+y2LMYSeXPXWdNH5Hd9tZO2frbN5ZzG3/7u+o/tjde4bt3xv3bj5oy2JUSdup9Yft7z/353DvbVYhjttdKPZ1K2W1D0HWXZYUybxfaY9yvoxjgy6q8rjy4WW/ecqBSaev/98f3tbO7jeG+aYjmPe8xHnViO9rlfJ1//U+6rdnzNcvaf6vKQxzTk/mnb9vUyL/ZA9/r/7Nj64lzprvkur+5/ct0h87LvWB5d//PPy8jLMdb5q9r19udkc14t1C6Xsyzysk0uZ3nkx3z3N6tfR39NxI7M8kjteVbVCzGf5tbdL8f6sv3Bb43azX/9766N2B+z/TZleXv9N6Jd9zdrtL/q8YWYdmMYHafUbPlcu3aMOZbm/UVM58Y+10dXHud295l3dP3nevvO4j9jbbvs0ZgOHureZ4y2tzl2TfvsIuRsPfao0+3Nvu9meTTOZt9GnX5c3We8bn0xtijLevX1GXO5mMenXUtbN9r2623mQ5an9rj0Y5gbV6y7LR3Va/dPVSfkWEP2kfsrxHIe9xh31Inlul6OOZZjvtNtc9Sr15XzIbcp86Jt9tmOtRFl2U/mhag7dv03XdR1Q73+yXVHT5kXKerGcuyLNj7Tj2OyPMdY5+e0K+vOp8l2uZxlkde2af525nKWZ5+ZN+/1vy9vUzvW7m9zlsd8O23Swq//Xb/dMR31H6/1o+uhK5+7vqq8s/rzJfuJFeV2h7a/HENbNtq2eO+V2nWP7a9u22Kd0Ue0i3VGWb2NOd4o78bXlDV9zNv+ZtKtY3Qs8zyJNtF2tL39ddf30fTWT/t2vSgf9R99j45vbnM3rrPaadaPerHymG+X59YTsnw0jsm6zSa38yHLU7svDtbj6q+jtstRvW4s3fXS9Nz+N/dhzkcf3WtY9pXXf1PW14nluXU0ujE3293UifnUrS+2octr++/7DTmeHHe7HX2f3TZ2689+urxR3WePS/yvW3/U7c6Js/r6k9dxv33tNdL1FddeHLecRtnyXv+77YyyGH/k1+PLcWde1otpU9r+3YxzLceef7e78m7dKfrI8zLatu/V+jGPrv+u/0j19TD/+h/lhRxnyDph7u9CI6b1ttViXNkuyiNFn9F/TLNd3Ufk53gjL/4W5T6P/BD1uulo34ZV2TArhMmV5ApiOf84T3ac2jp9f1E387KPSDHAqBOybqRcV65/9AI+2pAMTmRfuSExn+sJ2V8G8kOeZNkm6sT658bbTHPd9biizzgAMd/1ORp/1lnucoj+8qTKcY/qdyd1jiPkeLNu5oe6LPvN9in7ipR95PrqshDtY/6ss7o3nFEvy2Kaed1yvEB29eZS/0c724SYn1xfqPPr+tFPLmf/oZ5Gu7rPyX4jteNpUm5TyAspAiUp2kZfWSdkXvadebnuXEeOI8piOc+TkOVZN0UfIerG2LL/yXGFaJ/TKM9+om2o+80xhFxH9J/jC1EeZbktkXKMKfuJVNeL5awby6FuF+o6Mc287CNSff1k3Ui5rnxjk+MIub7YnpB9RZ1czvWEbJ9vzELmZZtYjvXHB6ecz3XW44o+48uLmI8/rPX4s85yl0P0V2/HZP3Iy3GEfOGN/O5FrjpW+Ye+ue6y32yf2r76N42T68v1xLUc4u9rLK+prv98scz29VhjX0RenbIsxfzk+kKdX9ePPnI5+w/1tB1X3zZeJyb7jRT1IsU+ybI4HyJvedd/90Y65jMv32jnOnIcuf4Yb/aT5Vk35XZE3Rhb9j85rhBBiBD9RHn2E21D3W+OIeQ6ov8cX4jyKOu2pds/OcbU9hPnS5Pi/MpzK+pk3ey/bhdiOcacdTMv1xUpxp5l2V+kHFNuR6w7piHXV183WTeXcz0h+xt//e/ysk0sx/pzDDGNsjjf63FFn6M3wcf3+s8P/HX93K6YDzne9k1q31+aK2vaZL/ZPmVf2XdMc31RVv9NifYxf9aa5bz+nxrXf/TZ9TvqK1LUi5TbFLK/+jqrAzip3S9NXvadebnuXEeOo1t/tz/qv5d13RR9hKgbY8v+J8cVon1Oozz7yde13OaQYwi5joPfOsz131/XOcaU/URq6zV1ct1ttUhd99VH106Ut3Xa+W6m7ju0y5nX/I1pFtr/NyuJ/3STZrldZ66hX9+h/v1llzE632KxrZvFoZmPQHQttqfeF7Htuf25n3I+ppFiHe3rf/w9bMrbY9yUZx9ZfznLIfrL6z/3a10/8nIcoX79j+M9fsyzrDtOR3P9Z1mYu/4Xef/fftCuxhr7JerVKctSzE+uL9T5df3oI5eP7Pof9Rsp6kVa6vqPttFX1gmZl31nXq4715HjiLJYzteJMFceddvzvBN9hOVc//HFX4h+ojz7jv0ecjnkGEKuI76wzPGFKI9jmNsSKcoX6qetW9WL5ayb/dftQl0n3j9lXvYRqb5+8r13pFxXrj+nIddXXzdZN5dzPSHbx7pS5mWbWI5xjMZ7mOu/6Sfms88cf9ZZ7nKI/urtmKwfefkZKOR427pNvcm/+SHKst+ufZcfcpuy73p9+R4r15XXyvI+/x/B638fC8qxhDa/6itFH7mc/Yd6Gu3mtqHpc7LfSFEvUm5TyP4iUJqibb2dIfOy78zLdec6chxRFst5noQsz7op+ghRN8aW/Uf+cl//o22o+80xhFxHfJ7L8YUoj7Lclkh5DabsJ9Jcvf69Z/QVf8+y/7pdaOv0McIce8znuiLF3656u6I8Uq4r15/TkOuL9zMh+4o6uZzrCdk+91PIvHzNjOV2e/oxxDTXWY8r+szjmn1GefaR9ZezHKK/pa//0bbHfMi6mR/qsuw326fsK/uOaf5tzr8z2Wfs35hv3/83x7w9lv1rV0wzr11u6sW+yHVnyrIU87l99XbV+XX9HGNog9l9n9l3TOMzZn42jj4j1e+7I+X729ymkOM9ca//49d/exNBXzfldkTd5V7/0U+U57GItqHuN8cQmnXmyd5tSMg/6pFyoFkv1AMJsRzzuYGhne+DTnkx5gWf7XIQ9XLMr1mzpl1uD2rfX9ZdaBopxx7TXI6x50WcMj/q1OuNVL8ARFnuvBDjyH4nd37UjZR9RHn2PSnHGXXr/Zj1c7xRr64bKcaT9WI55qNO9JN16za5PZmyXr0c6rFmfrStj32m3CdRJ8b67LPPtH1GH215/0c7+/5Wc+zzPJiU611oXaHrt9vvUTf6zLKQ64h6maJe9pvTuk3kxXJ9bKNdyLJarjv7SpEf68+yPDaTdes6IccZYrsjP/rKVI8rlkP0kSlEm5jP8mxbq8eQ50HIdjGGbJd957iO+PqP4F8zH+2zLK71nI/1h1xntov5UC/H/Jo1a9vlWHf2kXUXmkbKsec6Yhp/PyJoU4v83KZ6vZHq/RRl9bFo3wA3f1Rju07s9d/vv6beqG63Te3+6OvFcrRp93MztnyxrfvP7ckUfUd5vRzqsca6Ij8+EMb+yxelTLlPok6kZ5/t7iSKPrI8lrPvGEPOT8r1Rp08JplC3W9Mo58sC9lv++LZp6iX/eZ0rE3fX31so13IddVy3dlXivxYf5ZFfzlf163rhBxniO2O/Ogr09i4muWQX1zk9kabmI/6IdvW6jHkeRCyXYwh22XfeQ7lm7pIGdDKeiGnuY5YjvnoM8vimOR8rD/kOrNdzId6Oebz9T/WnX1k3YWmkXKf5jpiGvvy+L3+d2XRvv5QGKJupOzj+F//3fjOavZH1ovlmI860Sbr1m1yezJlvXo55N+UkPnxni33U51yn0SdSCf0+m/Ox+w3ptFPloXsN9aXKeplvzmt22R/9bHNDwhZVst1Z18p8mP9WRb95Xy9P+s6IccZYrsjP/qq/8anHEv0kSlEm/qml679+LhzfSHPg1Cfx/V1HSnHtdTr/1zX/XT0mjQqi/o5hkNxC16ICo1sPpI50WZ0PNoPknMd9pO5zcyZZmzxv74gt6lNzXyz99v8FNuY25R9Z/16P+W2p/b1vymL9od7/Y/XzRP3+h/HpSuP5WiTXz7nB/W6/9yeTHmM6+VQjzXzF7om4/Uov1CKOpGefeZ4X//d+MLk9V+f8yH7jfVlinrZb07rNtlffWyjXciyWq47+0qRH+vPsuivm+/yUtSJ6yNeS0OOM8R2R93oK1M9rlgObR+R+s9R0SbPx5Bta/UY8jwI0U8cxxhDtsv+c1xj13+8/lf1Qk5zHbEc89E+y7r57rU31h9yndku5kO9HPtv7vW/2RfZX9ZdaBopx57riGlcL9k+dfnd+9p6vZHq/RRlea6H6Cf7XZn3/911FKJupPb6n9sf3bkedaJN1q3b5PZkynr1cqjHmvnRNvZT1s2U52fUiXQqvP+PepmiXvab07pN9lcf22gXsqyW686+UuTH+rMsxp/zdd26TshxhtjuyI++8nNW7t+QY4k+MoVoE/NZHtOcT/UY8jwI2S7GkO3iOo38HNeCr//xWtqvPz9T5zoiP+ajfdap52P9Ib9AyHYxH+rlmF+z9nhc/6vH2qcozy9f6/VGqvdTlNXHIvrp+m2u/2cXu/67u7xP1Pv/GE/Wi+WYjzrRJuvWbXJ7ujSql3n597kea5vfvLa07/8jljfXvkuRF6JO9Lf09f+tuflJud4YZ7Sr1xPiGLbb2CzHa2icdzGf8jyM9WVqX2v7fnMa526qx5miXciyWixHfvaVIj+2K8vy2EzWjTHWY8pxhtjuyI++MtXjiuUQ62n7qV//m+Usz7a19o79SO1OaSrHG9NcYcj5SNG4fkMRsl4ONv4ohMyfCw5MtMnyfJHMnRT9TK4zUr5x7d74jU7ebBdiGm1T9hGyn4Xq5DTWHXVyue67G0O3jyZPiuw3U+6LVPcR6vXkdLT9oxO8Pg6xnPMp11P3F3VyfJEf/YboK+rE8mhdo/0Yy9lHTLNu7qtsMzmmWFe9P0OWx7GPYEReWHP5zTTHFfMxjuyjHnNdJ9aV9XJsMc3xZIo6kWI+26a6XvaT+SG3MfIzhZhGnyHqZIr8rJ99xHSyvxxPpqgfZSHn6/7r8ytlebbP+UjZV64ny+t1hCzLF56Yzz6ibdSP/ZL7NNT7N+pHnewvZL0cXwQFQ36QifLYnsk22S7+iWmIfiMv+plcZ1zv2X+33PUV02wXYhptU/0HNdtN1qnbxjqy71iu+478dh81f//q4xNBiOw3U4411X2Eej05rbc/8iLVxyGWcz7leuIDcPYTdeKNS2jH2/Qb8lvrWK7XFbq+579QxItJvB6EmI82k2M67PXfjmV07Ov8HFfMxziyj3rMdZ3oI+vFfJTFNMaXxzn7ihTz2TZlnUjZT+aH3C+RnynENPoMUSdT5Gf97COm4/3FtT3+oh/1oyzkfN1//aEjZXm2z/lI2Vdud5bX6whZtuj1H2/omv0S50rkhXa+uZazfvSZ/YWsl+PL1/84JiHKD3/9L/f1f3SuZl8xzXYhpnkehewjZLuF6uQ01pF9x3Ldd+S3+6jJm/xQmP12aXQsU91HqNeTb1Tr7Y+ySLkfQiznPk25nrq/qJ9/nyI/+g3RV9tHs1yvK8QYYjn7iGnWzX2VbSbHdLTXf74pj/kYR/ZRj7l+Ixt9ZL0cW0xzPJmiTqSYz7aprpf9ZH7IbYz8TCGm0WeIOpkiP+tnHzGd7C/HkynqR1nI+br/PH61LM/2OR/nW/aV68ny3H91/XgtPZbX/8jueut0tWId3TQeJ9AZ7Y/Ju+bbTiLFbD/2brlbR/tFQLfYrqw5Em1+J6aj+XZsua74X/++I7Tb0K+nbdFvb2xTauv009gH9b6K/ZHl8R4291F9fLJN1MsUebW5Pvq+6/XkNNeVZZHq4xDLOZ/yM1F+ZghR50iv/+w7+4hp1s191bZr6sTrbT2mo73+c1wxH+PIPuoxT17/8V6r3o6YxnKUZ4r2kWI+26a6XvaT+SH6jPnIzxRimvuq3Q99ivysn33EdLK/GHfmR4r6URZyvu7/yK7/I3/9jy+mcz77iLZRPwIxuU9DvhfI+lEn+wtZL8/FeZ//m2l9DoTsLzw77/1/dz5lnWgXKbc/l3M+24WYRtsUfxuzLNvNrzNqG+vIvmO57jvycx/VxyevvaiXKcea6j5CvZ6cjrZ/8vrPYzg6p1Oup+4v6uT4Ij/6DdFX1Inlel0h8mM5+4hp1s19lW26MY22J9ZV78+Q5TGtj32dn+OK+RhH9lGPua4TfWS9HFtMczyZok6kmM+2qa4Xf8cmx5XbGPnt+vrydr7pM8TfpKiX68/62UdMJ/vL8WSK+lEWcn6u/2a+Pr9Slmf7nI+UfeV6snzh1/+j/PzfvK5G/aiT/YWsl+Nb1vXff54IC77/n/ibEyn7j9fh7Cum2S7ENMabso+Q/XR1RoH5um2sI/uO5brvyM99lMHtkG2iXv69ybGmuo9Qryen9fZHXlzv9XHIddRyPXV/UWfh67/7l/ixPFpXVy/7zj7afdykqBc35oY4l6JO/dkw6i99/Y/+BVudn+OK+Rhn9lGPOb94iPcdcS3G62het/H5oZ32+yhT1Ik+Yj7kNNT1ot3kuHK/RH6mENPoM0SdTJGf9bOPmE72l6//GaeI+lEWcr7uf6HrP/oIeR22831/2Vdud5Q3892OyIJQX4iRF/O5XAdpMz/qxHKoB5x5qX7THaI81pXrDdlnpBT14qKJvDjY9Qt2ts/15k6J8uyja9/Vz/mon21C1M2ySDmGSLl9eTJECpGfJ2TkRZ38tjPkdmWb7CNT9lv3l/Xq5UyZF+V1u7pNztd1MmV5jivLs23sj6yXeZNjrNVfsETKfZHyj3D+Ic9+cj2R6m1MkZd1ok3WybJ6PHW7EGV120ipXlekWE71uZBie7J9rifXn21zmvUWKou+I02+6EV5pvrFNscSy5kXdfJczxT9xTTKY6zRRyznGCLV10NOIy/a1PVCTrM8RF7M53JOc1yR8s6qMPdmojn2C13vtW4s3Tak7DPXE/J6j7zYNzGffeU+yX1Wb2++Mavr53wekxR9Z1mkehzRf+TFi1qe0yHyM/Cd7U/09V9/SMy8uk3O13UyZXmOK8uzbeyPrJd5Ocbcl7W6z0ixTbXMj/aZYjnXE6nexhR5Waddd18ny7KfULcLUVa3jZTqdUWK5VSfCyneDGX7XE+3/tELcU6zXkwny/KOmOVe/xn0jDcC+aYm6uS5num4X//9Hfv1F/Htl0bVOZ/TfD2OlOsMuR9jzJmXFlrObUrZZ64nRL1IkRf953LI9rneenuzj7p+zkf9fOMYou5cWZNyDJFy+2IfZ16I/DznIy/qnHXWmnYacruyTfaRqR13v64Qy1mvXs6UeVEeKfPqNjlf18mU5TmuLI8xhNgnWS/7y/Vlfq3uM1L9gSlkfo5lbn3NeuL8iPl6G1PktWOJ15CmTdbJsno8dbsQZbkduc5UrytSLKdoMymOUbbP9eT6s21Os15M8014lkXfkQ5//T/b5sd6ciyxnHlRJ8/16D9Sd/1312qMdd7131y7+SE01xnX7aLXfz/N8hB5MZ/Lubfb3pqFWO6u9cgYrWdUszJXNtK+h+z7brV99h33mr3QrjDyu/4zxfi6seV645xJOeZYb1cas90+zWOSso9Muc2RYh/Ee5nYx5kXIj/yQuRFu3yEXcj9mW0iP+pnavvt1xVyX9fts22+147jXb8fCnWbnM80aj+qm+PK8mwb+yPrZd7kGGt1n5FyX6TMj/aZYjnXE6nexhR5bZ1T6PrP9z+5/myb06y3UFm8nkf/y339z7HEcr7ORp24ltv6zXUdKW6iieUoj7Eu9PqfX0LnOmN6TNd/P61fI6NOjLPN78ce+bnOtNByjC/XG7LPSCnqRYq86D+XQ/5NzPXGcujqd/3W9XM+j0nK8Waqx9Ft32LXf/eaF3lRJ45xTENuV9tHXx59ZMp+6/6yn9Hy+P5f1Wxfd/2PrtW6Tc5nyrZ13RxXlmfb2B9ZL/Mmx1ir+4wU21TL/GifMYBYzvVEym2OlCIv60Sbtk7/d31yPHW7EGV120ipXlekWE71uZAmv8QMcd1FXrbNadZbqCz6jveah7v+6y/bciyxnHlRJ8/1TN3rf7dNse8XfP3vb/LKdcZ0/vXfXTMxHxa8/vv9n/nzr/+u/xx75Gdeyr8RKceS6w25rlxPiHqRIi8DzNl3ts/1xnKor4+6fs63x6SPVYQcb6Z2HH3K7Yt9nHkh8vOcj7yos9j1H9dx9pEp+637y37q5UyZF+V1u7pNztd1MmV5jqvbR+PHLo9zxm7yfM/8Wt1npNwXKfMnx9Oupy+rtzFFXlwvkRdt4nF0WZ7bn8t1uxBl2X+uM9XripT7IeT5U4vtyfa5nlx/ts1p1luoLF5rIsV7w5B1ozzT4q//XV7UaV//+9f+WF7i+h9tXJvRdzzZeW5kHPDuD0Z3F2J2GvPRps5rp1Ve276fD3W7MDkfbVOWRdt8seve5I73GWK5noZcf2xvpmwT+TGWkPujbptjCtEmdmC2zX6z7+gn/zBmfshprndy/TEf68kTOvuKaeRn/9lnpDwZsjzXGaJuHPjIy/VkeW5rnR+y7WRfWR5iflS/+8PQzY/GFwHQNq85V+Ibv/xDne2iXm5XvW9zvu4r2sS0LqtFvZT9Z5uY1v2EmM/lnA+xnHkp64Uca90220R+PY2yTLkc50SWh6wfZSHPmVD3keKY5XHLdnVeyPYh8rN99pXluc8ir95/WSf6j5R5kbK/tk1c/80fmayf3+LmuOJ4ZxA8X4jrbcpxZOC0XtdC8yGXo22mPLaRss8QyyEDViHKIz/aZMo2kZ/7MfdH9hHqcUSbE3v9d9uYfcU08qJOHdSPFP8kMKZZnusM0e7Ir//Rvs+6IctDzI/qj/Z7zMc6u/67DzvdfPf3rG4X9XK7IqWcr/uKNjGty2oZRAvZf7aJad1PiPlczvkQy5mXsl7IsXZ5oz4jRX49jbJMWffkX/+jdcc+CZEf13KKv9ftuJprNtaReZHyGm/bNO3jA0PMR/1cV44r8vLOijovpjkf6nZh3nz1xjvLom2mPLaRss8Qy/U0RHksR5tM2Sby8zWrze/zUjemrm60iesu23b9dvWjbWzTkVz/ua6Yj/XkNmZfMY28qJM/tJppydf/Ncu7/jNolW0n+8p6IeZzOevlfL4fy/5zPttk3RhbbleklPNdX82x7c/HWK7LalEvZf/ZJqZtP/18iPlczvkQy5mXsl7IsdZts03kj02bsiiv6y59/Y/ubMo2+fc4xH7M/doGpZryLm/0ZUq2D+312uy/UI8l5D6L8nr/xVByXJG6vK5trKudb/KiTnvOtAvNvomGbd0uRWbU7XTtm0b9cqOfb7dv1KibZLs2u59vxJpjuWsa/8nj1RZ2Wb1sV7dvi5vl2N5MuT+iXu7buX1Ttc19EaLN4V7/4+/e8X39j/Mm9n33ZXL2Gcvdl0HRpjs2uc4QdU/E+/847nX9ej7Hl/3nfNTJFKJepPo8Czk/19cpdP2311yT6rbZJvJH0/oYjeoe7et/jib2Y+7XbBfXeJc32oYU+dl39pXl+Z4p8ur9l3Wi//zsnW2zv2wTAfmsn2U5rszLvjIvpjkf6nZhsfmQy9E2Ux7bSNlniOVuOmof5ZEfbSLFPsg2kR9jCbk/so9QjyParNz7/y5QE3nZf/YZ6eR//h/t95jP8WX/Od+26WMAIerldkVKOV/3FW1imu8FY74W9VL2n21iWvcTYj5SftESKUR5tksxn+1yrPXfpGwT+fU0+806MY3X9ywPWT/KQlxPdVm2T7Efc79muzovZPsQ+Uu+/jd53fyoXo4rUuZFqt//tzcVzF3/3Tkf8zmu6CPysq/Mi2k73weJ63ZhsfmQy9FPpjy2kWI5xXI9Dbn+aJMp20R+7sduf4y3rccRbea//+/GEK/V0c+xX//d+KKvmEZe1//xuv7zy8huW7N87nyJc7w5Rrmc5aG+jnOdOZ/jy32Z64o6mULUy+2KlHK+62v0+hJ/x+vXo1r0k7L/rk3Xth1Tf82GyB/1Ozo+sZx5KeuFHGvdtmvTbUfM5zTKMuVyXC9ZHrJ+lIXFXv9T7NP8jJoxtTav39ch24dV2XkelFhBTrNiLocIBMSOinYh62T9HFTmr2k+XGZAKvLqNxXZJvrKg53tU7aLA53TeCMb4o1tPY5IOZ/T7DN0b4JHB6eW2xc7Ktef06hb16/rTvYTch05tpDrjLzJ/Hoa2xey76ib+6YeW5TFOLLfKK/LQtTPsUReXZ51ciyZV9fNOnU/kWI+64SYj/XnfD6OJf8IZN1MoV7OvHobchqyj8n5qJPLkWI5+sjykHVyPixUP8cfsn4e5zDZd+63FGV1Hzmf+bEPMy/XFyn6zX2bfcZ81MkU9XK9URaiv5B1Yxr1sq9cV5aH7C/7mKwf0zynYlqvM/dFWy+u//6NVr5I512+bf/VH9K8qyj6iLx6XBnMiOs58iO17Zuy1LUblcU091O8sOV8lEXK+RBv3rJdiL5yezMv5fbV11hO675D1o0P8RkUq+U6cmwh1xl5k/n1NMYbYhxZP/Li7+bkHSTtlyv9vo46dVmor9v2hboqzzo5ltjHkdq6TVlOQ6w3XlgjL1K0yToh5nPcMR93Led8pmybberlzKu3Iach+5icjzoxn8GGWI4+sjxknZwPsTxZP8cfsn7e7RIm+66PYYiyuo+cz/yjvf4XOofDcbv++zcJ7et6M80v7Nrrub+2cznUYw7Zd/69yP4zP95cZpvIy9e3ts++TfQVdSJl+zRqNzpOue6lrv+u/vjfsdw/mZdy+5Z1/Vd1J/sJuY58nxJynbG/c8xhcl2xfSH7jrrtvmmOz7eaN8n1mGL/Zb9Rpy4L8UYwj2/k1eVZZ3L/1XWzTowltylSzGedEPM57piPY57zmbJttqmXM6/ehpyG7GNyPurkcqRYro93yDo5H8brH+76745zqOuG+hiGKKv7yPnMj32Yebm+SNFv7tvsM+ajTvc3uaub642yEP2FrBvTqJd95Rd29Wtx9pl9RJ25+v1Y8pzKazPkcois5ojN9dH02E3n1hH/rY9dP/a+fl+hFWWx3BY1066PZrlqH7OxjrYs/t/W78pz7KGtExVivu2nm3btuuWQbbJOyu2L/Zp9zvUd/fR/C0Ndd7KfkOuIacp1Rt5kfj2N4xCy7+69UdyVGEGDuP7zeq2/XB2dS11ZN6boo97eujzr5Fgyr66bdep+4kucmM86IeZz3DF/Mq//OmAb2jr9eZF91vVjnTGf4w/ZPo9zqOuGfP+boqzuI+djGmOKfZh5ub5I0e/cvu2PRcxHnS519XK9URbyQ37WjWnUy75yXVkess/sY7J+TPOcqgONcc7lvsh6Odask+/ls//Mn//6PxpX9Bl50VfkR8r2qW6X01z30q//8/ddbm/mpSWv/6r++PU/OuYp15FjC7nOyJvMr6cx3pB9R93Ii9Re/33b6CvGkf1GefaRY62v28iry7NOjiXz6rpZp+4nUsxnnRDzOe6YX/D6b16Hsn3I+Tqv3oachuxjcj7qxPyJe/+/wPXfvw7kfktRVveRr7+Zn1/ShFxfpOg3923+TYn5HGPWzTFFWYhjErJuTKNe9pXrims322Z/2cdk/ZjmORXTuXU2x659pHIzn7G83P6sk/Xb/uvP/0dz/TftU92unfbvWcLy3v+P77vc3sxLeaxjv+b6o16IunX95b//H50juc7Im8yvp/n5KPuOurEN+RpSjymPVcxHnbosRP0cS+SNykf7JD+jxHIbI4hjV03D3OeIJi9SzI/3NzquMT9+/ffHtKmbKdTLmVdvQ05D+3e86aObHx2LqJPXfq6jPt4h8nI7ss+F6uf4Q7bPcyJM9l0fwxBldR85H8ctUhsr6vNyfZGi3zxG2WfMR51M0T7XG2Uhjm3IujGN/rq+Zsv/H+/UR6CUchEZAAAAAElFTkSuQmCC;" parent="gIZhr3SArTlTRKROjt2a-1" vertex="1">
          <mxGeometry width="1313.83728115345" height="836" as="geometry" />
        </mxCell>
        <mxCell id="ooGHdUAhtFmK21fpcZyN-3" value="" style="shape=image;verticalLabelPosition=bottom;labelBackgroundColor=default;verticalAlign=top;aspect=fixed;imageAspect=0;image=data:image/png,iVBORw0KGgoAAAANSUhEUgAAAFUAAAAiCAYAAAAu0pUjAAAAAXNSR0IArs4c6QAAAARnQU1BAACxjwv8YQUAAAAJcEhZcwAADsMAAA7DAcdvqGQAAAJGSURBVGhD7Zo9b9NQFIZfGMrXGKhbKiYGM1VI/ABWSFHdle5xyozAU0upWILED7C7M7tVk52JqVLUiQydoBCnzVi+luBLT6oQ+9qxmxOs6DzSVXyuLCV5cs65N7YvnbY/9iCMlcv0KowRkcqASGVA21Pbp7N0JAwyd6NDR3q0Uru/F1AqlSgSFN1uF6WZI4r0SPkzIFIZ0Ert9XoyYsYoSKYyIFIZEKkMaLdUJ79uF2NL1XSxvFGnIIbHb7D7bJECRYD6iwrcFoUxLG3tonqfggyoLdXNK18p0qOVevxzvjBSrfd34L0tw6Cp/BzAtdaB1zu5pd66+o0iPRMp/2DPgWVZcPYCmpluprCnBmi8tP7+iNGxjgadxclEyl9lqr39CfcqHmpPMhaxKv9XCSrM6lBrUFJtfF7NV+JJjFr+xZeamTOpSQtV3s/xX6X2JaaR+OXSMnSYSMYSY1zoLiy182Muv9S6g+p2QqoQZsVFbWlcmRtmqBOKTX/bc8qbPuwMLUJJnb3WpkgPi9Rh+pJzS+w04NgeIr4ebcFfG9yj8jI9UpseVjYbMVlFmYmwf9YGS/sA3spG4iqfNUP7jCq18Fuq4Ogw7BM2rIgEA+XnNszWB+z/czF+Ebbvw48dLmyTTmOk8FKNhbtAy8NOkybOCTP1XdgSzId4ULA7PxMp/4ujKenMPfWsZXx5ylv+WqnBd6NAUouBkmpcT/+rLZf+GBCpDIhUBkQqA1qpcXcSZcSu6REkUxkQqQxo96nqWSohSvqzVMAf8xW/UDkHI6IAAAAASUVORK5CYII=;" parent="gIZhr3SArTlTRKROjt2a-1" vertex="1">
          <mxGeometry x="357.3394495412844" y="215.24201853759013" width="73.18228630278064" height="29.272914521112256" as="geometry" />
        </mxCell>
        <mxCell id="ooGHdUAhtFmK21fpcZyN-12" value="&lt;font style=&quot;font-size: 50px;&quot;&gt;그리드 형식&amp;nbsp;&lt;br&gt;leaf node 데이터 IN CELL 형식 수정&lt;br&gt;&lt;/font&gt;" style="rounded=0;whiteSpace=wrap;html=1;" parent="gIZhr3SArTlTRKROjt2a-1" vertex="1">
          <mxGeometry x="217.88990825688074" y="568.2389289392379" width="1089.4495412844037" height="258.2904222451081" as="geometry" />
        </mxCell>
        <mxCell id="ooGHdUAhtFmK21fpcZyN-13" value="" style="shape=image;verticalLabelPosition=bottom;labelBackgroundColor=default;verticalAlign=top;aspect=fixed;imageAspect=0;image=data:image/png,iVBORw0KGgoAAAANSUhEUgAAAFUAAAAiCAYAAAAu0pUjAAAAAXNSR0IArs4c6QAAAARnQU1BAACxjwv8YQUAAAAJcEhZcwAADsMAAA7DAcdvqGQAAAJGSURBVGhD7Zo9b9NQFIZfGMrXGKhbKiYGM1VI/ABWSFHdle5xyozAU0upWILED7C7M7tVk52JqVLUiQydoBCnzVi+luBLT6oQ+9qxmxOs6DzSVXyuLCV5cs65N7YvnbY/9iCMlcv0KowRkcqASGVA21Pbp7N0JAwyd6NDR3q0Uru/F1AqlSgSFN1uF6WZI4r0SPkzIFIZ0Ert9XoyYsYoSKYyIFIZEKkMaLdUJ79uF2NL1XSxvFGnIIbHb7D7bJECRYD6iwrcFoUxLG3tonqfggyoLdXNK18p0qOVevxzvjBSrfd34L0tw6Cp/BzAtdaB1zu5pd66+o0iPRMp/2DPgWVZcPYCmpluprCnBmi8tP7+iNGxjgadxclEyl9lqr39CfcqHmpPMhaxKv9XCSrM6lBrUFJtfF7NV+JJjFr+xZeamTOpSQtV3s/xX6X2JaaR+OXSMnSYSMYSY1zoLiy182Muv9S6g+p2QqoQZsVFbWlcmRtmqBOKTX/bc8qbPuwMLUJJnb3WpkgPi9Rh+pJzS+w04NgeIr4ebcFfG9yj8jI9UpseVjYbMVlFmYmwf9YGS/sA3spG4iqfNUP7jCq18Fuq4Ogw7BM2rIgEA+XnNszWB+z/czF+Ebbvw48dLmyTTmOk8FKNhbtAy8NOkybOCTP1XdgSzId4ULA7PxMp/4ujKenMPfWsZXx5ylv+WqnBd6NAUouBkmpcT/+rLZf+GBCpDIhUBkQqA1qpcXcSZcSu6REkUxkQqQxo96nqWSohSvqzVMAf8xW/UDkHI6IAAAAASUVORK5CYII=;" parent="gIZhr3SArTlTRKROjt2a-1" vertex="1">
          <mxGeometry x="331.1926605504587" y="516.5808444902162" width="73.18228630278064" height="29.272914521112256" as="geometry" />
        </mxCell>
        <mxCell id="ooGHdUAhtFmK21fpcZyN-14" value="" style="shape=image;verticalLabelPosition=bottom;labelBackgroundColor=default;verticalAlign=top;aspect=fixed;imageAspect=0;image=data:image/png,iVBORw0KGgoAAAANSUhEUgAAAHgAAAAiCAYAAACUcR1DAAAAAXNSR0IArs4c6QAAAARnQU1BAACxjwv8YQUAAAAJcEhZcwAADsMAAA7DAcdvqGQAAAmbSURBVHhe7Zp7UFTXHce/d5/sA1bY5Q3LGxRcEPEBFUGsWuPYWpOMRm3aTOL0mX+amU7HPzrTmc60/7SdSftHknZSazOmjlUTrVOfIAoovpBAYHkKLMICCwu7sO9Xz33wWIKyIJrJzn5mDrv3nHPPvXu/5/x+37Ms5SOAYLVa6ZcQQcaMwGOjIxB5+pjKEN8MKNDSMfI9FT+BxZ4epjJE8MDjXkMEKaEVHERYXTI4fAruiCUkcBBh84RDqkgBRVFczRIE5rqF+BqYK9izWJbAdLPNZifvyEmBXSfESkLU4fEoiMWiRYW2ueWQLFVgu8MBHsWDSCTkakK8bOx2BwQCPikCrmZhFhJ4URftdnsgFD574BAvFlpcj9fLHS2NxbdJZH0HmgNCvCgCf/50QJ5bQvvgIGIhG7xoDp6askIul3JHz2a4vw/DlBKpMhO6R8JQmKNk6n2UEZfPNMPI3UF0Vg52FcSxBxz6lkZUaU3cEYX4jAyUr0sEf97ktfe34OzdUeb92pJiFCSKYTUZcL/ThvINaqZ+Iez9WjycVKIkN+Yrs9oxrkOzPgwZQj3akYbirAiuZQm4raip1iFzSzI6Ww0oK0rlGp4fOk16vB6IRSKuZmGsdA6OUPtFXP5vCfQbm9UCgW+CqZyL0+la2GCRD/TfU9UwxKdDLWUHHNb1QueQI1pgRNsAkK1WwGsZwvt/uoq48u34flkW8nMTMHSvHv9s4qMsL5IJPoPtzThRZcWRt0qxMTcV+TmJ6Kq/iTq7GuviZ6/tMfXhL8e7sOcHO7B1nRJ1F25jVYoafPsY6lpMKFwTjaba2/jgZA0qa5txreohPOp8cn9umHpa0GCUYW1aJAzdWnzw8VVcud8LVWISVrkH0aCjEOPoRbMtFmuTZbCOj+HE8c/x2fUm3CBjVVY34OodHeKzkxEjY+/J63bi80v3kZqaAIHXipvXHyNao0LzF3qsWx3P9XGh8XYtPjpZx9xTdbsFxWviIRDyAg68Xi8bbgV8PlezMC6vCEKxYmkm63lxmadgFEQhLX46CvCREBcB14AB0+s1LFyKpDge6m88whW63GqCEVHICPdwPVietOtgzcolgpEDXzhSEyQYtTnYRgYK0UmJ2FKci9LiHGQpJWRWuNDW2om7nZNMD5/NAK3OjvwNudhSkAy9bgQL/R9NGqnE0Z8fxu+OHcYvf1iOjalx+M73ipETMxvN2NhHeKpSdtw9cwGdVCaO/foIGesI3nslBic+vISOCRfXZ2WZzr3T5YULLI5LxzubvPj4r5/iN384Scq/8bdLBhz4WRGmv1SLSkjHgb2F2EqEYUsevrunGFuywrkeLEk5akg7W6EjivioQTzqsEElEXOtND7oe3uhl6WTMTR44539qEh0oV1LBO4yMz2osChsnrkOmQhFSQhjWhaAsuHKR6fwx39UoqZzCOMWHubGMq/XDKuFdqF6fPjni2gZmeJaWHxw4HGfDUlkhYu5J70qKR5qsRnGcTdbsZLMzLhZVnj/40b73YcYEDkhT9OwVWQPnVJegMJ+PXYf2Aj+5Cg+udYNjZgONy603riPRuPTZ7NMFYNvl6yBnKQfPtnjvXt4Cucu3WTaNu7digSFACb6e5g5mIcGoRXP5quszaXYrfkSF+jUTfFJSmhBXccoEYBCeq4GRZE+9Gq1GOOZEV5ATx4Trp/5AgbSQ1q0E7/foGLGeXDjFj4960Pa+k0oSZOQ6KTH4LAZuvEY/PS9vfjk4yam3zQUmcJ7X9Xg0oN6kr9iQH9ko34IluT12ErOfxks32TROfh0HSJ37UCpio1R3c2N6KLUKIwcxr0eGbbHjeDvVXrS4oRx1AWFUgbK48YoUSRGKQclVuLgoc3gD/Xh/LUWTPlHZGRv24VXsueu0IUxDffi7G0z3t6fD4vZjDHz3LBNoog8HNL+eiKwGm9UpKPywnWsKStHNBHyPzUDeK0QuNIRjk3idtRSG1Ai7MBnDUbu7K8SEZWAffvy0Hr6IryZq1H7wIKjR3NwmQi8+U0N7lT14K1967nexN9MmTE64WBcLiWSIDlGzjYESMAmyyVD2DyTtXyBPXbUVN5DQ+90JgXUGYmQxqbOCLy3lLhatwO6riacrRwCj4lvPjhFShzaU4gEks/oyOWy2zAyNgXPTITx4UlrC3pji3G4wH+m08bm/MU7yCtYjTBiVGimjIOo6aLwk1fzmWOffRL9o/OWNUEaEQGlwo2qcw0QZqZCRZnx2CTH9tQJP4EPlkRzZxBIDr98rgaxJFoUStgA7SOTtPlWHaonEvHj/Zl4cusy7o6rYOu3YOuP8v0FJtc4/a97KNu3DXERFJqvVaNdXYHXcwLPjksRWByeDB5vduzlu2ieACkZKSguypkpIsswjJQC8RILBiZEjIu26Xvw/vkRvHl0N3YR41NclI1cxRSOn2pHVlEa5CRJjDxux/8aJ6AgWlqJabLanBDIFchSKxEp8X8QPvJB29p6wA+TwulwMv3NJhP0FiE25caynWxEOD3Jj8xYbDF2NOLBaBjyUmORTMa1mcxwUBLkr06EwG5A95gYiYIx6KgExkXP4POiS6uDPDsF8ULWxdICWzwSbClNAd0zKiUF0WFOdLVNQl0Yiyc9E8jPjEZtZS1qH+nQ2z+GgeExaIlJbO8zQD9ErtM9CCouHrr6WnQ4VyFN9VQnELCLdhIXLSAuei6BT6MA4JEbEM7buIYREyTxDqFnyM49bBu624fgU8UiYk70pXPt6qwkvxI75znPhRJJkU2ixXS/zBTljImhocKjsT4/w69o1LNhUSSTIy+P1OepESkjM4xMVhEnXiDwhCJkZCdgdrcsRFyCCnIy1vQoPIEAW3eW4chrO3DsVwdx9FAFjry+Db949yCOvb2NvP8WNFECbKwoQ0WOvygryfJD9DOwTBowMM6uYBYz7tzoJn9ZeESAnRuSuCNgcmwEDV8OwD7v61a+So0dGvbLkmnoFaxt0qJ/3N+YSaITULaWW8EL4CR5us2qgIbsg5+2q5nq70QvvYKT5q/gPsizUhDHpYRn4XHY0dw7jnU57D54JQg0RFvoHExC9Mrk4BAvjaUILJYn+Qm8oiE6xNcMu1b9CAkcRNDumf59u8VimSmLhmiL1QZJmNjPeod4ubhcLmZxLudHF4uqRg9qtdnh8SzvH84hng86/9JbVb4gcJc/l0VXMA19EXp7Q7+GeHnQXon+mY5UIgGfv7wIGpDAIb65hBJrkBMSOMgJCRzkhAQOcmZM1qhhGG5zK1MZIlgA/g/xtVMKTIvauwAAAABJRU5ErkJggg==;" parent="gIZhr3SArTlTRKROjt2a-1" vertex="1">
          <mxGeometry x="217.88990825688074" y="516.5808444902162" width="103.31616889804326" height="29.272914521112256" as="geometry" />
        </mxCell>
        <mxCell id="ooGHdUAhtFmK21fpcZyN-17" value="" style="endArrow=classic;html=1;rounded=0;entryX=0;entryY=0;entryDx=0;entryDy=0;exitX=0.824;exitY=0.294;exitDx=0;exitDy=0;exitPerimeter=0;" parent="gIZhr3SArTlTRKROjt2a-1" source="ooGHdUAhtFmK21fpcZyN-3" edge="1">
          <mxGeometry width="50" height="50" relative="1" as="geometry">
            <mxPoint x="435.7798165137615" y="404.6549948506694" as="sourcePoint" />
            <mxPoint x="618.8073394495412" y="43.04840370751803" as="targetPoint" />
          </mxGeometry>
        </mxCell>
        <mxCell id="ooGHdUAhtFmK21fpcZyN-18" value="" style="rounded=0;whiteSpace=wrap;html=1;" parent="gIZhr3SArTlTRKROjt2a-1" vertex="1">
          <mxGeometry x="644.954128440367" y="111.92584963954687" width="383.48623853211006" height="111.92584963954687" as="geometry" />
        </mxCell>
        <mxCell id="ooGHdUAhtFmK21fpcZyN-19" value="코드명" style="rounded=0;whiteSpace=wrap;html=1;fontSize=20;" parent="gIZhr3SArTlTRKROjt2a-1" vertex="1">
          <mxGeometry x="662.3853211009174" y="129.14521112255406" width="165.59633027522935" height="51.65808444902163" as="geometry" />
        </mxCell>
        <mxCell id="ooGHdUAhtFmK21fpcZyN-25" value="유저코드" style="rounded=0;whiteSpace=wrap;html=1;fontSize=25;" parent="gIZhr3SArTlTRKROjt2a-1" vertex="1">
          <mxGeometry x="226.60550458715596" y="8.609680741503604" width="113.30275229357798" height="34.43872296601442" as="geometry" />
        </mxCell>
        <mxCell id="ooGHdUAhtFmK21fpcZyN-26" value="순서" style="rounded=0;whiteSpace=wrap;html=1;fontSize=20;" parent="gIZhr3SArTlTRKROjt2a-1" vertex="1">
          <mxGeometry x="836.697247706422" y="128.00012358393408" width="165.59633027522935" height="51.65808444902163" as="geometry" />
        </mxCell>
        <mxCell id="ooGHdUAhtFmK21fpcZyN-27" value="" style="shape=image;verticalLabelPosition=bottom;labelBackgroundColor=default;verticalAlign=top;aspect=fixed;imageAspect=0;image=data:image/png,iVBORw0KGgoAAAANSUhEUgAAACUAAAAdCAYAAAAtt6XDAAAAAXNSR0IArs4c6QAAAARnQU1BAACxjwv8YQUAAAAJcEhZcwAADsMAAA7DAcdvqGQAAAGMSURBVFhH7ZhBToQwFIYfJDizUFkwE2OMLowbD+Aall4DbsBJuAEcwyUsjN7AlbrQmGhgMkFHM6MZkNYiAy0GbWFmEr/khb4C6Z/32keLdHd1lkLHSJIM/c0hbA8OYaOvkt4C6fXxsiRq9L4HmqYRryXSBOazCF6iaxgcnFDCZHL9Jk3T9g0kkHtD2NKO4Dm6JSMXUKK6RO5pMJ2ExCtYqijI5laapbKKsPT5vo+Nde8nYyEkUnEcg+u62FCbFyGicjG5OF6404dSFgQBeRtw+zdpZMEVKRQZz/OIV4D6eNLIJapu8DqxTaEq+tPbTvsVfYH44QL2j0+J94WQiS6a9RDFWiFtGgtKlKIonRqL9YjUKrCSoqg6FU53G9cpx3FKn5hFDMMA27aJV8/4/lxsnbIsC1SV3mOjPnTvr3CJqhu8TmxTuFefrus4VTmojfpYz7KMhZCJbpomjgwy1OZFiKhcTC6Ol/9dAkV2kkGn5SrLFfUxxsf3KpQo1goRbskcklkIk9EN/p9QBuATr6SaRF9wFjYAAAAASUVORK5CYII=;" parent="gIZhr3SArTlTRKROjt2a-1" vertex="1">
          <mxGeometry x="993.5779816513761" y="140.33779608650875" width="34.43872296601442" height="26.9913491246138" as="geometry" />
        </mxCell>
        <mxCell id="ooGHdUAhtFmK21fpcZyN-28" value="&amp;nbsp; 상위 코드 등록&amp;lt;부모값 없음&amp;gt;" style="rounded=0;whiteSpace=wrap;html=1;fillColor=#191919;fontColor=#FFFFFF;align=left;fontSize=25;" parent="gIZhr3SArTlTRKROjt2a-1" vertex="1">
          <mxGeometry x="644.954128440367" y="60.26776519052523" width="383.48623853211006" height="51.65808444902163" as="geometry" />
        </mxCell>
        <mxCell id="ooGHdUAhtFmK21fpcZyN-35" value="" style="rounded=0;whiteSpace=wrap;html=1;" parent="gIZhr3SArTlTRKROjt2a-1" vertex="1">
          <mxGeometry x="610.0917431192661" y="413.26467559217303" width="409.6330275229358" height="111.92584963954687" as="geometry" />
        </mxCell>
        <mxCell id="ooGHdUAhtFmK21fpcZyN-36" value="코드명" style="rounded=0;whiteSpace=wrap;html=1;fontSize=20;" parent="gIZhr3SArTlTRKROjt2a-1" vertex="1">
          <mxGeometry x="627.5229357798165" y="430.48403707518025" width="165.59633027522935" height="51.65808444902163" as="geometry" />
        </mxCell>
        <mxCell id="ooGHdUAhtFmK21fpcZyN-39" value="순서" style="rounded=0;whiteSpace=wrap;html=1;fontSize=20;" parent="gIZhr3SArTlTRKROjt2a-1" vertex="1">
          <mxGeometry x="819.2660550458716" y="430.48403707518025" width="165.59633027522935" height="51.65808444902163" as="geometry" />
        </mxCell>
        <mxCell id="ooGHdUAhtFmK21fpcZyN-40" value="" style="shape=image;verticalLabelPosition=bottom;labelBackgroundColor=default;verticalAlign=top;aspect=fixed;imageAspect=0;image=data:image/png,iVBORw0KGgoAAAANSUhEUgAAACUAAAAdCAYAAAAtt6XDAAAAAXNSR0IArs4c6QAAAARnQU1BAACxjwv8YQUAAAAJcEhZcwAADsMAAA7DAcdvqGQAAAGMSURBVFhH7ZhBToQwFIYfJDizUFkwE2OMLowbD+Aall4DbsBJuAEcwyUsjN7AlbrQmGhgMkFHM6MZkNYiAy0GbWFmEr/khb4C6Z/32keLdHd1lkLHSJIM/c0hbA8OYaOvkt4C6fXxsiRq9L4HmqYRryXSBOazCF6iaxgcnFDCZHL9Jk3T9g0kkHtD2NKO4Dm6JSMXUKK6RO5pMJ2ExCtYqijI5laapbKKsPT5vo+Nde8nYyEkUnEcg+u62FCbFyGicjG5OF6404dSFgQBeRtw+zdpZMEVKRQZz/OIV4D6eNLIJapu8DqxTaEq+tPbTvsVfYH44QL2j0+J94WQiS6a9RDFWiFtGgtKlKIonRqL9YjUKrCSoqg6FU53G9cpx3FKn5hFDMMA27aJV8/4/lxsnbIsC1SV3mOjPnTvr3CJqhu8TmxTuFefrus4VTmojfpYz7KMhZCJbpomjgwy1OZFiKhcTC6Ol/9dAkV2kkGn5SrLFfUxxsf3KpQo1goRbskcklkIk9EN/p9QBuATr6SaRF9wFjYAAAAASUVORK5CYII=;" parent="gIZhr3SArTlTRKROjt2a-1" vertex="1">
          <mxGeometry x="950" y="441.67662203913494" width="34.43872296601442" height="26.9913491246138" as="geometry" />
        </mxCell>
        <mxCell id="ooGHdUAhtFmK21fpcZyN-41" value="&amp;nbsp;하위&amp;nbsp; 등록&lt;br&gt;&amp;lt; 선택시 이미 상위코드 가지고있음&amp;gt;" style="rounded=0;whiteSpace=wrap;html=1;fillColor=#191919;fontColor=#FFFFFF;align=left;fontSize=25;" parent="gIZhr3SArTlTRKROjt2a-1" vertex="1">
          <mxGeometry x="610.0917431192661" y="361.6065911431514" width="409.6330275229358" height="51.65808444902163" as="geometry" />
        </mxCell>
      </root>
    </mxGraphModel>
  </diagram>
</mxfile>
